<svg id="Layer_1" data-name="Layer 1" xmlns="http://www.w3.org/2000/svg" viewBox="0 0 557.04 187.2"><defs><style>.cls-1{fill:#fefefe;}.cls-2{fill:#c1c1c1;}.cls-3{fill:#fbae17;}.cls-4{fill:#010101;}.cls-5{fill:#020202;}.cls-6{fill:#030303;}.cls-7{fill:#060606;}.cls-8{fill:#0b0b0b;}.cls-9{fill:#00a551;}.cls-10{fill:#fefefd;}.cls-11{fill:#fefdfd;}.cls-12{fill:#fefdfc;}.cls-13{fill:#fee1b1;}.cls-14{fill:#fdfdfd;}.cls-15{fill:#fcfcfc;}.cls-16{fill:#f1f1f1;}.cls-17{fill:#f2f2f2;}.cls-18{fill:#fbfbfb;}.cls-19{fill:#485850;}.cls-20{fill:#48785d;}.cls-21{fill:#486656;}.cls-22{fill:#48775c;}.cls-23{fill:#456955;}.cls-24{fill:#fbb121;}.cls-25{fill:#ec1a3b;}.cls-26{fill:#01a551;}.cls-27{fill:#e91c3b;}.cls-28{fill:#0d0b0b;}.cls-29{fill:#201918;}.cls-30{fill:#221f1f;}.cls-31{fill:#050506;}.cls-32{fill:#0a0a0a;}.cls-33{fill:#95524c;}.cls-34{fill:#20af66;}.cls-35{fill:#3dba7c;}.cls-36{fill:#3fbb7e;}.cls-37{fill:#4abe84;}.cls-38{fill:#2ab26c;}.cls-39{fill:#7dc99c;}.cls-40{fill:#26b26b;}.cls-41{fill:#2ab36d;}.cls-42{fill:#4fbd83;}.cls-43{fill:#78c696;}.cls-44{fill:#fbaf18;}.cls-45{fill:#fbaf19;}.cls-46{fill:#fbb01c;}.cls-47{fill:#fbaf1b;}.cls-48{fill:#fbb01e;}.cls-49{fill:#fbb120;}.cls-50{fill:#fefaf4;}.cls-51{fill:#fef2de;}.cls-52{fill:#fbb225;}.cls-53{fill:#fbb42a;}.cls-54{fill:#fef7ed;}.cls-55{fill:#fef7ec;}.cls-56{fill:#feebca;}.cls-57{fill:#fcb632;}.cls-58{fill:#fefaf2;}.cls-59{fill:#fbb530;}.cls-60{fill:#fbb328;}.cls-61{fill:#fef3e1;}.cls-62{fill:#fef4e4;}.cls-63{fill:#fcb83b;}.cls-64{fill:#fefbf5;}.cls-65{fill:#fcb737;}.cls-66{fill:#fbb42b;}.cls-67{fill:#fbb123;}.cls-68{fill:#fcba3f;}.cls-69{fill:#fdc360;}.cls-70{fill:#fcbd48;}.cls-71{fill:#fcb42a;}.cls-72{fill:#fcb52e;}.cls-73{fill:#fdc25d;}.cls-74{fill:#fdcd7b;}.cls-75{fill:#fcc155;}.cls-76{fill:#fcb736;}.cls-77{fill:#fcc35c;}.cls-78{fill:#fedda7;}.cls-79{fill:#fcc562;}.cls-80{fill:#fdc567;}.cls-81{fill:#fdc45f;}.cls-82{fill:#fdca72;}.cls-83{fill:#fdc461;}.cls-84{fill:#fbb122;}.cls-85{fill:#fedca5;}.cls-86{fill:#fdc86d;}.cls-87{fill:#fcbd4e;}.cls-88{fill:#fbb01f;}.cls-89{fill:#fdc35c;}.cls-90{fill:#fbad18;}.cls-91{fill:#f79324;}.cls-92{fill:#f89923;}.cls-93{fill:#f4822d;}.cls-94{fill:#a23f44;}.cls-95{fill:#0e0e0f;}.cls-96{fill:#41302d;}.cls-97{fill:#0c0c0c;}.cls-98{fill:#ecf6ef;}.cls-99{fill:#f1f8f3;}.cls-100{fill:#fefcf8;}.cls-101{fill:#fefcf7;}.cls-102{fill:#fef8ed;}.cls-103{fill:#fef5e7;}.cls-104{fill:#feeed4;}.cls-105{fill:#fef7eb;}.cls-106{fill:#feedd1;}.cls-107{fill:#feebcc;}.cls-108{fill:#fcbc48;}.cls-109{fill:#fedfac;}.cls-110{fill:#fefcfa;}.cls-111{fill:#fef6e9;}.cls-112{fill:#fefbf6;}.cls-113{fill:#feedd0;}.cls-114{fill:#fef8ef;}.cls-115{fill:#fef9f2;}.cls-116{fill:#fef6e8;}.cls-117{fill:#fef9f1;}.cls-118{fill:#fef8ee;}.cls-119{fill:#fed695;}.cls-120{fill:#fefbf7;}.cls-121{fill:#fdc059;}.cls-122{fill:#f89c22;}.cls-123{fill:#ee3a38;}.cls-124{fill:#f79a24;}.cls-125{fill:#f05136;}.cls-126{fill:#ed2f39;}.cls-127{fill:#ee3839;}.cls-128{fill:#ed2d3a;}.cls-129{fill:#ee3739;}.cls-130{fill:#ed3239;}.cls-131{fill:#f05d35;}.cls-132{fill:#ef4637;}.cls-133{fill:#ee3938;}.cls-134{fill:#ee3b39;}.cls-135{fill:#ef4337;}.cls-136{fill:#f05935;}.cls-137{fill:#ee4438;}.cls-138{fill:#ed293a;}.cls-139{fill:#ef4d37;}.cls-140{fill:#ed313a;}.cls-141{fill:#ee4338;}.cls-142{fill:#ed303a;}.cls-143{fill:#ef4038;}.cls-144{fill:#ef4837;}.cls-145{fill:#ee4238;}.cls-146{fill:#ee4038;}.cls-147{fill:#ef4338;}.cls-148{fill:#ee3639;}.cls-149{fill:#e1533d;}.cls-150{fill:#f05635;}.cls-151{fill:#ef4538;}.cls-152{fill:#ef4238;}.cls-153{fill:#ee3e38;}.cls-154{fill:#ec203a;}.cls-155{fill:#ef4937;}.cls-156{fill:#ed2b3a;}.cls-157{fill:#ec1d3b;}.cls-158{fill:#f68f29;}.cls-159{fill:#ec213b;}.cls-160{fill:#ee3d38;}.cls-161{fill:#f04c36;}.cls-162{fill:#ef4438;}.cls-163{fill:#f16534;}.cls-164{fill:#ef4e37;}.cls-165{fill:#ec243a;}.cls-166{fill:#f05735;}.cls-167{fill:#ef4c37;}</style></defs><title>logo</title><path class="cls-1" d="M164.21,187.5q-81.53,0-163.06,0c-.87,0-1.12-.14-1.12-1.08Q.08,93.82,0,1.18C0,.16.29,0,1.22,0q277.47,0,554.94,0c1.07,0,1.2.3,1.2,1.25q0,92.58,0,185.14c0,.91-.22,1.11-1.11,1.1-7,0-14,0-21,0,0-.08,0-.19,0-.22,1.85-1.36,2.26-3.51,3-5.46s1.39-3.66,2.05-5.5c.13-.35.75-.91,0-1.18a1.12,1.12,0,0,0-1.48.67c-.29.75-.52,1.51-.78,2.27s-.47,1.53-.79,2.26c-.11.25-.24.53-.58.52s-.46-.28-.56-.54c-.48-1.23-.85-2.5-1.28-3.74a3.05,3.05,0,0,0-.48-1.09,1.15,1.15,0,0,0-1.42-.29c-.51.24-.21.71-.08,1.06.78,2.1,1.5,4.21,2.29,6.3a4.26,4.26,0,0,1,.39,1.86c0,.66-.34,1.32-1,1.33-1.27,0-1.68.75-1.95,1.75H242.21c0-.08,0-.19,0-.22,1.57-1.07,2.07-2.78,2.67-4.42.79-2.18,1.64-4.34,2.41-6.52.13-.36.7-.93-.06-1.19a1.05,1.05,0,0,0-1.42.75c-.4,1.17-.76,2.36-1.19,3.52-.21.56-.19,1.53-.87,1.54s-.71-1-.92-1.53c-.41-1.12-.77-2.27-1.14-3.4a1.14,1.14,0,0,0-1.1-.93c-.89,0-1.08.14-.78,1,.8,2.3,1.66,4.58,2.46,6.88.65,1.91.31,2.53-1.67,2.9-1.1.2-.46,1.11-.8,1.61h-73a6.57,6.57,0,0,1-.06-4.29c.48-.35.91,0,1.34.12a3.21,3.21,0,0,0,4.48-2.46,7.15,7.15,0,0,0,0-3.44,3.15,3.15,0,0,0-5-2.05c-.79.48-1.2.35-1.64-.32-1.17-.25-1.46-.07-1.46,1.09,0,3.26,0,6.51,0,9.76A2.18,2.18,0,0,1,164.21,187.5Z"/><path d="M239.81,187.5c-.55-1.4-.32-1.82,1.05-1.88,1.22-.05,1.75-.85,1.32-2.05-.94-2.65-1.92-5.3-2.88-8-.1-.25-.29-.49-.17-.79,0,0,.07,0,.11,0,2.29-.17,2.29-.17,3,2,.47,1.39.94,2.77,1.48,4.38.6-1.83,1.18-3.4,1.6-5,.29-1.1.81-1.63,2-1.41a6.38,6.38,0,0,0,1,.06c-1.42,3.7-2.82,7.32-4.23,10.94a3.65,3.65,0,0,1-1.84,1.77Z"/><path d="M532.61,187.5c0-.4,0-.8,0-1.19,0-.57.16-.73.75-.72,1.89,0,2.31-.63,1.65-2.45-.89-2.47-1.78-4.93-2.68-7.4-.1-.3-.3-.57-.19-.91,2.39-.27,2.39-.27,3.13,2,.42,1.28.85,2.56,1.28,3.84,0,.06.12.09.27.2.53-1.59,1.14-3.13,1.52-4.72.29-1.16.86-1.57,2-1.38.27,0,.55,0,.94,0-1.4,3.66-2.77,7.26-4.16,10.86a4.16,4.16,0,0,1-1.86,1.85Z"/><path class="cls-2" d="M167.13,183.16c-.54,1.42,0,2.9-.28,4.34h-2.64q0-6-.05-12c0-.64.2-1,.88-.91.52.07,1.11-.27,1.56.26-1.83.21-1.86,1.46-1.81,2.91.09,2.42,0,4.85,0,7.28,0,.32,0,.64,0,1s.15.89.75.86.61-.43.65-.84a23.56,23.56,0,0,1,.09-2.38C166.44,182.92,166.53,182.89,167.13,183.16Z"/><path d="M258.92,104c2.38-6.25,6.48-11.12,11-15.65l.69-.66c2.42-2.2,2.81-2.34,5.42-.46,9.77,7,15.95,16.37,18,28.31a37.29,37.29,0,0,1,.43,6.33q0,17.94,0,35.88c0,1.1-.32,1.29-1.33,1.28-4.07-.06-8.16-.07-12.23,0-1.12,0-1.47-.2-1.46-1.4q.08-18.24,0-36.48a28.06,28.06,0,0,0-4.41-15.43c-1.71-2.65-2.29-2.68-4.08-.06a27.48,27.48,0,0,0-5,15.6c-.06,12.2,0,24.4,0,36.6,0,.94-.24,1.18-1.18,1.16-3.95-.05-7.92-.06-11.87,0-1,0-1.16-.31-1.16-1.21,0-12,0-23.92,0-35.87a28.27,28.27,0,0,0-4.83-16c-1.95-3-2.55-2.94-4.41,0a27.62,27.62,0,0,0-4.23,14.77q-.07,18.54,0,37.07c0,1-.21,1.25-1.22,1.24-4.24-.07-8.48,0-12.72,0-.77,0-1.11-.1-1.11-1,0-12.56-.08-25.12.05-37.67.11-9.7,3.89-18.07,10-25.44a37.1,37.1,0,0,1,8.87-8c2.22-1.37,2.58-1.37,4.47.37,4.79,4.42,9,9.29,11.64,15.35C258.57,103,258.71,103.42,258.92,104Z"/><path class="cls-3" d="M36.71,59.78a28.42,28.42,0,0,1-6.2-7.22c-.24-.42-.65-.4-1-.46C22.16,51,14.91,50.88,7.81,53.59c-.22-.51.11-.86.3-1.21a9.73,9.73,0,0,1,4.19-3.82c.31-.17.78-.22.87-.58.62-2.48,2.68-3,4.73-3.44a4.75,4.75,0,0,0,2.87-1.37C21.89,42,23.6,42,25.16,42c1.8,0,1.78,0,1.7-1.83a25.76,25.76,0,0,1,2.91-13.42,1.2,1.2,0,0,0-.28-1.73,29.52,29.52,0,0,0-11.9-6.94l-.91-.28a.88.88,0,0,1-.23-.14A6.1,6.1,0,0,1,20.38,15a1.89,1.89,0,0,0,1.38-1,3.39,3.39,0,0,1,3-1.76c.56,0,1-.16,1.09-.83.53-2.6,2.64-3,4.46-2.68.62.1.88.11,1.07-.59A2.7,2.7,0,0,1,34,6.29a1.41,1.41,0,0,0,1.29-.87,6.67,6.67,0,0,1,2.54-2.65c.72-.46.92-.3.91.54A60.15,60.15,0,0,0,39.41,13c.11.71.32,1.4.44,2.11s.39.7,1,.39a26.58,26.58,0,0,1,13.59-3.2,2,2,0,0,0,2-1.63c.49-2.29,1.11-4.4,3.53-5.48.51-.22.78-1,1.16-1.49A8.22,8.22,0,0,1,64.37.74c.28-.13.6-.38.87-.13s0,.53,0,.79a36.91,36.91,0,0,0-.85,12.26A1.53,1.53,0,0,0,65.28,15C75.47,20.49,80.6,29,80.14,40.6c-.29,7.37-3.51,13.51-9,18.46-.21.18-.48.29-.58.72h1.27c11.16,0,22.32,0,33.48,0,1,0,1.35.18,1.35,1.29q-.06,31,0,62c0,12.95-4.44,24.41-12,34.72a69.21,69.21,0,0,1-31.71,24.5,48.06,48.06,0,0,1-8.42,2.28,11.52,11.52,0,0,1-4.84-.59,61.81,61.81,0,0,1-25.61-13.54A68.63,68.63,0,0,1,3.6,141.66,54.16,54.16,0,0,1,.29,122.88q0-30.84,0-61.67c0-1.14.23-1.46,1.41-1.46,11.16.06,22.32,0,33.48,0Z"/><path d="M131.45,139.38c.19-4.64-.33-10.32.13-16,.77-9.53,3.1-18.56,8.92-26.38a31.62,31.62,0,0,1,14.24-10.72,2.62,2.62,0,0,1,2.16,0c9.71,4.17,15.85,11.55,19.29,21.37a59.3,59.3,0,0,1,3.23,18.79c.15,10.56.08,21.11.13,31.66,0,.77-.24.93-1,.93-4.36,0-8.72,0-13.08,0-.84,0-1-.3-1-1,0-4.12,0-8.24,0-12.35,0-.9-.23-1.14-1.13-1.13q-8,.06-16.07,0c-.79,0-1,.21-1,1,0,4.12,0,8.24,0,12.35,0,1-.29,1.18-1.21,1.17-4.15,0-8.31-.05-12.47,0-1,0-1.35-.18-1.34-1.29C131.49,152,131.45,146.2,131.45,139.38Z"/><path d="M405.53,139.31c.19-4.65-.34-10.33.13-16,.8-9.57,3.14-18.63,9-26.45a31.82,31.82,0,0,1,14.2-10.61,2.53,2.53,0,0,1,2.05,0c10.28,4.42,16.49,12.36,19.8,22.81a65.39,65.39,0,0,1,2.84,19.24c.09,9.79,0,19.59.05,29.38,0,1-.15,1.38-1.28,1.35-4.19-.07-8.39-.05-12.59,0-.88,0-1.15-.19-1.14-1.11.05-4.08,0-8.16,0-12.24,0-.82-.11-1.18-1.08-1.17-5.36.05-10.72,0-16.07,0-.87,0-1,.26-1,1.07,0,4.08,0,8.16,0,12.24,0,.89-.16,1.23-1.15,1.22-4.24-.06-8.48-.05-12.71,0-.89,0-1.15-.2-1.14-1.12C405.55,152.09,405.53,146.21,405.53,139.31Z"/><path d="M300.17,139.49c.13-4.55-.26-10.15.14-15.74.63-9,2.74-17.49,7.76-25.09a32,32,0,0,1,15.56-12.42,2.35,2.35,0,0,1,1.94.05c10.33,4.42,16.56,12.4,19.86,22.91a68.32,68.32,0,0,1,2.85,20.08c.06,9.56,0,19.12,0,28.68,0,.88-.18,1.14-1.1,1.13-4.24-.06-8.48-.05-12.72,0-.86,0-1.16-.16-1.14-1.1.06-4.12,0-8.24,0-12.36,0-.84-.22-1.06-1.06-1.06q-8,.06-16.08,0c-.87,0-1.15.17-1.14,1.1.06,4.12,0,8.24,0,12.36,0,.85-.23,1.07-1.06,1.06-4.28,0-8.56-.05-12.84,0-.95,0-1.1-.31-1.1-1.16C300.19,152.13,300.17,146.33,300.17,139.49Z"/><path d="M556.85,140.7c0,5.76,0,11.52,0,17.28,0,.92-.25,1.11-1.13,1.1q-6.4-.06-12.83,0c-.77,0-1-.19-1-1,.05-4.16,0-8.32,0-12.48,0-.86-.25-1.05-1.07-1.05q-8.1.06-16.2,0c-.82,0-1,.26-1,1,0,4.12,0,8.24,0,12.36,0,.83-.1,1.17-1.07,1.16-4.28-.06-8.56-.05-12.84,0-.85,0-1-.24-1-1.07,0-8.87.08-17.75,0-26.63a77.27,77.27,0,0,1,.54-12.07c1.34-9.29,4.25-17.92,10.76-25a31.66,31.66,0,0,1,12.26-8.13,2.19,2.19,0,0,1,1.81.12c9.46,4,15.58,11.14,19.08,20.65a65.47,65.47,0,0,1,3.6,21.75C556.91,132.7,556.85,136.7,556.85,140.7Z"/><path d="M489.61,100.86c0-4.2,0-8.4,0-12.6,0-.82.09-1.16,1.06-1.15,4.4.07,8.8,0,13.2,0,.72,0,.94.15.93.91,0,7.76.12,15.52-.06,23.27-.14,5.4-1.83,10.51-3.83,15.49-1.92,4.77-4.35,9.24-8.25,12.74a13.32,13.32,0,0,1-4,2.57,1.21,1.21,0,0,0-.92,1.37c0,4.92,0,9.83,0,14.75,0,.78-.1,1.12-1,1.1q-6.48-.06-13,0c-.78,0-1-.21-1-1,0-5.16,0-10.31,0-15.47,0-.46.12-.91-.46-1.23-4.3-2.39-7-6.21-9.22-10.44a56.4,56.4,0,0,1-5.8-18.26,11.48,11.48,0,0,1-.07-1.44c0-7.75,0-15.51,0-23.27,0-.92.24-1.1,1.12-1.09q6.48.07,12.95,0c.93,0,1.1.25,1.09,1.12,0,7.43-.07,14.87.05,22.31.09,5.3.89,10.49,3.56,15.22a12.56,12.56,0,0,0,3.5,4,2.32,2.32,0,0,0,3.06-.06,13.59,13.59,0,0,0,4.2-5.44c2.12-4.54,2.72-9.4,2.84-14.33C489.67,106.94,489.61,103.9,489.61,100.86Z"/><path d="M193.77,130.62c0-9,0-18,0-27,0-1-.29-1.16-1.19-1.15-4,0-8.08,0-12.12,0-.84,0-1.06-.23-1.06-1.06q.06-6.66,0-13.32c0-.74.13-1,1-1q20.86,0,41.74,0c.74,0,.93.19.92.93q0,6.78,0,13.55c0,.77-.23.92-.95.92-4.08,0-8.16,0-12.24,0-.93,0-1.09.26-1.09,1.13,0,18,0,36.06.05,54.09,0,1-.23,1.33-1.3,1.31-4.15-.07-8.31-.06-12.47,0-1,0-1.33-.19-1.33-1.29C193.8,148.69,193.77,139.65,193.77,130.62Z"/><path d="M400.13,110.22c0,6.6-.07,13.2,0,19.8.15,10.27-5.42,23-20.75,27.48-4.91,1.42-9.88,1.23-14.86,1.25-.48,0-.62-.18-.61-.64.06-4.4.13-8.79.15-13.19,0-1,.62-.58,1-.51a25.63,25.63,0,0,0,10.82-.13c6.27-1.64,9.79-6.24,9.8-12.78,0-10.39,0-20.79,0-31.19,0-4,0-8.08,0-12.12,0-.79.13-1.08,1-1.07,4.12,0,8.24.06,12.36,0,1,0,1.06.33,1.06,1.15C400.12,95.58,400.13,102.9,400.13,110.22Z"/><path d="M434.93,63.92c0,3,0,6,0,9,0,.89-.2,1.24-1.11,1.09a4.26,4.26,0,0,0-1.07,0c-.51,0-.7-.13-.7-.67q0-6.42,0-12.84c0-.54.19-.72.69-.66h.12c2.76-.11,2.75-.11,4,2.37s2.6,5.09,3.93,7.71c.33-.31.22-.64.23-.92,0-2.68,0-5.36,0-8,0-.84.12-1.2,1.09-1.15,1.69.09,1.69,0,1.69,1.7,0,3.84,0,7.68,0,11.52,0,.76-.18.92-1,1a3.13,3.13,0,0,1-3.77-2.24c-1.11-2.71-2.63-5.26-4-7.88Z"/><path d="M490.33,64c0,3,0,6,0,9,0,.85-.22,1.08-1.06,1-1.77,0-1.77,0-1.77-1.75,0-3.8,0-7.6,0-11.4,0-.85.26-1,1.05-1.07,1.93-.3,2.93.46,3.69,2.2a69.93,69.93,0,0,0,4.16,7.81c0-2.81,0-5.62,0-8.43,0-.5-.25-1.3.18-1.44a6.48,6.48,0,0,1,2.37-.05c.38,0,.24.44.24.69,0,4.24,0,8.48,0,12.72,0,.49-.1.68-.65.72-2.7.19-2.7.21-4-2.2-1.36-2.61-2.7-5.23-4.05-7.84Z"/><path d="M158.65,69.74c0-2.94,0-5.88,0-8.82,0-.88.17-1.17,1.1-1.12,1.64.08,1.64,0,1.64,1.62,0,3.88,0,7.76,0,11.63,0,.7-.14.88-.89,1a3.14,3.14,0,0,1-3.78-2.25c-1.05-2.53-2.46-4.91-3.72-7.35-.1-.2-.23-.38-.51-.83,0,3.34,0,6.36,0,9.38,0,.86-.23,1.06-1.06,1-1.69-.06-1.69,0-1.69-1.7,0-3.84,0-7.67,0-11.51,0-.78.22-.91,1-1,1.92-.25,3,.4,3.76,2.26,1.1,2.67,2.59,5.19,3.91,7.77Z"/><path d="M450.33,66.92c0-2.07,0-4.15,0-6.23,0-.34-.22-.88.46-.86,2.27.06,4.55-.24,6.79.36,3.53,1,5.16,3.52,4.82,7.58-.31,3.7-2.41,5.72-6.54,6.13-1.62.16-3.27,0-4.91.09-.7,0-.63-.39-.63-.84C450.34,71.07,450.33,69,450.33,66.92Z"/><path d="M467.78,67.2c0-6.8,5-8.55,9.45-7.27,3,.87,4.18,3.29,4.4,6.2.21,2.66-.32,5.15-2.65,6.8a7.35,7.35,0,0,1-7.52.63C468.59,72.31,467.88,69.71,467.78,67.2Z"/><path d="M368.25,67c.05,6.55-5.67,8.25-10,6.67-.07,0-.13-.08-.21-.11-2.8-1.28-4.2-4.83-3.45-8.78a6.29,6.29,0,0,1,6-5.21C365.51,59.34,368.28,62,368.25,67Z"/><path d="M219.23,73.93c-3.17.18-3.17.18-4.24-2.6-.23-.6-.45-1.2-.7-1.78a3.38,3.38,0,0,0-.54-.92,1.87,1.87,0,0,0-2-.47c-.56.16-.24.83-.25,1.26,0,1.23,0,2.47,0,3.71,0,.66-.15.87-.84.87-2.06,0-2.06,0-2.06-2,0-3.68,0-7.35,0-11,0-1,.29-1.19,1.19-1.14a43.93,43.93,0,0,1,5.49.24c2,.36,2.91,1.3,3.12,3.2.18,1.68-.67,2.93-2.53,3.65,1.08.9,1.35,2.22,1.87,3.41S218.7,72.64,219.23,73.93Z"/><path class="cls-4" d="M143.29,65.28a37.27,37.27,0,0,1-.17,5.18,4.14,4.14,0,0,1-2.9,3.34,8.56,8.56,0,0,1-5.41,0,4.14,4.14,0,0,1-3-3.9c-.26-3.14-.05-6.3-.11-9.45,0-.44.1-.61.59-.66,2.3-.21,2.28-.23,2.3,2.07s-.11,4.79.1,7.18c.19,2.08,1.53,3.14,3.46,2.8a2.49,2.49,0,0,0,2-2.08,8.56,8.56,0,0,0,.22-1.89c0-2,0-4,0-6,0-2.18,0-2.14,2.14-2.09.69,0,.77.29.75.86C143.27,62.09,143.29,63.53,143.29,65.28Z"/><path d="M276,73.92s0,0-.08,0c-2.85.19-2.88.2-3.85-2.42a1.06,1.06,0,0,0-1.23-.8c-1.28,0-2.56.06-3.83,0-.74,0-1,.27-1.28.92-.91,2.44-.93,2.43-3.86,2.3L264,68.52c1-2.6,2-5.18,3-7.8a1.22,1.22,0,0,1,1.39-.92c2.27,0,2.27,0,3.08,2.09l4.42,11.34C275.93,73.45,276.14,73.64,276,73.92Z"/><path d="M335.06,73.94c-.22,0-.34,0-.46,0C332,74,332,74,331,71.53c-.21-.56-.47-.83-1.11-.8-1.32,0-2.64,0-4,0-.64,0-1.09.11-1.19.83l-.05.11c-1,2.47-1,2.47-3.85,2.24.46-1.21.89-2.39,1.35-3.57,1.26-3.22,2.55-6.44,3.77-9.68a1.13,1.13,0,0,1,1.28-.86c2.28,0,2.29,0,3.14,2.16q2.28,5.77,4.54,11.55C335,73.62,335,73.73,335.06,73.94Z"/><path d="M542.93,74c1.58-4.09,3.13-8.08,4.68-12.08.84-2.16,1.4-2.45,3.68-2.09.41.06.5.29.62.59,1.68,4.29,3.36,8.59,5.07,12.87.26.67,0,.7-.55.72-2.36.08-2.39.11-3.19-2.19-.28-.8-.65-1.2-1.53-1.07a4.57,4.57,0,0,1-1.43,0c-2.19-.35-3.8.14-4.14,2.66-.06.48-.37.62-.84.6C544.55,74,543.79,74,542.93,74Z"/><path d="M408.49,59.87c-1.83,2.1-3.51,4.07-5.24,6-.43.48-.45.76,0,1.27,1.83,2.2,3.61,4.44,5.57,6.85-1.3,0-2.36,0-3.42,0-.56,0-.71-.45-1-.78-1.42-1.81-2.82-3.63-4.47-5.74,0,2.11,0,3.85,0,5.58,0,.7-.11,1-.89,1-2,0-2,0-2-2,0-3.68,0-7.36,0-11,0-1,.25-1.21,1.18-1.17,1.72.07,1.72,0,1.72,1.79,0,1.23,0,2.47,0,3.71a1,1,0,0,0,.08.23,12.81,12.81,0,0,0,1.73-1.9c.45-.51.87-1,1.31-1.56C405.09,59.7,405.09,59.7,408.49,59.87Z"/><path d="M308.17,65.78c1.53-1.81,2.89-3.33,4.11-4.94a2.33,2.33,0,0,1,2.33-1c.63.06,1.27,0,2.15,0-1.69,1.94-3.17,3.8-4.83,5.48-.92.94-.82,1.51,0,2.42,1.72,2,3.32,4,5.1,6.26-1.29,0-2.35,0-3.41,0-.52,0-.67-.39-.9-.68l-4.53-5.83c0,2,0,3.79,0,5.52,0,.76-.17,1-1,1-1.92,0-1.92,0-1.92-1.94,0-3.72,0-7.44,0-11.16,0-.9.21-1.23,1.11-1.09a3.91,3.91,0,0,0,1.08,0c.59-.06.74.2.73.76C308.15,62.2,308.17,63.83,308.17,65.78Z"/><path class="cls-4" d="M194.09,66.89c0-2,0-4.08,0-6.11,0-.67.06-1,.88-1,2.23.06,4.47.07,6.71,0,.88,0,.89.42.82,1s.36,1.35-.8,1.3c-1.31-.07-2.64,0-3.95,0-.56,0-.75.17-.78.75-.16,2.7-.18,2.7,2.52,2.7a9.68,9.68,0,0,0,1.32,0c1-.14,1.28.22,1.25,1.23,0,.85-.27,1.09-1.09,1-1.07-.07-2.16,0-3.23,0-.58,0-.73.19-.77.75-.19,3.18-.21,3.18,2.89,3.18a9.88,9.88,0,0,0,1.44,0c1-.16,1.37.21,1.33,1.29,0,.87-.29,1-1.1,1-2.15,0-4.31-.06-6.47,0-.82,0-1-.24-1-1C194.12,71,194.09,68.92,194.09,66.89Z"/><path d="M182.39,70.82,184.62,64c.33-1,.69-2,1-3.07.21-.8.55-1.24,1.46-1.09a13,13,0,0,0,1.78,0c-.63,1.93-1.23,3.73-1.83,5.54-.88,2.6-1.77,5.2-2.62,7.81-.18.55-.38.83-1.05.83-2.76,0-2.76.06-3.65-2.55-1.31-3.83-2.62-7.66-3.95-11.53a2,2,0,0,1,.38-.09c2.65-.06,2.65-.06,3.49,2.49C180.49,65.05,181.38,67.77,182.39,70.82Z"/><path d="M505.77,66.84c0-2.07,0-4.15,0-6.23,0-.64.18-.81.81-.8,2.27,0,4.55.06,6.83,0,1,0,.75.59.72,1.08s.4,1.28-.71,1.24c-1.32-.06-2.64,0-4,0-.63,0-.79.21-.81.83-.08,2.62-.11,2.62,2.47,2.62a8.3,8.3,0,0,0,1.32,0c1.07-.18,1.36.23,1.3,1.28-.05.76-.2,1-1,1-1-.07-2.08,0-3.11,0-.82-.05-1,.27-1,1,0,2.92,0,2.92,2.91,2.92a9.73,9.73,0,0,0,1.43,0c1-.16,1.25.3,1.23,1.26S514,74,513.16,74c-2.15-.06-4.31,0-6.47,0-.72,0-1-.17-.94-.92C505.81,71,505.77,68.92,505.77,66.84Z"/><path d="M520.67,71.13a6.55,6.55,0,0,0,3.57.74c1-.14,1.83-.52,2-1.6s-.63-1.46-1.44-1.81A18.22,18.22,0,0,1,521.64,67a4.11,4.11,0,0,1-.2-6.33c2-1.48,4.31-1.34,6.53-.67,1,.29.23,1.33.23,2s-.6.22-.87.16a6.76,6.76,0,0,0-2.72-.22,1.74,1.74,0,0,0-1.53,1.61,1.55,1.55,0,0,0,1.14,1.63c1,.42,2,.82,2.95,1.3a3.66,3.66,0,0,1,2.06,4,3.7,3.7,0,0,1-2.75,3.39,10.27,10.27,0,0,1-5.66,0c-.41-.1-.54-.27-.48-.64A5.7,5.7,0,0,1,520.67,71.13Z"/><path d="M289,62.43a6.89,6.89,0,0,0-3.33-.52A1.74,1.74,0,0,0,284,63.39c-.16,1,.39,1.48,1.2,1.83,1,.44,2.06.85,3.05,1.37a3.52,3.52,0,0,1,1.89,3.59,3.71,3.71,0,0,1-2.54,3.57,10,10,0,0,1-5.89,0c-.51-.12-.52-.37-.47-.76.08-.59.12-1.19.18-1.87a20,20,0,0,0,2.7.73,4.08,4.08,0,0,0,1.87-.26,1.57,1.57,0,0,0,1.11-1.42,1.55,1.55,0,0,0-1-1.52c-.83-.4-1.69-.72-2.51-1.11-2.33-1.12-3-2.42-2.56-4.78.36-1.84,1.89-3,4.11-3.2a7.65,7.65,0,0,1,1.79,0C289.75,60.05,289.43,59.7,289,62.43Z"/><path d="M224.76,71.1a6.7,6.7,0,0,0,3.82.75c.88-.17,1.65-.53,1.8-1.49s-.53-1.51-1.36-1.87-1.75-.76-2.61-1.16a3.58,3.58,0,0,1-2.17-3.77A3.75,3.75,0,0,1,226.89,60a9,9,0,0,1,5.19,0c.45.1.56.35.49.77s-.17,1.1-.26,1.73a8.11,8.11,0,0,0-2.86-.55c-1,0-1.92.27-2.14,1.48s.53,1.64,1.45,2a17.44,17.44,0,0,1,2.83,1.26,3.72,3.72,0,0,1,1.79,4,3.64,3.64,0,0,1-2.63,3.22,10.33,10.33,0,0,1-5.78,0c-.51-.12-.52-.38-.47-.76C224.58,72.4,224.66,71.77,224.76,71.1Z"/><path class="cls-4" d="M285.61,176.61a35.22,35.22,0,0,0,2.89-3.51c1.06-1.72,2.53-1.75,4.35-1.45-1.45,1.66-2.79,3.28-4.23,4.8-.61.66-.52,1.05,0,1.67,1.49,1.75,2.92,3.57,4.52,5.54-1.07,0-2,0-2.86,0-.51,0-.67-.35-.9-.65l-3.77-4.84c0,1.72,0,3.14,0,4.55,0,.71-.13,1-.91,1-1.67,0-1.67,0-1.67-1.61,0-3.11.05-6.23,0-9.34,0-1,.32-1.26,1.28-1.22s1.44,0,1.33,1.17S285.61,175.11,285.61,176.61Z"/><path class="cls-4" d="M342.89,68.09c0-1.68,0-3.36,0-5,0-.71-.14-1.05-.91-1-.6.06-1.21-.05-1.8,0-1,.12-1.41-.16-1.34-1.28,0-.82.21-1.06,1.06-1,2.95.05,5.91.06,8.86,0,.93,0,1.12.24,1.12,1.12s-.2,1.37-1.18,1.19a1,1,0,0,0-.24,0c-2.69,0-2.69,0-2.69,2.76s0,5.43,0,8.14c0,.78-.18,1-1,1-1.92,0-1.92,0-1.92-2Z"/><path class="cls-4" d="M167.13,183.16c-.57-.52-.44.07-.45.31,0,1,0,2.07,0,3.1s-.68.68-1.15.67-1.17.37-1.16-.65c0-3.71,0-7.41,0-11.12,0-.62.26-.74.78-.7s1,0,1.44,0l.06.92a3.56,3.56,0,0,1,4.29-.91c1.57.62,2,2,2.14,3.58a10.71,10.71,0,0,1,0,1.79C172.77,183.47,170,184.87,167.13,183.16Z"/><path class="cls-4" d="M251.13,68c0-1.72,0-3.43,0-5.15,0-.55-.13-.8-.72-.76s-1.36,0-2,0a1.36,1.36,0,0,1-1.23-2c.17-.35.47-.23.72-.23,3.16,0,6.31,0,9.46,0,1,0,.73.62.71,1.1s.38,1.29-.72,1.21c-.8,0-1.6,0-2.4,0s-.93.25-.92,1c0,3.27,0,6.55,0,9.82,0,.84-.11,1.3-1.07,1.12a2.63,2.63,0,0,0-.84,0c-.75.1-1-.13-1-1C251.18,71.36,251.13,69.68,251.13,68Z"/><path class="cls-5" d="M374.33,66.81c0-2,0-4,0-6,0-.73.1-1,.95-1,2,0,2,0,2,1.94,0,3,0,6,0,9,0,.79.24,1,1,1,1.24,0,2.48,0,3.71,0s.63.85.72,1.35.12,1-.73,1c-2.27-.06-4.55,0-6.82,0-.68,0-.78-.27-.77-.85C374.35,71,374.33,68.92,374.33,66.81Z"/><path class="cls-4" d="M499.25,179.13c0-1.16,0-2.32,0-3.48,0-.3-.27-.87.28-.87s1.56-.45,1.92.3.37.36.69.15c2.72-1.74,5.18-.54,5.35,2.67.09,1.68,0,3.36,0,5,0,1.2-.85.63-1.35.7s-1.11.23-1.08-.74c.05-1.63,0-3.27-.05-4.9,0-.84-.29-1.51-1.25-1.61a1.68,1.68,0,0,0-1.9,1.29,14.56,14.56,0,0,0-.22,4.88c0,1-.37,1.15-1.22,1.12s-1.36,0-1.24-1.08A33.47,33.47,0,0,0,499.25,179.13Z"/><path class="cls-4" d="M155.54,181.25c.17,2.19.17,2.23-1.8,2.54s-3.66.18-4.92-1.42a5.39,5.39,0,0,1-.54-5.47c.64-1.76,2.24-2.55,4.38-2.36a3.58,3.58,0,0,1,3.39,3c.53,2.37.53,2.37-1.82,2.37-1.12,0-2.24,0-3.36,0-.82,0-.77.4-.52.89a2.26,2.26,0,0,0,2,1.28A6,6,0,0,0,155.54,181.25Z"/><path class="cls-4" d="M188.37,181.23c.1,2.18,0,2.31-2,2.58-1.84.25-3.67.15-4.88-1.51a5.44,5.44,0,0,1-.43-5.58c.69-1.66,2.38-2.42,4.5-2.17a3.67,3.67,0,0,1,3.25,3.19c.49,2.14.44,2.2-1.71,2.2-1.15,0-2.31,0-3.47,0-.86,0-.84.33-.53.93a2.24,2.24,0,0,0,2,1.24A6.22,6.22,0,0,0,188.37,181.23Z"/><path class="cls-4" d="M554.23,182.54a3.74,3.74,0,0,1-3.54,1.3,2.77,2.77,0,0,1-.37-5.4,7.23,7.23,0,0,1,3-.29c.92.07.89-.39.64-1a1.65,1.65,0,0,0-1.68-.91,4.85,4.85,0,0,0-2.7.85c-.57-1.7-.37-2.07,1.31-2.44a7.65,7.65,0,0,1,2.74-.06,2.62,2.62,0,0,1,2.57,2.66c.16,1.95.13,3.91.23,5.86,0,.54-.24.62-.63.54C555.14,183.53,554.08,184.17,554.23,182.54Z"/><path class="cls-4" d="M484,177.14c-.41-2-.28-2.21,1.6-2.54a7.83,7.83,0,0,1,2.51,0,2.63,2.63,0,0,1,2.57,2.66c.16,1.95.14,3.91.22,5.86,0,.4-.09.66-.51.54s-1.29.49-1.62-.41a3.6,3.6,0,0,1-.09-.66,3.65,3.65,0,0,1-3.47,1.26,2.77,2.77,0,0,1-.39-5.4,7.82,7.82,0,0,1,3.08-.29c.77,0,.77-.33.59-.87a1.65,1.65,0,0,0-1.72-1A4.78,4.78,0,0,0,484,177.14Z"/><path class="cls-4" d="M518.51,175.67a4.22,4.22,0,0,1,1.66-1c2.26-.63,3.94.43,4.13,2.79.16,1.87.06,3.75.13,5.62,0,.73-.43.61-.86.62-1.56.05-1.55.05-1.56-1.56,0-1.36,0-2.72-.07-4.07,0-.86-.31-1.6-1.36-1.65a1.74,1.74,0,0,0-1.87,1.49,16.47,16.47,0,0,0-.19,4.65c0,.93-.23,1.2-1.17,1.18s-1.34-.1-1.29-1.2c.1-2.23,0-4.47.05-6.71,0-.39-.32-1.13.52-1C517.3,174.85,518.39,174.13,518.51,175.67Z"/><path class="cls-4" d="M458.42,182.68a4.11,4.11,0,0,1-2.62,1.21,2.72,2.72,0,0,1-3.14-2.43,41.53,41.53,0,0,1-.16-6.21c0-.77.59-.43,1-.51,1.22-.25,1.53.27,1.47,1.46a20,20,0,0,0,.06,4.3c.12.73.29,1.43,1.23,1.51a1.73,1.73,0,0,0,1.91-1.3,11.77,11.77,0,0,0,.28-3.79,7.82,7.82,0,0,1,0-.84c.07-.44-.27-1.11.24-1.28a4.45,4.45,0,0,1,1.89,0c.45.07.25.53.26.81,0,2.35,0,4.71,0,7.06,0,.41.27,1.12-.56,1C459.58,183.53,458.45,184.31,458.42,182.68Z"/><path class="cls-4" d="M374,182.57a3.65,3.65,0,0,1-3.51,1.26,2.76,2.76,0,0,1-.28-5.42,5.73,5.73,0,0,1,1.89-.27c.59,0,1.18,0,1.78,0-.28-2.16-1.84-2.5-4.54-1-.49-1.87-.33-2.13,1.52-2.48a7.77,7.77,0,0,1,2.5,0c1.81.26,2.68,1.35,2.75,3.45,0,1.52.06,3,0,4.55,0,.36.48,1.1-.41,1.06C375,183.6,374,184.21,374,182.57Z"/><path class="cls-4" d="M261.07,178.09c-.26-2.11-1.77-2.44-4.55-1-.47-1.84-.31-2.1,1.46-2.45a7.69,7.69,0,0,1,2.62,0,2.77,2.77,0,0,1,2.63,2.92c.15,1.87.1,3.75.14,5.63,0,.32-.05.6-.43.51-.57-.13-1.42.46-1.66-.39s-.31-.47-.67-.16a3.37,3.37,0,0,1-2.91.74,2.74,2.74,0,0,1-2.4-2.59,2.78,2.78,0,0,1,2.09-2.85A18.11,18.11,0,0,1,261.07,178.09Z"/><path d="M224.52,177.22c-.07-2.29.11-2.5,2.21-2.67a11.88,11.88,0,0,1,1.79,0,2.86,2.86,0,0,1,2.89,2.9c.14,1.87-.06,3.75.2,5.61,0,.39-.08.69-.5.58s-1.29.48-1.64-.39a2.55,2.55,0,0,1-.08-.68,3.64,3.64,0,0,1-3.93,1.13,2.71,2.71,0,0,1-.24-5.14,6.81,6.81,0,0,1,3.28-.42c.93.06.88-.38.61-1a1.73,1.73,0,0,0-1.8-.92A5.16,5.16,0,0,0,224.52,177.22Z"/><path class="cls-4" d="M322.87,182.57a3.68,3.68,0,0,1-3.41,1.28,2.75,2.75,0,0,1-2.48-2.51,2.83,2.83,0,0,1,2.14-3,8.73,8.73,0,0,1,3-.24c.74,0,.77-.24.57-.83-.31-.89-1-1-1.81-1.08a4.83,4.83,0,0,0-2.68.89c-.38-2-.21-2.24,1.65-2.53a9.75,9.75,0,0,1,1.79-.06c2.21.11,3.23,1.07,3.35,3.24.09,1.75.05,3.51.1,5.27,0,.46-.11.69-.59.61C323.83,183.55,322.8,184.14,322.87,182.57Z"/><path d="M306.65,182.67c-.38.28-.64.51-.94.69a3.09,3.09,0,0,1-5-2.59c-.06-1.76,0-3.52,0-5.28,0-1,.58-.8,1.08-.73s1.38-.48,1.35.72q0,2.28,0,4.56c0,.89.09,1.84,1.28,2s1.76-.63,2-1.66a18.18,18.18,0,0,0,.13-4.66c-.05-1.16.65-.9,1.29-1s1.17,0,1.13,1c-.08,2.27,0,4.56,0,6.84,0,.38.47,1.19-.52,1.11C307.7,183.59,306.63,184.19,306.65,182.67Z"/><path d="M430.51,182.73a9.52,9.52,0,0,1-1.67,1c-2.25.74-4.08-.4-4.21-2.77-.1-1.84,0-3.68-.07-5.52,0-1,.71-.66,1.15-.64s1.29-.45,1.27.66c0,1.52,0,3,0,4.56,0,.93.1,1.92,1.37,2a1.83,1.83,0,0,0,2-1.85,34.68,34.68,0,0,0,.07-4.56c-.06-1.23.78-.8,1.36-.85s1.13-.13,1.09.85c-.08,2.36,0,4.72,0,7.08,0,.39.29,1.11-.57,1C431.6,183.54,430.55,184.23,430.51,182.73Z"/><path class="cls-4" d="M134.93,178.56c0-1.36-.05-2.72,0-4.08.05-.83-.26-1-1-.95-.44.05-.88,0-1.32,0-.77.07-1.22,0-1.22-1s.58-1,1.27-1c2.44,0,4.87.05,7.31,0,.91,0,.9.41.92,1.08s-.14,1-.91,1c-2.63,0-2.63.06-2.63,2.66,0,2.16-.07,4.32,0,6.47.05,1.11-.55,1-1.23,1s-1.37.26-1.27-.91C135,181.36,134.93,180,134.93,178.56Z"/><path class="cls-6" d="M242.1,66.83c0,2.07,0,4.15,0,6.22,0,.71-.13,1-.9,1-2,0-2,0-2-2,0-3.71,0-7.42,0-11.13,0-.81.16-1.2,1-1.06a2.63,2.63,0,0,0,.84,0c.83-.12,1.09.18,1.06,1C242.05,62.84,242.1,64.83,242.1,66.83Z"/><path class="cls-5" d="M409.85,177.54c0-1.72,0-3.44,0-5.16-.05-1.12.69-.83,1.27-.83s1.28-.28,1.26.84c-.07,2.83,0,5.67,0,8.51,0,.67.17.89.86.85,1-.05,2,.05,3,0,.79-.06.93.27.91,1s0,1-.87,1c-1.87-.07-3.75,0-5.63,0-.58,0-.75-.17-.74-.74C409.87,181.13,409.85,179.33,409.85,177.54Z"/><path class="cls-4" d="M167.77,66.78c0-2,0-4,0-6,0-.76.17-1,1-1,1.92,0,1.92,0,1.92,2,0,3.71,0,7.43,0,11.14,0,.9-.21,1.24-1.12,1.1a3.84,3.84,0,0,0-1.07,0c-.59.07-.74-.17-.73-.74C167.79,71.1,167.77,68.94,167.77,66.78Z"/><path d="M387.65,66.9c0-2,0-4.07,0-6.11,0-.76.16-1,1-1,2,0,2,0,2,2,0,3.71,0,7.43,0,11.14,0,.83-.18,1.08-1,1-1.91,0-1.91,0-1.91-2Z"/><path d="M537.89,66.9c0,2,0,4.08,0,6.12,0,.79-.2,1-1,1C535,74,535,74,535,72.06c0-3.76,0-7.52,0-11.28,0-.79.21-1,1-1,1.91,0,1.91,0,1.91,2Z"/><path d="M425.81,67c0,2,0,4.07,0,6.11,0,.63-.09.9-.82.9-2.08,0-2.08,0-2.08-2,0-3.67,0-7.35,0-11,0-1,.3-1.17,1.19-1.14,1.71.07,1.71,0,1.71,1.79Z"/><path class="cls-4" d="M387.55,174.48c.62.06,1.09.15,1.57.15,1.27,0,.93.89.87,1.58,0,.53-.47.29-.74.23a5.59,5.59,0,0,0-1.77-.18c-.46.07-.87.25-1,.76s.3.72.67.88c.55.23,1.12.4,1.68.62a2.42,2.42,0,0,1,1.66,2.5,2.6,2.6,0,0,1-1.72,2.5,6.66,6.66,0,0,1-4.23.1c-1-.22-.38-1-.38-1.5,0-.71.51-.36.85-.25a4.14,4.14,0,0,0,2.12.16.88.88,0,0,0,.82-.75.89.89,0,0,0-.59-1.05c-.49-.18-1-.31-1.47-.49-1.43-.54-1.95-1.23-1.92-2.54a2.51,2.51,0,0,1,2.14-2.51A10.85,10.85,0,0,1,387.55,174.48Z"/><path class="cls-4" d="M474.87,176.64a8.38,8.38,0,0,0-2.46-.39c-.49.06-1,.22-1.06.8s.37.73.79.89.9.31,1.35.49a2.4,2.4,0,0,1,1.8,2.63,2.53,2.53,0,0,1-1.94,2.56,7.37,7.37,0,0,1-3.9,0c-.38-.08-.55-.23-.49-.65s.05-.87.08-1.42a5.69,5.69,0,0,0,2.66.51c.54-.06,1-.25,1.13-.87s-.38-.92-.88-1.12-1-.31-1.48-.48a2.25,2.25,0,0,1-1.66-2.35,2.46,2.46,0,0,1,1.63-2.42,5.91,5.91,0,0,1,4-.07C475.42,175.08,474.51,175.93,474.87,176.64Z"/><path class="cls-4" d="M361,182c-.33.63.73,1.65-.71,1.9-2,.34-3.49-.43-3.78-2a11,11,0,0,1-.09-1.91,21.35,21.35,0,0,1,0-2.4c.06-.78-.1-1.24-1-1.07-.62.12-.76-.23-.69-.75s-.25-1.09.6-1,1.19-.27,1.1-1.14c-.06-.54,1.84-1.63,2.25-1.29s.16.76.12,1.12c-.13,1,.16,1.52,1.27,1.3.83-.16.72.41.76.94s-.19.89-.8.78c-1-.18-1.36.18-1.23,1.2a19.26,19.26,0,0,1,0,2.28C358.82,182,359,182.09,361,182Z"/><path class="cls-4" d="M213.85,174.5a12.34,12.34,0,0,1,1.37.09c.32.07.81,0,.85.45a4,4,0,0,1-.15,1.42c-.1.32-.41.06-.62,0-1.12-.22-2.18-.19-2.83.94a3.38,3.38,0,0,0,.06,3.63c.68,1.1,1.76,1.09,2.88.84.3-.07.79-.45.8.18s.47,1.23-.25,1.59a4.73,4.73,0,0,1-6.1-2.44c-1.06-2.94.15-5.87,2.75-6.56A6.81,6.81,0,0,1,213.85,174.5Z"/><path class="cls-4" d="M443.85,177.18c0,1.87-.06,3.75,0,5.62.05,1-.47.93-1.08.85s-1.39.44-1.37-.82q.09-5.67,0-11.36c0-1.15.73-.78,1.28-.8s1.21-.29,1.17.77C443.8,173.35,443.85,175.27,443.85,177.18Z"/><path class="cls-6" d="M333.53,177.06c0-1.84.07-3.68,0-5.51-.06-1.22.74-.82,1.33-.89s1.05.05,1,.92q-.09,5.63,0,11.27c0,1-.58.82-1.13.81s-1.3.28-1.24-.85C333.59,180.9,333.53,179,333.53,177.06Z"/><path class="cls-4" d="M199.33,176.14c.74-1.11,1.61-2,2.73-1.54.86.34.17,1.47.34,2.25-2-.21-2.71.34-2.85,2.39a21.05,21.05,0,0,0,0,3.46c.11,1.13-.56.94-1.23,1s-1.23,0-1.19-1c.1-2.31.07-4.63,0-6.94,0-.81.25-1,1-1s1.34-.11,1.14.92A2.21,2.21,0,0,0,199.33,176.14Z"/><path class="cls-7" d="M347,179.34c0,1.2,0,2.4,0,3.6s-.85.63-1.35.7-1.12.25-1.09-.73c.06-2.47,0-4.95,0-7.43,0-1.19.84-.66,1.35-.72s1.14-.21,1.09.74C346.93,176.78,347,178.06,347,179.34Z"/><path class="cls-8" d="M345.74,173.13c-.92.19-1.21-.14-1.22-1.11s.34-1.14,1.22-1.16,1.27.2,1.29,1.22S346.57,173.27,345.74,173.13Z"/><path class="cls-9" d="M2,110.68l0-36.24c0-3.92,0-7.84,0-11.76,0-.74.14-1,1-1,11.28,0,22.56,0,33.84,0a.79.79,0,0,1,.77.24c-1.13,1.5-2.26,3-3.41,4.53L13,94.06c-.45.59-1,1.15-.64,2.15,1.7-1.59,3.41-3.12,5.23-4.51a54.47,54.47,0,0,1,7.52-4.9,4.09,4.09,0,0,0,1.74-1.73C31,77.76,35.1,70.48,39.15,63.15c.57-1,1-1.24,2-.53a7.39,7.39,0,0,0,1.19.65L28.71,84.9a43.72,43.72,0,0,1,6.15-2.32A4.67,4.67,0,0,0,38.64,79c1.53-4.65,3.39-9.19,5-13.8.34-.94.68-1.14,1.61-.8,1.72.64,1.74.59,1,2.3l-6.55,14.4c2-.34,3.82-.76,5.68-.94,1.25-.11,1.71-.54,1.87-1.82.5-3.92,1.19-7.81,1.75-11.72.12-.89.27-1.31,1.36-1.09,1.87.37,1.88.27,1.44,2.16-.87,3.81-1.72,7.62-2.58,11.43-.05.21-.24.44,0,.65a1.34,1.34,0,0,1,.39,1c0,2.55.07,5.11,0,7.66a1.39,1.39,0,0,1-.21.68.88.88,0,0,1-.38.28,6.26,6.26,0,0,1-1.78.11H26a2.47,2.47,0,0,0-1.51.22c-.49.44-.34,1-.34,1.57,0,5.94,0,11.87,0,17.81a2.61,2.61,0,0,1-.29,1.73,2.77,2.77,0,0,1-1.74.32H3.79A2.46,2.46,0,0,1,2,110.68Z"/><path class="cls-9" d="M57.91,79.72c-.46-3.11-1.4-6.11-2.08-9.17-.3-1.36-.64-2.72-1-4.07-.16-.61,0-.84.64-.9,2.14-.2,2.12-.22,2.45,1.86.61,3.9,1.26,7.8,1.89,11.7.07.42.13.77.67.82a60.76,60.76,0,0,1,7,1.22L61.6,69c-.54-1.12-1.05-2.24-1.61-3.34-.27-.52-.22-.7.39-.89,2.25-.71,2.23-.73,3.06,1.48q2.73,7.28,5.49,14.54c.17.45.32.88.87,1a55.79,55.79,0,0,1,8.14,3c.12-.54-.23-.85-.44-1.18-4.11-6.42-8.21-12.84-12.36-19.24-.52-.8-.62-1.17.4-1.6,1.65-.7,1.63-.78,2.51.8q5.86,10.58,11.71,21.16a4.75,4.75,0,0,0,1.94,2A55.45,55.45,0,0,1,94,95.7c.14.13.31.23.54.41a1.88,1.88,0,0,0-.31-2q-12.06-15.51-24.09-31c-.31-.4-.59-.82-.9-1.24a2.13,2.13,0,0,1,1.24-.15c11.08,0,22.16,0,33.24,0,1.13,0,1.38.33,1.38,1.41q-.06,23.82,0,47.64c-.43.48-1,.41-1.56.42H84.58a2.46,2.46,0,0,1-1.5-.3,2.78,2.78,0,0,1-.37-2c0-5.76,0-11.52,0-17.27a3.64,3.64,0,0,0-.2-1.76c-.44-.51-1-.36-1.58-.36l-21.22,0a3,3,0,0,1-1.86-.27,2.11,2.11,0,0,1-.33-1.36c0-2.21,0-4.42,0-6.64A2,2,0,0,1,57.91,79.72Z"/><path class="cls-9" d="M105,117.9c-.09,3.59.11,7.19-.28,10.78a51.78,51.78,0,0,1-4.52,16.39,68.81,68.81,0,0,1-31.79,33,46.1,46.1,0,0,1-10.5,3.92,1.57,1.57,0,0,1-.42-1.32q0-11.4,0-22.8a2.88,2.88,0,0,1,.07-.59c.14-.75.77-.95,1.36-1.2a39.82,39.82,0,0,0,11.26-6.72c6.5-5.67,10.85-12.59,12.12-21.25a12.93,12.93,0,0,1,.32-1.4,4.2,4.2,0,0,0,.08-1.58c0-1.9,0-3.8,0-5.69a2.21,2.21,0,0,1,.36-1.58,2.9,2.9,0,0,1,1.74-.3q9.2,0,18.4,0A2.42,2.42,0,0,1,105,117.9Z"/><path class="cls-9" d="M49.22,182a52.12,52.12,0,0,1-16.85-7.45c-13.13-8.65-22.71-20.14-27.86-35.14-2.4-7-2.82-14.19-2.54-21.48a2.2,2.2,0,0,1,1.59-.38h18.7a2.81,2.81,0,0,1,1.51.27c.72,1,.23,2.25.38,3.36a20.84,20.84,0,0,0,.13,3.62,6.71,6.71,0,0,1,.11,1.41,3.57,3.57,0,0,0,.11,1.3A33.93,33.93,0,0,0,32.41,145a36.07,36.07,0,0,0,15.92,11c.58.19,1.14.41,1.24,1.14.15,2.72.06,5.43.07,8.14,0,4.91,0,9.82,0,14.73C49.63,180.71,49.76,181.42,49.22,182Z"/><path class="cls-1" d="M72.44,41.11a5.32,5.32,0,0,1-1.93.13,4.66,4.66,0,0,0-4.69,3.35c-1.58,4.38-4.52,7.15-9.23,7.89-.86.14-1.06-.12-1-.9.1-1.65.16-3.3,1.52-4.51.26-.22.34-.39.09-.67s-.47-.12-.68.08A5,5,0,0,0,55,49.54c0,.32,0,.64-.05,1-.24,4.07-2.28,5.74-6.37,5.36a40.34,40.34,0,0,1-9.26-2.35,29.88,29.88,0,0,0-5.92-1.62,4.36,4.36,0,0,1,3.56-1c.79,0,1.6.22,1.88-.87a.48.48,0,0,1,.33-.31c1.29.05,2-1.17,3.18-1.41A4.79,4.79,0,0,0,44.7,47a4.12,4.12,0,0,1,3.92-1.35,11.72,11.72,0,0,0-2.7-1.83,48.53,48.53,0,0,0-6-2.9,1.75,1.75,0,0,1-1.18-1.46A35.43,35.43,0,0,0,37,34.09c-.58-1.55-1.15-3.19.08-4.76a.52.52,0,0,0,.06-.45c-.71-1.24.31-2.17.59-3.23,0-.16.29-.43.37-.4,1,.25,2.14-.38,3,.63.21.26.32.67.82.53,1.07-.3,1.58.32,2.07,1.16,3,5.15,7,9.08,12.77,11,.19.06.39.09.57.16a3.09,3.09,0,0,0,4-.92,5.21,5.21,0,0,1,5.41-1.76,3.15,3.15,0,0,1,2.43,2.26,1.72,1.72,0,0,0,1.32,1.32A2.68,2.68,0,0,1,72.44,41.11Z"/><path class="cls-1" d="M32.48,52.85c1.42.27,2.67.52,3.92.74a1.78,1.78,0,0,1,1,.61c6.5,6.4,14.23,8.55,22.89,5.73C68.78,57.16,74,51,75.3,42.16c1.28-8.41-1.68-15.41-8.34-20.74a3.47,3.47,0,0,1-1.58-2.71c0-.67-.15-1.34-.23-2,7,3.22,14.11,12,13.5,23.37A25.18,25.18,0,0,1,32.48,52.85Z"/><path class="cls-1" d="M49.22,182q0-12.58,0-25.17c.4-.36.84-.14,1.23,0a9,9,0,0,0,5.85.05c.5-.16,1-.45,1.58,0q0,12.56,0,25.12A12.35,12.35,0,0,1,49.22,182Z"/><path class="cls-1" d="M105,117.9H83.13c-.61-1.11-.61-6.1,0-7.21l21.89,0A69.74,69.74,0,0,1,105,117.9Z"/><path class="cls-1" d="M23.8,117.91H2v-7.22l21.83,0a.62.62,0,0,1,.26.4,46.42,46.42,0,0,1,0,6.46A.68.68,0,0,1,23.8,117.91Z"/><path class="cls-1" d="M65.78,28.72a12.69,12.69,0,0,1-.86,5.52,1.31,1.31,0,0,1-1,.92,6.86,6.86,0,0,0-4.08,2.75.72.72,0,0,1-.82.33,23.2,23.2,0,0,1-2.36-.38c-.59-.14-1.36-.22-1.38-1.07s.24-1.8,1.13-2.06,1-.8,1-1.57c0-1-.11-2.26,1.48-2.44.33,0,.18-.47.21-.72.08-.72.12-1.44.22-2.15.06-.44.22-1,.63-1.08,1.27-.12.9-1,.89-1.68,0-1.69.12-2,1.71-2.42.5-.14.34-.45.35-.73a8.8,8.8,0,0,1,.26-2.85c.14-.38.29-.79.78-.8s.61.44.72.81a41.58,41.58,0,0,1,1.08,9A5.34,5.34,0,0,1,65.78,28.72Z"/><path class="cls-1" d="M57.91,79.72v9.36a1.27,1.27,0,0,1-1.09.35q-3.26,0-6.51,0a1.26,1.26,0,0,1-1.09-.35c0-3.12,0-6.23,0-9.35A39.45,39.45,0,0,1,57.91,79.72Z"/><path class="cls-1" d="M35.35,30.66c-3.8-6.25-9.51-10.07-15.9-13.07-.28-.13-.73-.14-.78-.46s.41-.53.7-.71a4.54,4.54,0,0,1,4.15-.15,17,17,0,0,1,6,4.51,64.14,64.14,0,0,1,6.13,8C36.2,29.6,35.41,30,35.35,30.66Z"/><path class="cls-10" d="M10.37,51.18a11.17,11.17,0,0,1,7.2-3.11c5.54-.6,10.86.64,16.31,2-.58.51-1.3.68-1.58,1.36-.15.35-.48.15-.75.09a70.25,70.25,0,0,0-12.1-1.43,23.81,23.81,0,0,0-8.8,1.4C10.39,51.53,10.32,51.42,10.37,51.18Z"/><path class="cls-10" d="M38,3.8a66.72,66.72,0,0,0,.67,8.91,38.79,38.79,0,0,0,3.44,11.55c.12.25.5.52.07.82s-.59,0-.77-.27C38.61,20.16,36,15.43,35.47,9.9A6.15,6.15,0,0,1,38,3.8Z"/><path class="cls-1" d="M36.59,25.09A85.15,85.15,0,0,0,31,16.74a18.33,18.33,0,0,0-4.18-4.25.65.65,0,0,1-.36-.78,2.86,2.86,0,0,1,3.63-2.22,1.22,1.22,0,0,1,.94.94A44.68,44.68,0,0,0,37,22.68C37.6,23.64,38.08,24.42,36.59,25.09Z"/><path class="cls-10" d="M38,48.81c-.55,1-1.25,1-2.32.78-6.09-1.52-12.24-2.75-18.57-2.48-.76,0-1.51.13-2.36.21a3.55,3.55,0,0,1,2.39-1.86,14.4,14.4,0,0,1,7.23-.21A88.51,88.51,0,0,1,37.7,48.62,1.89,1.89,0,0,1,38,48.81Z"/><path class="cls-1" d="M41.47,20.22c-.07-.36-.1-.55-.14-.74-.49-2.65-.49-2.66,2-3.74a24.4,24.4,0,0,1,9.75-2.06c.76,0,.9.16.77.94-.36,2.07-.31,2.06-2.4,2.22A22.19,22.19,0,0,0,41.47,20.22Z"/><path class="cls-1" d="M31.15,27a15.82,15.82,0,0,1,1.78,2.26,1,1,0,0,1,0,1.11,21.72,21.72,0,0,0-1.7,9.71c0,.73-.2.85-.88.83-2.23-.07-2.25,0-2.23-2.32A25.1,25.1,0,0,1,31.15,27Z"/><path class="cls-10" d="M35.72,27.66a73.57,73.57,0,0,0-4.44-5.95c-2.39-2.75-4.84-5.44-8.23-7-.56-.26-.48-.5-.17-.9a2.29,2.29,0,0,1,2.9-.67A9.28,9.28,0,0,1,29,15.6a53,53,0,0,1,7,10.11C36.37,26.36,36.33,26.38,35.72,27.66Z"/><path class="cls-1" d="M64.2,1.85a28.69,28.69,0,0,0-.27,14.36c0,.23.35.57-.12.68-1.14.26-1.37,1.21-1.73,2.33A32.68,32.68,0,0,1,60.9,14a22.51,22.51,0,0,1-.17-7.14A7.48,7.48,0,0,1,64.2,1.85Z"/><path class="cls-10" d="M34.41,8.07a31.52,31.52,0,0,0,3.93,12.79c.45.89,1,1.74,1.44,2.62.12.23.57.53.09.76a.75.75,0,0,1-1-.16c0-.06-.09-.12-.13-.19-2-3.41-4.27-6.66-5.8-10.34a11.48,11.48,0,0,1-.89-3.1A3,3,0,0,1,33,7.52c.37-.29.82-.68,1.28-.47S34.3,7.78,34.41,8.07Z"/><path class="cls-10" d="M59.46,6.6c-.48,4.84.64,9.44,1.89,14,.15.55.23.93-.44,1.23s-.69,1.09-1.07,1.91c-1.29-4.8-3-9.3-2.18-14.22A3.51,3.51,0,0,1,59.46,6.6Z"/><path class="cls-11" d="M20.84,44.16a5.53,5.53,0,0,1,4.42-1.26c5.14.35,9.83,2.25,14.45,4.36.22.1.62.19.34.57s-.54.72-1.16.46A61.64,61.64,0,0,0,32,45.9,39.21,39.21,0,0,0,20.84,44.16Z"/><path class="cls-10" d="M56.32,12.48a61.13,61.13,0,0,0,2.86,12.57c.08.23.23.48,0,.67A6.67,6.67,0,0,0,58,28c-1.09-4.1-3-7.72-3-11.84A4.93,4.93,0,0,1,56.32,12.48Z"/><path class="cls-10" d="M54,18.18c.79,2.7,1.43,5.43,2.4,8.05.06.15.1.3.16.45.64,1.56,1.76,3.13-.22,4.49C53.23,26,51.58,20.21,54,18.18Z"/><path class="cls-12" d="M27.74,42.07a5.85,5.85,0,0,1,4-.28c4.08.66,7.69,2.52,11.36,4.37a1.76,1.76,0,0,1-2.35.48A57.69,57.69,0,0,0,27.74,42.07Z"/><path class="cls-10" d="M33.55,41.21c4.83-1.27,8.51,1.45,12.41,3.53a2.78,2.78,0,0,0-1.59.74c-.29.33-.56.15-.85,0A50.81,50.81,0,0,0,33.55,41.21Z"/><path class="cls-12" d="M53.08,26.82c1,2.12,1.87,4,2.93,5.68.13.23.21.43,0,.63a11.11,11.11,0,0,0-1.59,2.51A15.06,15.06,0,0,1,53.08,26.82Z"/><path class="cls-13" d="M10.37,51.18l.28.28c-.17.2-.49.44-.63.27S10.15,51.31,10.37,51.18Z"/><path class="cls-1" d="M155.3,129.9h-8.51c-.41,0-.86.15-.87-.59-.11-5.77-.06-11.51,2.19-17,1.34-3.26,3.09-6.19,6.18-8.15a1.65,1.65,0,0,1,2.05,0c3.31,2.1,5.11,5.29,6.42,8.83a38.2,38.2,0,0,1,1.94,14.74c-.06,2.13,0,2.13-2.08,2.13Z"/><path class="cls-1" d="M429.35,129.9c-2.76,0-5.52,0-8.28,0-.79,0-1.07-.11-1.08-1-.06-5.16,0-10.3,1.73-15.26,1.25-3.51,2.88-6.75,6-9,1.57-1.13,1.73-1.13,3.33,0a16,16,0,0,1,5.34,7.21c2.41,5.62,2.57,11.55,2.41,17.52,0,.69-.45.53-.81.53Z"/><path class="cls-1" d="M324,129.9c-2.8,0-5.6,0-8.4,0-.37,0-.89.24-.91-.54-.09-5.4-.08-10.79,1.82-16,1.26-3.42,2.89-6.59,6-8.77,1.55-1.11,1.68-1.11,3.23,0,3.18,2.25,4.84,5.53,6.09,9.09,1.78,5.08,1.81,10.34,1.73,15.63,0,.75-.48.58-.88.58Z"/><path class="cls-1" d="M532.56,129.9H524c-.43,0-.83.1-.84-.62-.1-5.49,0-10.94,1.95-16.19,1.33-3.54,3.12-6.72,6.39-8.87a1.73,1.73,0,0,1,2.16,0c3.26,2.1,5,5.24,6.35,8.74a37.19,37.19,0,0,1,2,14.27c-.08,2.67,0,2.67-2.63,2.67Z"/><path class="cls-14" d="M453.29,66.9c0-1.35,0-2.71,0-4.07,0-.37,0-.65.53-.74a4.83,4.83,0,0,1,5.34,3.1,4.94,4.94,0,0,1-2.3,6,3.62,3.62,0,0,1-.77.3c-2.44.63-2.8.36-2.8-2.11Z"/><path class="cls-1" d="M478.6,66.87a5.55,5.55,0,0,1-.26,2.2,3.71,3.71,0,0,1-7.15.25,7.25,7.25,0,0,1,.08-5,3.45,3.45,0,0,1,3.37-2.41A3.55,3.55,0,0,1,478.07,64,5.36,5.36,0,0,1,478.6,66.87Z"/><path class="cls-1" d="M365.31,66.82a9.63,9.63,0,0,1-.61,2.89,3.65,3.65,0,0,1-6.62.21,6.61,6.61,0,0,1,.09-6.2,3.6,3.6,0,0,1,6.29-.1A7.27,7.27,0,0,1,365.31,66.82Z"/><path class="cls-15" d="M212.68,65.88c-1.1.23-1.32-.34-1.19-1.26a3.84,3.84,0,0,0,0-.48c0-2.32,0-2.33,2.28-1.94a1.63,1.63,0,0,1,1.57,1.64A1.61,1.61,0,0,1,214,65.63C213.54,65.73,213.11,65.8,212.68,65.88Z"/><path class="cls-15" d="M268.92,62.73c.72,2.06,1.34,3.85,2,5.7h-4C267.57,66.57,268.21,64.77,268.92,62.73Z"/><path class="cls-15" d="M329.86,68.42h-4c.64-1.85,1.26-3.61,2-5.66C328.57,64.79,329.2,66.56,329.86,68.42Z"/><path class="cls-15" d="M552,68.42h-4l2-5.68Z"/><path class="cls-14" d="M170.65,179c0,1.93-.75,3-2,3s-2.07-1.31-1.95-3.05a5.23,5.23,0,0,1,.25-1.16,1.75,1.75,0,0,1,1.81-1.43c1,0,1.45.7,1.69,1.57A2.34,2.34,0,0,1,170.65,179Z"/><path class="cls-16" d="M152,178.27a5.77,5.77,0,0,1-.72,0c-.36-.06-.92.23-1.06-.24a1.35,1.35,0,0,1,.53-1.26,1.9,1.9,0,0,1,2-.44,1.46,1.46,0,0,1,1.15,1.6c-.12.72-.85.21-1.3.33A1.93,1.93,0,0,1,152,178.27Z"/><path class="cls-17" d="M184.79,178.27a5.89,5.89,0,0,1-.84,0c-.33,0-.78.22-1-.18s.1-.78.34-1.08a1.89,1.89,0,0,1,2.34-.6,1.46,1.46,0,0,1,1,1.57c-.11.66-.86.18-1.31.29A2.33,2.33,0,0,1,184.79,178.27Z"/><path class="cls-18" d="M551.91,182.1c-.58,0-1.28-.09-1.3-1s.84-1.51,2.43-1.45c.33,0,1-.47,1,.46A2.1,2.1,0,0,1,551.91,182.1Z"/><path class="cls-18" d="M487.36,179.58c1.33,0,1.5.26,1,1.36a1.89,1.89,0,0,1-1.9,1.16c-.57,0-1.16-.09-1.3-.77a1.24,1.24,0,0,1,.85-1.5A2.92,2.92,0,0,1,487.36,179.58Z"/><path class="cls-18" d="M372.54,179.58c1.45,0,1.64.27,1.07,1.41a2,2,0,0,1-.59.72,2,2,0,0,1-2.14.2.91.91,0,0,1-.48-1.12c.22-.82.91-1,1.63-1.18A2.82,2.82,0,0,1,372.54,179.58Z"/><path class="cls-18" d="M261.1,179.65c-.25,1.8-.88,2.5-2.18,2.45-.65,0-1.23-.19-1.31-.93a1.27,1.27,0,0,1,.93-1.36A5.16,5.16,0,0,1,261.1,179.65Z"/><path class="cls-15" d="M228,179.58c1.45,0,1.6.2,1.06,1.34a2.42,2.42,0,0,1-.46.67,2,2,0,0,1-2.22.36.88.88,0,0,1-.54-1.07c.16-.93.9-1.12,1.65-1.27A2.82,2.82,0,0,1,228,179.58Z"/><path class="cls-15" d="M320.54,182.1c-.6,0-1.26-.18-1.27-1.09s1-1.45,2.51-1.41c.33,0,.94-.36,1,.37A2.13,2.13,0,0,1,320.54,182.1Z"/><path class="cls-19" d="M49.23,89.08h8.69l23.82,0c.44,0,1-.23,1.33.25a2.2,2.2,0,0,1-1.59.37H50.59a3.09,3.09,0,0,1-1.41-.21.32.32,0,0,1-.17-.39Z"/><path class="cls-20" d="M23.8,117.91c.12-2.42.12-4.83,0-7.25,0-6.73,0-13.46,0-20.19,0-.45-.21-1,.24-1.34a1.28,1.28,0,0,1,.25.4,5.46,5.46,0,0,1,.13,1.66v28a4.29,4.29,0,0,1-.21,1.88.3.3,0,0,1-.4.16Z"/><path class="cls-19" d="M24.07,89.37v-.24H49v.18c-.43.48-1,.41-1.56.41q-11,0-21.91,0A2,2,0,0,1,24.07,89.37Z"/><path d="M24.07,89.37l23.27,0,1.67,0c3,0,5.92,0,8.87,0H83.07q0,10,0,20c0,.44,0,.88,0,1.32v7.21q0,3.69-.07,7.39c-.23.47,0,1-.18,1.49-1.93,13.46-9.54,22.64-21.51,28.53-1.13.55-2.31,1-3.47,1.51a.45.45,0,0,0-.23,0,11.42,11.42,0,0,1-8.43,0c-1.21-.5-2.4-1-3.61-1.49a30.6,30.6,0,0,1-9.17-5.79,38.87,38.87,0,0,1-8-9.66,45,45,0,0,1-4.1-11.15,5.9,5.9,0,0,1-.07-1.19c-.21-.38.06-.84-.19-1.22L24,124.88a18.25,18.25,0,0,1,0-3.62q0-8.33,0-16.66Q24.07,97,24.07,89.37Z"/><path class="cls-3" d="M93,127.52c2.49.1,5.14.73,7.83,1,.54.06.8.32.56.89a.86.86,0,0,0,0,.23c-.32,2.15-.32,2.16-2.41,1.9-.64-.08-1.09,0-1.11.77a2.77,2.77,0,0,1-.09.47c-.32,2.27-.33,2.3,1.93,2.77.65.13.73.4.68.95-.19,2.49-.18,2.49-2.61,2.07a52.47,52.47,0,0,1-6.24-1.07c-2.79-.83-5.08-2.28-6.1-5.21a1.7,1.7,0,0,1,.29-1.77C87.52,128.24,90,127.55,93,127.52Z"/><path class="cls-3" d="M73,154.11c.21-3.55,1-4.1,4.66-3.69,2.4.27,4.25,1.76,5.87,3.46,1.44,1.5,2.8,3.07,4.22,4.58.37.4.52.7,0,1a3,3,0,0,0-.26.25c-1.62,1.52-1.65,1.54-3.12-.16-.5-.57-.85-.59-1.3,0a3.55,3.55,0,0,1-.34.33c-.53.58-1.56.94-1.6,1.65s.84,1.19,1.38,1.71.35.66,0,1.06c-1.79,1.79-1.8,1.82-3.5-.07A38.25,38.25,0,0,1,74.45,159,8.92,8.92,0,0,1,73,154.11Z"/><path class="cls-3" d="M89.29,146.47a4.6,4.6,0,0,0-1.67-2.55,29.66,29.66,0,0,0-4.31-2.79c-.88-.49-.94-.89-.41-1.7,1.16-1.76,1.09-1.75,2.92-.69,2.23,1.29,4.36,2.67,5.65,5a3.54,3.54,0,0,1,.72,1.88c-.14,1.39.8,1.9,1.75,2.47,1.41.86,1.4.87.51,2.3s-.86,1.37-2.23.49a3.6,3.6,0,0,0-3.26-.7,8,8,0,0,1-5.67-1c-1.42-.72-2.72-1.67-4.08-2.5-.43-.26-.57-.53-.23-.95a.53.53,0,0,0,.06-.1c1.24-2.22,1.24-2.21,3.38-.89a19.11,19.11,0,0,0,4,2.19,4.64,4.64,0,0,0,2.12.23C88.93,147.15,89.27,147,89.29,146.47Z"/><path class="cls-3" d="M73.94,166.32a6.93,6.93,0,0,1-4.21,6.1c-.19.06-.37.18-.5,0-.42-.72-.83-1.45-1.23-2.18-.16-.28,0-.4.25-.52a7.07,7.07,0,0,0,1.15-.62,2.65,2.65,0,0,0,1-3.9c-1.36-2.43-2.75-4.85-4.19-7.23-.45-.73-.5-1.1.34-1.56,1.85-1,1.82-1.07,2.88.75L73,163.32A6.76,6.76,0,0,1,73.94,166.32Z"/><path class="cls-21" d="M82.88,126.78c0-.51-.18-1,.18-1.49C83.06,125.79,83.24,126.32,82.88,126.78Z"/><path class="cls-3" d="M28.51,150.6a17.42,17.42,0,0,1,3.76-.32c.88,0,1.24.35,1.28,1.16a8.6,8.6,0,0,1-2.19,6.75c-2,2-4.18,3.83-6.27,5.74-.37.33-.6.33-1,0-2-1.84-2-1.81,0-3.57q2.22-1.92,4.41-3.88a6.14,6.14,0,0,0,1.72-2.69c.2-.61,0-.92-.69-.76a7.1,7.1,0,0,0-3.37,1.72c-1.62,1.47-3.3,2.9-4.9,4.4-.58.54-.94.64-1.51,0-1.42-1.64-1.45-1.6.19-3s3.07-2.69,4.58-4a5.86,5.86,0,0,0,1.66-2.72c.2-.68.09-1-.72-.8a7.44,7.44,0,0,0-3.31,1.84c-1.66,1.5-3.35,3-5,4.48-.48.44-.76.49-1.23,0-1.63-1.84-1.65-1.82.23-3.49,1.43-1.28,2.84-2.57,4.3-3.82a9,9,0,0,1,7.84-1.93,1,1,0,0,1,1,1.24A13,13,0,0,1,28.51,150.6Z"/><path class="cls-3" d="M42.75,161.44a11.24,11.24,0,0,1-1.6,5.33c-1.09,1.9-2.29,3.74-3.4,5.63-.33.55-.63.64-1.1.23a1.39,1.39,0,0,0-.21-.11c-1.89-1.15-1.93-1.17-.73-3.06.42-.66.31-1-.32-1.26A2.52,2.52,0,0,1,35,168c-2-1.22-2-1.23-3.25.67-.37.56-.61.6-1.19.25-2.06-1.26-2.11-1.24-.85-3.23a38.32,38.32,0,0,1,3.91-5.86,8.2,8.2,0,0,1,6.5-3,1.84,1.84,0,0,1,1.77,1.12A7.52,7.52,0,0,1,42.75,161.44Z"/><path class="cls-3" d="M6.46,134.79c-.21-.64.47-.53,1-.63,2-.4,2-.4,1.76-2.34-.22-1.76-.23-1.8-2-1.48-1,.18-1.49-.07-1.6-1.17-.18-1.9-.23-1.89,1.68-2.18s3.54-.62,5.32-.79c3.31-.31,6.36.21,8.59,3a1.8,1.8,0,0,1,.23,2,7.83,7.83,0,0,1-4.62,4.4c-3,1.23-6.32,1.23-9.48,1.85-.37.08-.48-.14-.52-.46C6.7,136.36,6.59,135.69,6.46,134.79Z"/><path class="cls-3" d="M20,138.54c-.29-.53-.54-1.08-.86-1.58s-.37-1,.37-1.37c2.16-1.14,2.14-1.18,3.28,1,.95,1.8,1.87,3.62,2.88,5.38.4.71.29,1.08-.44,1.33l-.11.06c-1.93,1-2,1.07-3-.89-.37-.68-.68-.65-1.28-.33-3,1.62-6,3.17-9,4.8-.75.42-1.06.26-1.43-.45-1-2-1.05-2,1-3.09l7.81-4.15C19.52,139.07,19.94,139,20,138.54Z"/><path class="cls-22" d="M24,121.26v3.62c-.42-1.19-.12-2.41-.18-3.62Z"/><path class="cls-23" d="M24.07,126.3c.37.36.2.8.19,1.22C23.93,127.15,24.08,126.72,24.07,126.3Z"/><path class="cls-24" d="M66.13,37.74c.64.06,1,.34,1,.9a.9.9,0,1,1-1.8,0A.93.93,0,0,1,66.13,37.74Z"/><path class="cls-25" d="M39.07,90.54c4.28,0,8.55,0,12.83,0,.85,0,1.07.25,1.06,1.08q0,9,0,18c0,.84-.25,1.09-1.08,1.08-2.8,0-5.6,0-8.4,0-1,0-1.27.3-1.23,1.27.08,1.72,0,3.44,0,5.16,0,.75-.24,1-1,.94q-7.68,0-15.35,0c-.77,0-.93-.3-.93-1q0-12.76,0-25.54c0-.89.38-.94,1.08-.94C30.43,90.55,34.75,90.54,39.07,90.54Z"/><path class="cls-1" d="M68.11,90.54c4.28,0,8.56,0,12.84,0,.79,0,1,.22,1,1q0,12.7,0,25.42c0,.8-.13,1.08-1,1.07q-7.55-.07-15.1,0c-.88,0-1.06-.27-1-1.08.06-1.76,0-3.52,0-5.27,0-.87-.27-1.06-1.09-1.05-2.83,0-5.67,0-8.51,0-.79,0-1-.21-1-1,0-6,0-12.07,0-18.11,0-.92.33-1,1.09-1C59.56,90.56,63.84,90.54,68.11,90.54Z"/><path class="cls-1" d="M33.78,119.37c2.52,0,5,0,7.56,0,.73,0,1,.18.94.93-.07,2.59-.18,5.2,1,7.63,1.95,3.91,4.56,7,9,8.06.53.12.58.42.58.86q0,9.34,0,18.7c0,.7-.22.77-.85.63-11.17-2.48-24.22-12.73-26.59-28.09a44.11,44.11,0,0,1-.42-7.88c0-.71.27-.85.91-.84C28.59,119.39,31.19,119.37,33.78,119.37Z"/><path class="cls-25" d="M73.38,119.36c2.55,0,5.11,0,7.67,0,.58,0,.81.11.86.78,1.44,18.94-12.71,32.6-26.6,36-1,.25-1.13-.05-1.12-.93q0-9,0-18c0-.81.18-1.14,1-1.36,5-1.27,9.44-7.2,9.53-12.43,0-1,0-2.08,0-3.11,0-.74.22-1,1-1C68.26,119.38,70.82,119.36,73.38,119.36Z"/><path class="cls-3" d="M58.51,129.46c-1.43-1-2.89-2-4.29-3a1,1,0,0,0-1.35,0c-1.46,1-3,2-4.75,3.21.51-1.92.9-3.52,1.38-5.1a1.37,1.37,0,0,0-.56-1.79c-1.31-.94-2.52-2-4.07-3.29,2,0,3.69,0,5.34,0a1.19,1.19,0,0,0,1.38-1c.57-1.72,1.24-3.4,2-5.39.66,2,1.27,3.63,1.76,5.32a1.22,1.22,0,0,0,1.45,1,27.36,27.36,0,0,1,5,.22c-1.24,1-2.44,2.09-3.75,3a1.44,1.44,0,0,0-.58,1.89c.47,1.55.87,3.13,1.31,4.69Z"/><path class="cls-26" d="M92.44,130.66c2.31,0,2.43.13,2,2.28s-.58,2.2-2.63,1.47a5.61,5.61,0,0,1-2.06-1.16c-1-1-.91-1.52.36-2.11A7.89,7.89,0,0,1,92.44,130.66Z"/><path class="cls-26" d="M76.17,154.76c0-.79.28-1.23,1.13-1.1a6.72,6.72,0,0,1,4,2.61c.26.3,0,.5-.18.69l-1.25,1.11c-1.41,1.24-1.41,1.23-2.53-.36A6,6,0,0,1,76.17,154.76Z"/><path class="cls-26" d="M39.49,161.74a7.24,7.24,0,0,1-1.32,3.77c-.24.38-.44.37-.76.16s-.95-.58-1.42-.87c-1.63-1-1.64-1-.42-2.59a6,6,0,0,1,2-1.69C39,159.79,39.49,160.11,39.49,161.74Z"/><path class="cls-26" d="M14.57,129.21a6,6,0,0,1,2.57.71c.68.41.87.87.27,1.52a6.2,6.2,0,0,1-4.24,1.86c-.41,0-.59-.12-.63-.52s-.11-.86-.19-1.29C12,129.44,12.25,129.14,14.57,129.21Z"/><path d="M30.51,94.41a20,20,0,0,1-.09,4.64c-.28,2.38,1.1,3.54,3.4,2.74a5.08,5.08,0,0,1,3-.29,2.78,2.78,0,0,0,1.43,0,6,6,0,0,1,3.85.35,2.42,2.42,0,0,0,2.19-.15,1.67,1.67,0,0,0,.93-2,16.42,16.42,0,0,1-.34-4.64A2.65,2.65,0,0,1,46,92.94c-.6,2,.63,3.52,1.16,5.21,1.14,3.7.45,5.08-3.26,6.17.14.6.83.57,1.12,1,0,.22-.16.24-.29.29-.75.28-2-.3-2.25.33-.66,1.5-1.76,2.88-1.64,4.67a5.89,5.89,0,0,1-.36,3.05c-.16.33-.26.69-.71.69-1.32,0-2.64,0-4,0-.28,0-.66-.07-.64-.53a.37.37,0,0,1,.3-.31c.08,0,.19-.09.17-.14-.53-1.86-.08-3.71,0-5.57a4.7,4.7,0,0,0,0-.53c-.29-.83-.56-1.67-.88-2.48a3.7,3.7,0,0,0-3.07-2.16c-1.8-.35-2.42-1.28-2.16-3.09.1-.68.09-1.36.21-2A11.07,11.07,0,0,0,30,95.33C30.06,95,29.9,94.46,30.51,94.41Z"/><path class="cls-27" d="M36,107.86c-.33,1.3-.08,2.66-.45,4-.2.69.76,1.26.55,2.1-.29.12-.43-.17-.63-.33a3.32,3.32,0,0,1-.84-2.1l0-1.54a.23.23,0,0,1,.29.06,4.31,4.31,0,0,1,0,.77c-.06,0,0-.21,0-.35s0-.31,0-.46a10,10,0,0,0-1.2-2.67,3.24,3.24,0,0,1-.36-1c0-.49-.34-.62-.8-.66-1.44-.14-1.43-.16-.53-1.38-.51-.22-1.07-.25-1.57-.46-2.49-1.17-2.76-1.81-2.11-5.07l.11-.29c.36-.51.41-1.17.78-1.68l.06-.67c.35-.52.23-1.21.51-1.8.52.32.18.82.42,1.13a29.34,29.34,0,0,1-.37,4.29c-.23,1.59.4,2.57,2,2.57,1.44,0,2.09,1.13,3.14,1.67.08,0,.13.21.13.32a8.55,8.55,0,0,0,.87,3c-.33.26-.62.12-.91-.07a1.09,1.09,0,0,1-.26-.22c0,.11.1.12.16.19C35.32,107.53,35.88,107.36,36,107.86Z"/><path class="cls-7" d="M30.59,103.71l1.74.33c0,.55-.54.79-.76,1.43,1.81-.62,2.12.55,2.35,1.81.12.27,0,.31-.23.27-.31-1.46-1.35-1.86-2.67-1.85a.75.75,0,0,1-.63-.28c.07-.34.4-.35.6-.5l.67-.5-1.35-.49C30.29,103.71,30.35,103.6,30.59,103.71Z"/><path class="cls-28" d="M30.59,103.71l-.28.22c-2.54-1-3.15-2.59-1.92-5.19.29.19.09.41.06.63C28.06,102,28.28,102.45,30.59,103.71Z"/><path class="cls-29" d="M33.69,107.55l.23-.27A4.41,4.41,0,0,1,35,110c-.06.11-.12.12-.2,0l-.2-.07A9.1,9.1,0,0,0,33.69,107.55Z"/><path class="cls-30" d="M30.27,95.43,30,94.64c-.28.47,0,1.18-.62,1.46a16.73,16.73,0,0,0,.28-2.44c.29-.12.43.21.68.21a.62.62,0,0,1,.21.54C30.18,94.69,30.38,95.1,30.27,95.43Z"/><path class="cls-6" d="M34.66,111.5l.84,2.1-.3.19C34.92,113.05,34.34,112.38,34.66,111.5Z"/><path class="cls-31" d="M29.28,96.77c-.14.62-.18,1.28-.78,1.68C28.62,97.83,28.57,97.12,29.28,96.77Z"/><path class="cls-32" d="M30.3,93.87c-.36.35-.43-.2-.68-.21l-.08-.27c-.1-.25-.15-.48.26-.42Z"/><path class="cls-33" d="M29.8,93c-.26,0-.2.27-.26.42-.23-.24-.35-.55-.09-.77S29.74,92.79,29.8,93Z"/><path class="cls-9" d="M63.92,106.12c-.1-.22.13-.65-.29-.66s-.2.36-.24.57.11.56-.22.82c-.45-.36,0-1-.36-1.34-.5.34-.15,1-.55,1.43-.55-.35-.26-.86-.28-1.28s0-.85-.36-.92-.29.54-.48.8a1.72,1.72,0,0,0-.16.57c-.63,0-.13-.55-.4-.71a9.77,9.77,0,0,1,3.08-9.07c.31-.29.3-.27.84,0a.37.37,0,0,0,.55-.39c-.11-.89.53-1,1.12-1.27a10.07,10.07,0,0,1,4.68-.56c.18,0,.28.12.34.34-.67.26-1.31-.22-2-.11-.42.07-.85-.08-1.12.46s0,.89.35,1.22,1,0,1.45.25l-.57.83c1.2.71,2.32,1.7,3.91.87-.07.69-.5,1.23,0,1.73.15.15.24.49.53.26s.46-.24.19-.64c-.38-.57-.71-1.31.51-1.33.42,0,.29-.27.25-.49s-.08-.76.26-.85.57.34.75.63.48.87,1.11.62c.1-.42-.53-.47-.36-1.19a10.63,10.63,0,0,1,2.88,5c.76,2.22-.88,3.84-.75,5.81l-.38-2.71c-1,.67-1.21,1.68-1.51,2.68a4,4,0,0,0-.19-.37c-.32-.37.09-1.25-.62-1.21-.54,0-.53.81-.73,1.27-.07.17,0,.4-.35.53-.11-.43-.19-.87-.34-1.28s-.25-.87-.8-.36a.25.25,0,0,1-.42,0c-.07-.41-.14-.84-.72-.72s-.61.45-.6.89a31.44,31.44,0,0,1,.06,3.36c-.07,1,.34,1.47,1.33,1.48a2.55,2.55,0,0,1,.94.16c-1.64-.06-3.24.78-4.9,0a3.16,3.16,0,0,0-2.11.17c-.29.07-.59.28-.92.1.4-.36-.16-.73,0-1.15.78-1.6.4-3.28.38-4.92-.73-.06-.29.64-.7.7-.3-.18-.26-.48-.28-.75-.4-.16-.33.16-.36.36s0,.4-.32.32c-.15-.39-.25-.82-.75-.93C64,105.4,64.55,106,63.92,106.12Z"/><path class="cls-34" d="M71.81,94.23a3.8,3.8,0,0,1,1.89.69c.17.1.33.27.2.48s-.32.18-.52.08C72.8,95.2,72.13,95,71.81,94.23Z"/><path class="cls-35" d="M73.29,106.13h.42a2.42,2.42,0,0,1-.27,1.7A3,3,0,0,1,73.29,106.13Z"/><path class="cls-36" d="M65.13,106.12c.47,0-.17-1.06.68-.68-.49.61,0,1.34-.31,2.07A2.23,2.23,0,0,1,65.13,106.12Z"/><path class="cls-37" d="M63.92,106.12c.37-.2,0-.78.46-.93v1.93C63.75,106.79,63.9,106.44,63.92,106.12Z"/><path class="cls-38" d="M70.81,96.53a.68.68,0,0,1,1.08-.31c.16.09.24.27.08.37C71.57,96.84,71.25,96.48,70.81,96.53Z"/><path class="cls-39" d="M69.91,96.3c-.49-.06-1,.25-1.45-.25a2.34,2.34,0,0,0,1.68-.22l0,0C70.13,96,70.14,96.21,69.91,96.3Z"/><path class="cls-40" d="M75.2,95.59c-.06.15,0,.38-.25.3a.68.68,0,0,1-.49-.47c0-.16,0-.32.25-.26A.67.67,0,0,1,75.2,95.59Z"/><path class="cls-41" d="M76,96a1.46,1.46,0,0,1,.19.44c0,.07-.15.22-.2.21a.35.35,0,0,1-.3-.43C75.73,96.09,75.88,96.05,76,96Z"/><path class="cls-42" d="M70.14,95.83c0-.31,0-.56.41-.46.09,0,.22.16.21.22-.08.4-.4.2-.64.22Z"/><path class="cls-43" d="M60.58,105.4l.4.71c0,.15.11.58-.28.25S60.51,105.74,60.58,105.4Z"/><path class="cls-44" d="M44.94,136.12c1.25.09,1.44,1.22,2,2,.19.28.16.75.68.65,1.09-.22,1.66.63,2.36,1.17s.35,1.35.34,2.09,1.4.74.68,1.83a1.35,1.35,0,0,0-2-.32c-.57.35-2.81-.77-3-1.44a1.66,1.66,0,0,0-1.32-1.23c-.8-.19-1.3-.9-2.06-1.15-.46-.16-.23-.62-.32-.94a.51.51,0,0,1,.29-.13c.34,0,.78.09.89-.35a1.09,1.09,0,0,1,.88-.92c.47-.12.26-.68.41-1A.64.64,0,0,1,44.94,136.12Z"/><path class="cls-45" d="M44.94,136.12l0,.29c-.42.35-.89.21-1.35.14s-.87.13-.82.77a2,2,0,0,1-.25,1.46h-.24c-.11-1.54-1.9-1.59-2.46-2.75-.09-.19-.53-.33-.51-.45.26-1.93-1.37-2.85-2.18-4.2,0,0,.11-.19.18-.29a.83.83,0,0,1,.26-.19,4.37,4.37,0,0,0,3-1.54.84.84,0,0,1,.28-.18,2.05,2.05,0,0,1,.81,2.34c-.08.59,0,.86.55,1.09a2.61,2.61,0,0,1,1.7,2.26A1.16,1.16,0,0,0,44.94,136.12Z"/><path class="cls-46" d="M31.49,125.34c-.1.33-.17.68-.3,1A1.9,1.9,0,0,0,32,129c.45-.12.45-.12.26-.74-.12-.47-.26-1,.1-1.37,1-1.09,1.77-2.23,1.12-3.84,1.29,1.83.8,4,1.17,5.93a2.18,2.18,0,0,1-.33.52c-.72.56-.42,1.16-.09,1.76a1,1,0,0,1,0,.65l-.55.68c-.23.3.15.8-.33,1-.45-.13-.59-.59-.92-.85l-.77-.78a5,5,0,0,1-.53-.59c-.63-.87-1.88-1-2.41-2-1-1.2-.4-2.49-.24-3.86l.65,1.24a2.22,2.22,0,0,0,0,1.7c.09.26.27.54.55.56.44,0,.35-.43.48-.68s.14-.38.19-.58c-.2-.88-1-1.6-.67-2.61.38-.08.47.23.61.46.06,0,.06.25.11.18.24-.37.07-1.29,1-.7A.88.88,0,0,1,31.49,125.34Z"/><path class="cls-47" d="M37.56,131.07l-.27,0a3.88,3.88,0,0,0-.84-3,2.27,2.27,0,0,1-.12-2.74c.21,0,.31.08.39.23s.24.81.54.66c.59-.3,1.28.09,1.79-.33.24-.2.06-.42-.08-.62-.28-.37-.77-.58-.88-1.09a.5.5,0,0,1,.12-.31c2.17,1.11,2.61,2,2,4.13-.23.76.32.86.68,1.16l-.05.32-.24,0c-.69.1-1.15-1-1.81-.51-.46.35-.48,1.15-.9,1.65C37.75,130.81,37.66,130.94,37.56,131.07Z"/><path class="cls-48" d="M31.24,131.34a.8.8,0,0,1,.49.48c.22.31.42.63.64.93s.13,1,.85.75l.39-.95c0,.59,0,1.18,0,1.77s.29.86.93,1.05c-.27-.82-.78-1.57-.21-2.36a5.37,5.37,0,0,1,1.33,2,7.33,7.33,0,0,0,.21,3.45.66.66,0,0,1,0,.34c-.33.3-.65.11-1,0l-.29-.17a5.43,5.43,0,0,0-2.58-1.2,1.1,1.1,0,0,1-.79-.49l-.22-.3c-.06-.23.09-.29.26-.34.34-.07.63.28,1,.15.07-.8-.81-.72-1.08-1.19a.4.4,0,0,1,0-.32c1.78-.63,2.27.92,3.19,1.78a13.88,13.88,0,0,0-3-2.78,1.5,1.5,0,0,1-.39-.54c0-.95-.71-1.47-1.3-2.07a.46.46,0,0,1,.34-.37A1.1,1.1,0,0,1,31.24,131.34Z"/><path class="cls-49" d="M37.47,140.71c.21.33.39.69,1,.68-.24-.86-.87-1.68-.24-2.57.08.67.61,1,1,1.44a3.1,3.1,0,0,1,.41.76c-.12,1,.75,1.77.69,2.77a.71.71,0,0,1-.35.43,1.4,1.4,0,0,1-.54.1c-.64-.06-1.21-.42-1.84-.51a.65.65,0,0,1-.4-.28c-.22-.46-.73-.85-.38-1.47a.72.72,0,0,1,.21-.25,1,1,0,0,1,.79.17,4.54,4.54,0,0,1,1.15.84,3,3,0,0,0-1-.79,3.69,3.69,0,0,0-1.07-.38,6.33,6.33,0,0,1-1.25-.74,3.18,3.18,0,0,1-1.24-.73c-.41-.37-.54-1.06-1.28-1.11.07.7.86.69,1,1.21,0,.19-.14.3-.35.21-1.73-.22-1.63-1.77-2.1-2.91,1.16-.06,2.09.63,3.12,1v0c.87.47,1.27,1.44,2.08,2C37.11,140.59,37.32,140.58,37.47,140.71Z"/><path class="cls-49" d="M40.1,147.2c.18.07.42.25.53.19,1.59-.87,3-.23,4.39.51.16.09.41.36.58.06.06-.1-.12-.34-.19-.52s0-.27.21-.25c.92,1.35,2.42,1.5,3.81,1.86.36.09.71.07.7.59s-.08.8-.66.45a14.54,14.54,0,0,0-2.94-1.28,4.82,4.82,0,0,0-3.24-.15c-.18.09-.28,0-.34-.16-.77-.86-1.23-.89-2.12-.13-.56-.07-.64-.62-.93-1C39.81,147.2,39.88,147.13,40.1,147.2Z"/><path class="cls-24" d="M45.62,147.19l-.21.25a2.56,2.56,0,0,0-2-.74c-1.11.1-2.08-.77-3.23-.49l-.14-.07c-.29-.25-.37-.63-.57-.93-.36-.32-1.14.09-1.24-.7a1.36,1.36,0,0,1,1.11-.32,3.68,3.68,0,0,1,1.78.79c.34.2.64.65,1.13.29a.19.19,0,0,1,.26,0c.48.39.72,1.22,1.62.85-.19-.6-1-.63-1.11-1.31-.09-.22,0-.3.22-.34.75.21,1.54.38,1.72,1.33C44.93,146.38,45.4,146.72,45.62,147.19Z"/><path class="cls-50" d="M31.49,133.7c1.33,1.06,3,1.85,3.36,3.77-1.18-.89-1.55-2.89-3.59-2.5-.45.1-.57-.23-.73-.53s0-.6-.46-.46c-.4-.13-.45-.37-.26-.71C30.49,133,31,133.4,31.49,133.7Z"/><path class="cls-51" d="M35.81,138.6a4,4,0,0,1-.24-3.66v-.17c.22-.57,0-1.27.53-1.76.65.19.67.71.65,1.25-.35,1.29-.84,2.57-.3,3.94C36.38,138.56,36.2,138.75,35.81,138.6Z"/><path class="cls-52" d="M35.81,138.6c.29,0,.5-.13.44-.48s0-.42.06-.64c.22-.44.83-.56.94-1.1.81.23.44.8.31,1.23a4.59,4.59,0,0,0-.09,3.1l-.52.19c-.14-.84-1-1.3-1.13-2.14A.86.86,0,0,1,35.81,138.6Z"/><path class="cls-53" d="M42.46,145.27h-.22a4.31,4.31,0,0,1-2.42-1.17l.35-.35c.72-.16-.2-.82.32-1,.31-.37.9,0,1.2-.47l.12-.08C42.38,143.12,41.66,144.35,42.46,145.27Z"/><path class="cls-54" d="M30.29,128.23c.25.46-.48.82,0,1.32-1.7-.42-2.21-1.71-1.21-2.82a.22.22,0,0,1,0,.16C29.43,127.38,30,127.66,30.29,128.23Z"/><path class="cls-55" d="M40.62,142.8c-.32.53.43.72.38,1.16-.35.21-.59,0-.83-.21-.22-.92-1-1.67-.71-2.73.12-.42-.3-1,.25-1.28a.43.43,0,0,1,.16,0,.49.49,0,0,1,.39.3,1.8,1.8,0,0,1,.15.5c.07.6-.09,1.23.3,1.78A.47.47,0,0,1,40.62,142.8Z"/><path class="cls-56" d="M35.57,134.94a4.33,4.33,0,0,1-1.2-1.93l.46-1c.25.13.51-.31.76,0h0a10.28,10.28,0,0,1,.35,1.07,3.13,3.13,0,0,1-.35,1.83Z"/><path class="cls-57" d="M33.84,140.49l.29-.22c.08-.26.37-.15.52-.3.21.54.83.37,1.17.69-.17.32-.52.25-.83.37.68.19,1.33.33,2,.54a.19.19,0,0,1,.11.17c0,.07,0,.11,0,.11v.27c-.68.28-1.46-.1-2.12.35a.35.35,0,0,1-.31-.08C34.31,141.77,33.66,141.29,33.84,140.49Z"/><path class="cls-58" d="M34.86,138.55a6,6,0,0,1-3.12-1c-.48,0-.49-.34-.5-.69C32.51,137.3,34,137.32,34.86,138.55Z"/><path class="cls-59" d="M31.49,133.7l-1.68-.43c-1-.82-.68-2.06-.92-3.12.83-.24,1,.32,1.18.95l-.25.17c-.34,1.25.81,1.43,1.43,2Z"/><path class="cls-58" d="M44.91,145.8c-.25-.83-1.24-.67-1.69-1.23-.31-.35-.13-.81-.28-1.19s.08-.68.57-.44a2.79,2.79,0,0,1,.87,1c.25.31.07.76.34,1.06S44.93,145.52,44.91,145.8Z"/><path class="cls-60" d="M31.49,125.34l-.31-.06a1.94,1.94,0,0,0-.77-2c-.13-.09-.26-.18-.13-.36L31,121.4a24.57,24.57,0,0,0,.71,2.72A1.23,1.23,0,0,1,31.49,125.34Z"/><path class="cls-61" d="M39,140.35c-.48-.4-1-.75-.76-1.53v-.47a.4.4,0,0,1,.34-.37,2.41,2.41,0,0,1,.76,1.21,1.31,1.31,0,0,1,.2,1C39.44,140.5,39.3,140.76,39,140.35Z"/><path class="cls-62" d="M30.07,131.1c-.55-.13-.48-1-1.18-.95-.34-.19-.28-.5-.24-.8.82.71,2.11.83,2.59,2Z"/><path class="cls-51" d="M40.83,148.37c.09-.24-.31-.67.25-.72s1.09-.5,1.27-.09.66.42.93.68c0,0,0,.08,0,.1a1.36,1.36,0,0,1-.21.1,2.14,2.14,0,0,1-1.94-.06Z"/><path class="cls-63" d="M36.53,137.56l-.28.56c-.92-1.39.12-2.63.28-3.94l.22.08,0,.67a.32.32,0,0,1,.08.2c0,.08,0,.12,0,.12C36.91,136,36.36,136.76,36.53,137.56Z"/><path class="cls-64" d="M36.53,137.56c-.56-.82,0-1.53.22-2.28a1.41,1.41,0,0,1,.5,1v1.32C36.9,138.23,36.88,136.8,36.53,137.56Z"/><path class="cls-65" d="M30.07,134c.23-.38.37-.1.47.09a1.87,1.87,0,0,0,.72.9v.18c-.19.41.18.83,0,1.24l-.21.2C29.94,136,30.55,134.79,30.07,134Z"/><path class="cls-66" d="M34.16,131.87l-.26-.53a2.63,2.63,0,0,0,.23-2.19.5.5,0,0,1,.48-.21C35.07,130,35.18,131,34.16,131.87Z"/><path class="cls-67" d="M38.21,144.58c.45.5,1.25-.16,1.64.51a3.75,3.75,0,0,1-2.27.2A1.93,1.93,0,0,1,37,145l-.48-.72.14-.12A1.5,1.5,0,0,1,38.21,144.58Z"/><path class="cls-68" d="M38.21,123.9a.6.6,0,0,1,0,.23,4.4,4.4,0,0,0-.86,1.06.61.61,0,0,1-.82.4l-.21-.23c.34-.48.67-1,1-1.44S37.92,123.47,38.21,123.9Z"/><path class="cls-69" d="M41.11,148.38l1.94.06.24.22C42.53,148.84,41.74,149.25,41.11,148.38Z"/><path class="cls-70" d="M30.28,122.93l.21.24a3.43,3.43,0,0,1-.48,2.42l-.41-.47A3.58,3.58,0,0,1,30.28,122.93Z"/><path class="cls-60" d="M43.49,143.11c-.27-.16-.49-.25-.45.21.09.25,0,.3-.23.23l-.3-1.38c-.08-.26,0-.33.28-.28l.94,1C43.79,143.08,43.72,143.18,43.49,143.11Z"/><path class="cls-71" d="M38.46,138.08l-.25.27c-.45-.67-.09-1.41-.23-2.32l.73,1.79C38.68,138,38.56,138,38.46,138.08Z"/><path class="cls-72" d="M34.59,142.39h.22a3.26,3.26,0,0,1,1.78,1.07.38.38,0,0,1-.61.17A1.38,1.38,0,0,1,34.59,142.39Z"/><path class="cls-73" d="M36,143.62l.54-.25a.48.48,0,0,1,.74,0l.28.27c-.08.6-.79.28-1,.69v0C36,144.35,35.88,144.09,36,143.62Z"/><path class="cls-60" d="M39,140.35c.93-.31.09-.88.2-1.31-.12-.25,0-.28.21-.23l.34.93c-.1.42,0,.89-.25,1.28Z"/><path class="cls-74" d="M42.81,143.55l.23-.23a1.75,1.75,0,0,1,.18,1.25l-.25.24C42.66,144.42,42.8,144,42.81,143.55Z"/><path class="cls-75" d="M43.49,143.11l.24-.25a1.39,1.39,0,0,1,.75.92c.12.26,0,.29-.22.26Z"/><path class="cls-3" d="M35.57,135l.21-1.87c-.11-.23,0-.3.21-.28l.11.21A2.74,2.74,0,0,1,35.57,135Z"/><path class="cls-76" d="M30.29,128.23c-.49-.37-1.1-.62-1.2-1.34l1.18.84C30.56,127.89,30.31,128.06,30.29,128.23Z"/><path class="cls-60" d="M35.59,132.06c-.25-.32-.52.88-.76,0l.28-.7a.25.25,0,0,1,.42,0Z"/><path class="cls-77" d="M37,145h.48c.25.28.65.42.78.81,0,.21-.15.27-.29.35A1.69,1.69,0,0,1,37,145Z"/><path class="cls-78" d="M40.11,140l-.24-.25c0-.31,0-.62,0-.93l.15-.05.32,1C40.3,139.84,40.27,140,40.11,140Z"/><path class="cls-79" d="M39.37,138.81l-.21.23-.7-1,.25-.26A2.17,2.17,0,0,1,39.37,138.81Z"/><path class="cls-80" d="M35.53,131.36h-.42a1.7,1.7,0,0,1,.35-1A1.51,1.51,0,0,1,35.53,131.36Z"/><path class="cls-81" d="M40.1,147.2l-.2.22c-.21-.17-.55-.16-.64-.47a.19.19,0,0,1,.09-.19C39.73,146.67,39.93,146.93,40.1,147.2Z"/><path class="cls-82" d="M41.34,140.93a1.37,1.37,0,0,1,.47,1.23l0,0c-.61,0-.69-.44-.82-.87A.41.41,0,0,1,41.34,140.93Z"/><path class="cls-83" d="M37.25,136.27c-.16-.33-.33-.66-.5-1l0-.35C37.05,135.33,37.57,135.65,37.25,136.27Z"/><path class="cls-84" d="M38,146.19l.26-.24a.48.48,0,0,1,.76.13.37.37,0,0,1-.08.33Z"/><path class="cls-85" d="M32.22,128.22a.76.76,0,0,1,.16.95c-.12.18-.33,0-.42-.21C32.29,128.8,32.16,128.47,32.22,128.22Z"/><path class="cls-86" d="M44.26,144l.22-.26c.34.37.2.83.24,1.25C44.3,144.82,44.45,144.35,44.26,144Z"/><path class="cls-87" d="M41.34,140.93l-.22.24a.76.76,0,0,1-.62-.51.44.44,0,0,1,.13-.47A1.75,1.75,0,0,1,41.34,140.93Z"/><path class="cls-60" d="M40.63,140.19v.52l-.14,0a.43.43,0,0,1-.29-.31l-.08-.46.27-.25Z"/><path class="cls-84" d="M36,132.8l-.21.28a1.49,1.49,0,0,1-.21-1C35.92,132.18,35.92,132.51,36,132.8Z"/><path class="cls-88" d="M38.93,146.41a1.48,1.48,0,0,0,0-.21.87.87,0,0,1,1.21,0l0,0C39.79,146.61,39.35,146.45,38.93,146.41Z"/><path class="cls-89" d="M42.79,141.89l-.28.28c-.18-.25-.39-.55-.1-.78C42.51,141.31,42.7,141.69,42.79,141.89Z"/><path class="cls-90" d="M75.42,138.56c-.26.45-.32,1.12-1.1,1-.13,0-.16,0-.18.18-.23,1.67-.61,2.16-2,2.66-.12,0-.21,0-.19.21.16,1.53-1,2-2,2.53-.43.23-.42.83-.89,1.12-.7.44-1.29,1.08-2.23.89-.08,1.19-1.23,1.07-1.89,1.55s-1.09.17-1.31-.54c-.11-.18,0-.31.09-.44a1.56,1.56,0,0,0-.74,0c.09.13.27.21.18.41-.35.6-.81,1.13-1.5.57s-2.27-.31-1.57-1.93c.15-.35,0-.59-.36-.76A2,2,0,0,1,59,142.9c.34-.4.12-.48-.07-.75-.45-.66-.06-2.67.66-3,.54-.24.39-.37.23-.78a2.76,2.76,0,0,1,1.33-2.67c.15-.07.39.07.4-.27,0-1.57,0-1.57,1.75-2.73a.28.28,0,0,0,.11-.16c-.2-1.55.63-2.19,2-2.71.33-.12.51-1.29,1.12-1.79.41-.34.7-.91,1.41-.6.27.12.46,0,.46-.34a.83.83,0,0,1,.7-.84c.18-.1.27,0,.35.14.63.12.82-.46,1.19-.74.13-.1.26-.21.44-.09s.46.35.61.06.09-.82.67-.81c.75,0,1.51,0,2.26.07a.33.33,0,0,1,.23.23c.12,1.05.75,1,1.54.79.12,0,.29.1.43.16s0,.29,0,.44c.11.42,0,.93.62,1.08.1-.1.21-.18.35-.09s.21.25.18.3c-.81,1.32.34,2.66,0,4-.14.47,0,1.1-.74,1.2-.19,0-.19.11-.15.32.37,1.86.13,2.41-1.4,3.31a.72.72,0,0,1,0,.64c-.16.3-.41.57-.55.88s.16,0,.21.09S75.53,138.37,75.42,138.56Z"/><path class="cls-91" d="M75.4,137.06l.25-.44c1.1.79.13,1.32-.23,1.94l-.21-.25C74.84,137.83,75.68,137.53,75.4,137.06Z"/><path class="cls-92" d="M71.1,125.58l-.26.26c-.5.18-.79.81-1.44.65l-.28-.22C69.72,125.85,70.18,125.07,71.1,125.58Z"/><path class="cls-92" d="M77.8,127.51l-.26.28a1.73,1.73,0,0,1-.93-1.48l.23-.23A3.65,3.65,0,0,1,77.8,127.51Z"/><path class="cls-93" d="M64.15,147.69l-.53.49-.47-.07c-.22-.35-.74-.06-.93-.46A3.18,3.18,0,0,1,64.15,147.69Z"/><path class="cls-94" d="M39.59,107.43c.3-.77.61-1.08,1.17-1a.29.29,0,0,1,.27.34C40.8,107.35,40.23,107.17,39.59,107.43Z"/><path class="cls-95" d="M35.14,107.09c.29.13.55.35.91.24l0,.53c-.3-.34-.87-.12-1.14-.54C34.81,107.07,34.9,107,35.14,107.09Z"/><path class="cls-96" d="M35.14,107.09l-.25.23c-.28-.18-.59-.48-.26-.72S35,106.93,35.14,107.09Z"/><path class="cls-97" d="M34.84,110l.2,0v1A1.2,1.2,0,0,1,34.84,110Z"/><path class="cls-98" d="M74.71,98.12c.73.45,1.65.22,1.61,1.22,0,.29.58.56.12.76a.78.78,0,0,1-1.09-.43C75.18,99.23,75,98.8,74.71,98.12Z"/><path class="cls-99" d="M69.3,105.82c.44.33.45.64.26,1,0,0-.16,0-.2,0C69,106.54,69.11,106.21,69.3,105.82Z"/><path class="cls-100" d="M42.5,138.78c0-.71-.09-1.42-.09-2.14,0-.5.38-.54.75-.49.59.07,1.18.17,1.76.26-.15.56.59,1.71-.92,1.37-.19,0-.21.16-.2.33C43.87,139.3,43.24,139.15,42.5,138.78Z"/><path class="cls-64" d="M46.88,139.22c.4.07,1-.2,1.08.39,0,.36.71,1.11-.43,1.22-.25,0,.1,1-.65,1.16-.18,0-.44.29-.51.09a8,8,0,0,1-.68-2.43C45.67,139.05,46.46,139.36,46.88,139.22Z"/><path class="cls-101" d="M40.52,135.41c-.42-.1-.89,0-.84-.46a14.16,14.16,0,0,1,.43-2.41c.08-.33.53-.3.68-.06.39.57,1.55.15,1.51,1.2a2.71,2.71,0,0,1-.2.67C41,133.78,41.36,135.7,40.52,135.41Z"/><path class="cls-100" d="M37.56,131.07c-.17-1,1-1.42.87-2.44,0-.31.77-.31,1.1,0a3.86,3.86,0,0,0,1.27.86c-.28.38-.62,1.1-.82,1.07C39.07,130.41,38.49,131.63,37.56,131.07Z"/><path class="cls-102" d="M30,125.59a4.83,4.83,0,0,1,.48-2.42c.91.3,1.15,1.06.69,2.11-.15,0-.16-.62-.39-.17a6.19,6.19,0,0,0-.34,1.47C30,126.38,30.14,125.93,30,125.59Z"/><path class="cls-62" d="M34.13,129.15c.62,1,.54,1.7-.23,2.19,0-.16,0-.43,0-.45-1.1-.29-.35-.76-.12-1.17C33.85,129.52,34,129.34,34.13,129.15Z"/><path class="cls-103" d="M33.39,128.21c-1.09-.93-.43-1.57.48-2.37v1.4C33.77,127.59,33.9,128.06,33.39,128.21Z"/><path class="cls-104" d="M33.92,128.21c.06.91-.68,1.44-1,2.17-.07.12-.14.11-.22,0-.08-.89.51-1.49.93-2.16A.24.24,0,0,1,33.92,128.21Z"/><path class="cls-105" d="M33.22,133.5c-.06.21.08.47-.17.66a2.43,2.43,0,0,1-.86-1.36c-.07-.26.05-.33.29-.28A1.48,1.48,0,0,1,33.22,133.5Z"/><path class="cls-106" d="M31.89,131.16a2,2,0,0,1-.55-1.93A1.42,1.42,0,0,1,31.89,131.16Z"/><path class="cls-107" d="M32.7,130.38h.22l.16,2C32.07,131.83,32.48,131.09,32.7,130.38Z"/><path class="cls-108" d="M33.92,128.21h-.53l.48-1C34,127.56,34.36,127.87,33.92,128.21Z"/><path class="cls-109" d="M32.48,132.52l-.29.28a1.44,1.44,0,0,1-.46-1Z"/><path class="cls-110" d="M36.54,125.59a1.37,1.37,0,0,0,.66-.7c.15-.35.35-1,1-.76.12.49.75.49.89.88s.86.55.48.88-.65,1.26-1.36.4c-.16-.21-.27-.11-.33,0-.18.51-.43.48-.89.3S36.47,126,36.54,125.59Z"/><path class="cls-111" d="M31.25,133.26c-1.17,0-1.68-.64-1.86-1.69-.07-.4.19-.34.43-.3A1.9,1.9,0,0,1,31.25,133.26Z"/><path class="cls-112" d="M31.23,136.39c0-.41-1.09-.86,0-1.24.33.12.65.25,1,.36.66.22.11.91.49,1.23-.31.24-.6.06-.88-.05Z"/><path class="cls-113" d="M35.82,138.76c.61.59,1.46,1.05,1.13,2.14a7.69,7.69,0,0,1-2.1-2.37Z"/><path class="cls-114" d="M37.26,143.36h-.74a2.47,2.47,0,0,1-1.71-1c.64-.89,1.45-.4,2.21-.26C36.64,142.62,37.33,142.91,37.26,143.36Z"/><path class="cls-64" d="M36.53,144.32c0-.71.75-.35,1-.69.72-.2,1.26.26,1.87.47.08.05.11.09.09.13s-.06.07-.09.07l-1.2.28Z"/><path class="cls-115" d="M34.65,140c0,.31-.31.27-.52.3a7.38,7.38,0,0,1-.85-.4,1,1,0,0,1-.6-1c0-.22.2-.24.35-.19.39.12.94-.07,1.11.48A1.17,1.17,0,0,0,34.65,140Z"/><path class="cls-116" d="M39.41,144.3v-.2h.41a8,8,0,0,1,2.42,1.17c.07.19.24.43.18.55-.16.31-.4.06-.58,0C41,145.3,40.22,144.79,39.41,144.3Z"/><path class="cls-117" d="M37,141.64c-1-.15-2.08.17-2.91-1h1.72l1.18.78c.07,0,.1.08.08.13S37,141.64,37,141.64Z"/><path class="cls-118" d="M38,141.88a1.86,1.86,0,0,1,1.61,1.68c-.87-.24-1.25-1-1.84-1.45C37.69,141.9,37.74,141.79,38,141.88Z"/><path class="cls-119" d="M38,141.88l-.23.23-.73-.26a.75.75,0,0,0,0-.21.45.45,0,0,0,0-.2Z"/><path class="cls-50" d="M40.15,146.23l-1.21,0c-.18-.22-.45-.2-.69-.25-.22-.33-.83-.34-.75-.92a8.4,8.4,0,0,1,2.35.06C39.34,145.62,40.31,145.78,40.15,146.23Z"/><path class="cls-120" d="M40.62,140.71l.5.46c.23.33.33.75.71,1,.3,1.54-.92.25-1.21.66l0-.47a1.43,1.43,0,0,1,0-1.62Z"/><path class="cls-121" d="M40.63,140.71c0,.54,0,1.08,0,1.62-.87-.47-.23-1.26-.4-1.88Z"/><path class="cls-25" d="M67.93,143.8a5.64,5.64,0,0,0-1.83,1.31,5.22,5.22,0,0,1-3.73.84c-.65-.27-.76-.71-.88-1.36a8.31,8.31,0,0,1,.53-4.82c.62-1.35.78-3,1.92-4.14a2.32,2.32,0,0,0,.88-1.77c0-.59.67-.19.85-.6.77-1.74,2.61-2.6,3.56-4.22.23-.41,1-.07,1.43-.5a3.65,3.65,0,0,1,3.14-1c.79.1,1.91,1.52,1.61,2.24a4.29,4.29,0,0,0-.12,2.67c0,.19.17.23-.06.41a2.61,2.61,0,0,0-1,2.69c.11.58-.5.3-.48.63-.59,1.55-1,3.18-2.63,4.1-.5.47-.51,1.32-1.23,1.63A3.49,3.49,0,0,1,67.93,143.8Z"/><path class="cls-122" d="M71.1,140.23c1.39-1,1.46-2.92,2.63-4.1l.21.24c.06.76-.74,1.22-.68,2l-.72.9c-.43.38-.53,1.09-1.21,1.21Z"/><path class="cls-123" d="M76,136a4.81,4.81,0,0,1,.88-2.28A2.84,2.84,0,0,1,76,136Z"/><path class="cls-124" d="M67.93,143.8c.72-.57,1.12-1.46,1.94-1.94l0,.31c0,.67-.75.81-.91,1.36A1.45,1.45,0,0,1,67.93,143.8Z"/><path class="cls-125" d="M64.32,148.26a3.39,3.39,0,0,1,1.85-.87A2.69,2.69,0,0,1,64.32,148.26Z"/><path class="cls-126" d="M67.48,128.45l-1.34,1.11a2.85,2.85,0,0,1,1.56-1.8C68,128.11,67.77,128.29,67.48,128.45Z"/><path class="cls-127" d="M76.61,126.31l.93,1.48c0,.17,0,.64-.16.47C77,127.7,76.28,127.18,76.61,126.31Z"/><path class="cls-128" d="M69.4,126.49c.5-.19.84-.69,1.44-.65-.38.72-1.11.93-1.75,1.32C68.86,126.72,69.28,126.68,69.4,126.49Z"/><path class="cls-129" d="M73.26,138.35c-.35-.86.44-1.32.68-2C74.4,137.26,73.5,137.7,73.26,138.35Z"/><path class="cls-130" d="M75.4,137.06c.54.51-.2.82-.19,1.25-.19.24-.25.59-.7.68A5.43,5.43,0,0,1,75.4,137.06Z"/><path class="cls-131" d="M60.06,141.79a1.77,1.77,0,0,1-.13,2A3,3,0,0,1,60.06,141.79Z"/><path class="cls-132" d="M61.87,135a4.64,4.64,0,0,1,1.19-2.17A3.62,3.62,0,0,1,61.87,135Z"/><path class="cls-25" d="M62.3,148.37a3.11,3.11,0,0,1-2.2-1.19A5.37,5.37,0,0,1,62.3,148.37Z"/><path class="cls-133" d="M65,130.35a2.93,2.93,0,0,1-1,1.75C63.89,131.15,64.59,130.83,65,130.35Z"/><path class="cls-130" d="M71.33,140.46c.45-.35.6-1,1.21-1.21a4,4,0,0,1-1.26,1.86C71,140.82,71.32,140.67,71.33,140.46Z"/><path class="cls-134" d="M65,132.85l1.18-1.53.26.19-1.17,1.54Z"/><path class="cls-135" d="M62.84,135.15l-.93,1.78C61.88,136.06,61.88,136.06,62.84,135.15Z"/><path class="cls-136" d="M74.57,136.92l.83-1.84A1.88,1.88,0,0,1,74.57,136.92Z"/><path class="cls-137" d="M68.5,129.5a3.93,3.93,0,0,1-1.24,1.05Z"/><path class="cls-25" d="M75.74,131.89a2.93,2.93,0,0,1,.21-2A2.7,2.7,0,0,1,75.74,131.89Z"/><path class="cls-138" d="M59.34,145.44c-.44-.67-.16-1.4-.24-2.16.52.27.43.68.42,1.05C59.33,144.68,59.59,145.1,59.34,145.44Z"/><path class="cls-25" d="M72.32,125.5c.66,0,1.31-.56,2.26,0Z"/><path class="cls-139" d="M76,127.15l-2-1A2.06,2.06,0,0,1,76,127.15Z"/><path class="cls-140" d="M69,143.53c-.06-.69.7-.84.91-1.36l.51-.24A3.93,3.93,0,0,1,69,143.53Z"/><path class="cls-141" d="M63.72,146.6l1.71-.77A1.67,1.67,0,0,1,63.72,146.6Z"/><path class="cls-142" d="M72.51,141.65l1.25-1.79a3.57,3.57,0,0,1-1,2Z"/><path class="cls-143" d="M76,133.75a2,2,0,0,1,.43-1.59A2,2,0,0,1,76,133.75Z"/><path class="cls-144" d="M72.8,140l1-1.56.25.14C73.7,139.09,73.48,139.67,72.8,140Z"/><path class="cls-25" d="M59.18,141.55c.25-.61,0-1.31.67-2.17l-.36,2.23Z"/><path class="cls-145" d="M71.37,127.37a2.43,2.43,0,0,1-1.5.93A2.63,2.63,0,0,1,71.37,127.37Z"/><path class="cls-146" d="M69.19,145.58l-1.39,1.11C67.93,146,68.53,145.73,69.19,145.58Z"/><path class="cls-147" d="M65.66,146.83c.36-.53,1-.59,1.6-1.17C66.71,146.59,66.71,146.59,65.66,146.83Z"/><path class="cls-148" d="M75.07,127.43a1.35,1.35,0,0,1,.84,1.43Z"/><path class="cls-149" d="M63.26,135.46l.88-1.41A1.38,1.38,0,0,1,63.26,135.46Z"/><path class="cls-150" d="M77.55,131.32c0,.37.14.79-.36,1.09a1.47,1.47,0,0,1,.11-1.34C77.45,131.08,77.46,131.24,77.55,131.32Z"/><path class="cls-151" d="M62.79,146.79a1.88,1.88,0,0,1-1.37-.65A2,2,0,0,1,62.79,146.79Z"/><path class="cls-152" d="M67.06,129.67c-.45.54-.7,1-1.3,1.08A2.1,2.1,0,0,1,67.06,129.67Z"/><path class="cls-153" d="M66.45,145.6a3.28,3.28,0,0,1,1.3-1.23C67.56,145,67.18,145.25,66.45,145.6Z"/><path class="cls-154" d="M74.35,126.87a2.4,2.4,0,0,1-1.79,0Z"/><path class="cls-148" d="M64.15,147.69l-1.93,0a3,3,0,0,1,2-.15s0,.07,0,.09A.33.33,0,0,1,64.15,147.69Z"/><path class="cls-155" d="M60.4,145.35l.68,1.37C60.39,146.33,60.24,145.9,60.4,145.35Z"/><path class="cls-156" d="M60.58,137.66a1.59,1.59,0,0,1,.54-1.39A1.82,1.82,0,0,1,60.58,137.66Z"/><path class="cls-157" d="M76.69,130.68a5.3,5.3,0,0,1,.06-2.31A4.41,4.41,0,0,1,76.69,130.68Z"/><path class="cls-158" d="M67.48,128.45c.11-.22.31-.41.22-.69l.53.47c.13.17,0,.33,0,.49C67.78,129.18,67.75,128.49,67.48,128.45Z"/><path class="cls-159" d="M60.92,144.79a2.34,2.34,0,0,1-.05-1.62A2.59,2.59,0,0,1,60.92,144.79Z"/><path class="cls-160" d="M63.78,133.39c0-.51.33-.77.77-1.08C64.53,132.92,64.09,133.12,63.78,133.39Z"/><path class="cls-161" d="M68.64,144.73a2.2,2.2,0,0,1,1.26-.93C69.51,144.3,69.31,144.69,68.64,144.73Z"/><path class="cls-162" d="M72,141.13a1.47,1.47,0,0,1-.8,1.1C71.25,141.79,71.57,141.53,72,141.13Z"/><path class="cls-147" d="M72.19,126.2a1.93,1.93,0,0,1-1.22.5C71.18,126.24,71.55,126.26,72.19,126.2Z"/><path class="cls-163" d="M61.48,140.41c0,.14,0,.34-.19.33s-.24-.17-.25-.33,0-.32.23-.33S61.47,140.26,61.48,140.41Z"/><path class="cls-164" d="M61,141.82a.49.49,0,0,1-.16-.21c0-.15,0-.31.19-.32s.18.11.2.19S61.23,141.78,61,141.82Z"/><path class="cls-165" d="M74.78,135.05c-.15-.26-.16-.6,0-.65.44-.13.26.2.18.38A1.24,1.24,0,0,1,74.78,135.05Z"/><path class="cls-166" d="M61.15,138.22c.17.24.17.56,0,.63-.43.14-.27-.18-.19-.37A1.05,1.05,0,0,1,61.15,138.22Z"/><path class="cls-167" d="M68.22,128.72c-.31-.16,0-.32,0-.49l.63-.29C68.76,128.4,68.44,128.53,68.22,128.72Z"/><path class="cls-25" d="M59.34,145.44c0-.38-.13-.78.18-1.11C59.51,144.71,59.78,145.13,59.34,145.44Z"/><path class="cls-25" d="M77.55,131.32l-.25-.25c0-.26-.07-.56.18-.78C77.69,130.63,77.54,131,77.55,131.32Z"/><path class="cls-138" d="M62.06,138.46a.65.65,0,0,1,.24-.81C62.44,138,62.25,138.19,62.06,138.46Z"/></svg>