<svg id="Layer_1" data-name="Layer 1" xmlns="http://www.w3.org/2000/svg" xmlns:xlink="http://www.w3.org/1999/xlink" viewBox="0 0 867.72 377.87"><defs><style>.cls-1{fill:none;}.cls-2{fill:#fcaf17;}.cls-3{fill:#5e5e5e;}.cls-4{clip-path:url(#clip-path);}.cls-5{fill:#ffcb27;}.cls-6{fill:#ea1313;}</style><clipPath id="clip-path"><rect class="cls-1" width="867.72" height="377.87"/></clipPath></defs><title>bjs_app</title><path class="cls-2" d="M413,122.7a21.87,21.87,0,0,1,4.7,13.79q0,11.19-7.82,17.74t-21.8,6.55H346.47V71.52h40.19q13.6,0,21.3,6.23t7.69,16.91q0,7.89-4.13,13.1a21.41,21.41,0,0,1-11,7.24A20.8,20.8,0,0,1,413,122.7Zm-44.76-15.07h14.24q5.34,0,8.2-2.35t2.86-6.93q0-4.59-2.86-7t-8.2-2.41H368.22Zm24.48,33.12a8.79,8.79,0,0,0,3-7.18,9.2,9.2,0,0,0-3.12-7.38q-3.12-2.67-8.58-2.67H368.22v19.71h16C387.88,143.23,390.7,142.41,392.7,140.75Z"/><path class="cls-2" d="M496.78,130.52H447.57q.49,6.61,4.26,10.11a13,13,0,0,0,9.21,3.49q8.15,0,11.32-6.86h23.15a31.76,31.76,0,0,1-6.43,12.59,32.12,32.12,0,0,1-11.63,8.77,37.37,37.37,0,0,1-15.64,3.18,38.06,38.06,0,0,1-18.57-4.45,31.69,31.69,0,0,1-12.71-12.72A39.16,39.16,0,0,1,426,125.3,39.68,39.68,0,0,1,430.46,106a31.27,31.27,0,0,1,12.66-12.72,41.22,41.22,0,0,1,37-.13,31.11,31.11,0,0,1,12.52,12.34,37.43,37.43,0,0,1,4.52,18.69A56.67,56.67,0,0,1,496.78,130.52Zm-21.87-12.08a11.19,11.19,0,0,0-3.82-8.9,14,14,0,0,0-9.54-3.31,13.78,13.78,0,0,0-9.22,3.18,14.16,14.16,0,0,0-4.64,9Z"/><path class="cls-2" d="M539.88,92.43a24.69,24.69,0,0,1,12.72-3.37v23h-6q-8.13,0-12.2,3.5t-4.07,12.27v32.93H508.6V89.83h21.75v11.82A28.71,28.71,0,0,1,539.88,92.43Z"/><path class="cls-2" d="M584.77,169.94q0,13.09-6.61,18.88t-18.44,5.79H551.2V176.17h5.21c2.38,0,4.07-.47,5.09-1.4s1.53-2.46,1.53-4.58V89.83h21.74ZM564.49,79.08a10.9,10.9,0,0,1-3.63-8.33,11,11,0,0,1,3.63-8.45,13.15,13.15,0,0,1,9.34-3.37,13,13,0,0,1,9.22,3.37,11,11,0,0,1,3.63,8.45,10.9,10.9,0,0,1-3.63,8.33,13,13,0,0,1-9.22,3.37A13.15,13.15,0,0,1,564.49,79.08Z"/><path class="cls-2" d="M600.22,106a30.8,30.8,0,0,1,11.25-12.72,29.38,29.38,0,0,1,15.9-4.45,27.35,27.35,0,0,1,13.16,3,22.55,22.55,0,0,1,8.71,8v-10H671v71H649.24v-10a23.6,23.6,0,0,1-8.84,8,27.35,27.35,0,0,1-13.16,3.05,28.87,28.87,0,0,1-15.77-4.51,31.17,31.17,0,0,1-11.25-12.85,42.72,42.72,0,0,1-4.13-19.26A42.34,42.34,0,0,1,600.22,106Zm44.51,6.48a15.29,15.29,0,0,0-22-.06q-4.51,4.63-4.52,12.78c0,5.42,1.51,9.73,4.52,12.9a15.14,15.14,0,0,0,22,.07q4.5-4.71,4.51-12.85T644.73,112.46Z"/><path class="cls-2" d="M699.08,158.62a28.23,28.23,0,0,1-11.44-8.71,22.82,22.82,0,0,1-4.7-12.4h21.49a8.24,8.24,0,0,0,3.43,6,12.16,12.16,0,0,0,7.5,2.29,10.74,10.74,0,0,0,6.3-1.59,4.88,4.88,0,0,0,2.22-4.14,4.77,4.77,0,0,0-3.18-4.51,65.05,65.05,0,0,0-10.3-3.24,98,98,0,0,1-12.71-3.75,22,22,0,0,1-8.78-6.23q-3.69-4.26-3.69-11.51a19.6,19.6,0,0,1,3.37-11.13,22.81,22.81,0,0,1,9.92-8,38.17,38.17,0,0,1,15.58-2.92q13.35,0,21,6.61A25.75,25.75,0,0,1,744,113H723.88a8.67,8.67,0,0,0-3.24-5.85,11.28,11.28,0,0,0-7.19-2.16,10,10,0,0,0-5.85,1.46,4.69,4.69,0,0,0-2,4c0,2,1.08,3.56,3.24,4.57a51.76,51.76,0,0,0,10.11,3.06,110.41,110.41,0,0,1,12.85,4,22.27,22.27,0,0,1,8.71,6.36c2.5,2.92,3.79,6.85,3.87,11.76a18.66,18.66,0,0,1-3.49,11.13A23.15,23.15,0,0,1,730.81,159a38.33,38.33,0,0,1-15.19,2.8A40.84,40.84,0,0,1,699.08,158.62Z"/><path class="cls-2" d="M757.52,106a30.8,30.8,0,0,1,11.25-12.72,29.34,29.34,0,0,1,15.89-4.45,27.35,27.35,0,0,1,13.16,3,22.58,22.58,0,0,1,8.72,8v-10h21.74v71H806.54v-10a23.6,23.6,0,0,1-8.84,8,27.38,27.38,0,0,1-13.16,3.05,28.84,28.84,0,0,1-15.77-4.51,31.17,31.17,0,0,1-11.25-12.85,42.72,42.72,0,0,1-4.14-19.26A42.34,42.34,0,0,1,757.52,106Zm44.5,6.48a15.29,15.29,0,0,0-22-.06q-4.51,4.63-4.51,12.78c0,5.42,1.5,9.73,4.51,12.9a15.14,15.14,0,0,0,22,.07q4.51-4.71,4.52-12.85T802,112.46Z"/><path class="cls-3" d="M388.54,291.14l-5.3-13H358.75l-5.3,13h-13l24.82-58.34H377l24.82,58.34Zm-17.55-43L363.3,266.9h15.39Z"/><path class="cls-3" d="M454.37,278.85a22.5,22.5,0,0,1-4.47,7.2,18.19,18.19,0,0,1-6.42,4.43,19.92,19.92,0,0,1-7.61,1.49,16,16,0,0,1-8.32-2,22.31,22.31,0,0,1-5.5-4.6v19H409.47V246.79h12.58v6.31a19.94,19.94,0,0,1,5.59-5.13,15.46,15.46,0,0,1,8.23-2,19.6,19.6,0,0,1,7.53,1.49,18.62,18.62,0,0,1,6.46,4.43,22.13,22.13,0,0,1,4.51,7.2,26.38,26.38,0,0,1,1.69,9.8v.17A26.38,26.38,0,0,1,454.37,278.85Zm-10.89-10a14.33,14.33,0,0,0-.86-5,12,12,0,0,0-2.36-3.91,10.34,10.34,0,0,0-3.44-2.5,10.12,10.12,0,0,0-11.75,2.5,12.47,12.47,0,0,0-2.32,3.91,14.33,14.33,0,0,0-.86,5v.17a14.33,14.33,0,0,0,.86,5,12.47,12.47,0,0,0,2.32,3.91,10.23,10.23,0,0,0,11.75,2.5,10.34,10.34,0,0,0,3.44-2.5,12.14,12.14,0,0,0,2.36-3.87,14.2,14.2,0,0,0,.86-5.08Z"/><path class="cls-3" d="M510.22,278.85a22.32,22.32,0,0,1-4.47,7.2,18.07,18.07,0,0,1-6.41,4.43,20,20,0,0,1-7.61,1.49,15.94,15.94,0,0,1-8.32-2,22.31,22.31,0,0,1-5.5-4.6v19H465.33V246.79h12.58v6.31a19.77,19.77,0,0,1,5.58-5.13,15.5,15.5,0,0,1,8.24-2,19.6,19.6,0,0,1,7.53,1.49,18.49,18.49,0,0,1,6.45,4.43,21.8,21.8,0,0,1,4.51,7.2,26.38,26.38,0,0,1,1.7,9.8v.17A26.38,26.38,0,0,1,510.22,278.85Zm-10.88-10a14.11,14.11,0,0,0-.87-5,11.84,11.84,0,0,0-2.36-3.91,10.21,10.21,0,0,0-3.43-2.5,10.37,10.37,0,0,0-8.36,0,9.77,9.77,0,0,0-3.39,2.5,12.29,12.29,0,0,0-2.32,3.91,14.11,14.11,0,0,0-.87,5v.17a14.11,14.11,0,0,0,.87,5,12.29,12.29,0,0,0,2.32,3.91,9.77,9.77,0,0,0,3.39,2.5,10.37,10.37,0,0,0,8.36,0,10.21,10.21,0,0,0,3.43-2.5,12,12,0,0,0,2.36-3.87,14,14,0,0,0,.87-5.08Z"/><path class="cls-3" d="M521.77,291.14V230.73h12.57v60.41Z"/><path class="cls-3" d="M546.43,241.9V230.73h13.24V241.9Zm.33,49.24V246.79h12.57v44.35Z"/><path class="cls-3" d="M602.86,289.86q-4.14,2.28-10.76,2.27a23.09,23.09,0,0,1-9.22-1.82,22.5,22.5,0,0,1-7.33-4.92A22.89,22.89,0,0,1,569,269.21v-.16a23.32,23.32,0,0,1,6.53-16.31,22.29,22.29,0,0,1,7.33-5,23.72,23.72,0,0,1,9.39-1.82,24,24,0,0,1,10.43,2,23.42,23.42,0,0,1,7.28,5.46l-7.7,8.27a20.61,20.61,0,0,0-4.43-3.56,11.1,11.1,0,0,0-5.66-1.32,9.82,9.82,0,0,0-4.35.95,10.63,10.63,0,0,0-3.39,2.61,11.78,11.78,0,0,0-2.24,3.85,13.83,13.83,0,0,0-.78,4.67v.17a14.47,14.47,0,0,0,.78,4.8,11.61,11.61,0,0,0,2.28,3.89,10.74,10.74,0,0,0,3.56,2.6,10.86,10.86,0,0,0,4.63,1,11.33,11.33,0,0,0,5.51-1.28,23.12,23.12,0,0,0,4.67-3.43l7.37,7.45A28.53,28.53,0,0,1,602.86,289.86Z"/><path class="cls-3" d="M644.4,291.14v-4.8a17.43,17.43,0,0,1-5.54,4.1A18.24,18.24,0,0,1,631,292a19.67,19.67,0,0,1-5.92-.87,13.87,13.87,0,0,1-4.84-2.61,12.52,12.52,0,0,1-3.27-4.26,13.43,13.43,0,0,1-1.2-5.83v-.17a14,14,0,0,1,1.32-6.29,12.13,12.13,0,0,1,3.69-4.38A16.47,16.47,0,0,1,626.4,265a28.18,28.18,0,0,1,7.24-.87,31,31,0,0,1,5.92.5,37.13,37.13,0,0,1,4.92,1.32v-.74a7.56,7.56,0,0,0-2.39-6q-2.42-2.07-7.12-2.07a29.08,29.08,0,0,0-6.41.62,43,43,0,0,0-5.84,1.78l-3.14-9.6a49.67,49.67,0,0,1,7.61-2.57,40.24,40.24,0,0,1,9.6-1q10.34,0,15.06,5.05t4.72,14.07v25.73Zm.25-17.87a18.69,18.69,0,0,0-3.68-1.2,19.41,19.41,0,0,0-4.35-.46,11.3,11.3,0,0,0-6.37,1.57,5.19,5.19,0,0,0-2.32,4.56v.16a4.64,4.64,0,0,0,1.91,4,8.12,8.12,0,0,0,5,1.41,11.15,11.15,0,0,0,7.16-2.15,6.88,6.88,0,0,0,2.69-5.63Z"/><path class="cls-3" d="M687.93,291.18a19.71,19.71,0,0,1-5.54.71,20.8,20.8,0,0,1-5.26-.62,9.41,9.41,0,0,1-4-2.2,10.33,10.33,0,0,1-2.65-4.09,18.31,18.31,0,0,1-.95-6.42v-21h-5.3V246.79h5.3V235.45h12.57v11.34h10.43v10.75H682.05v18.95c0,2.87,1.36,4.31,4.06,4.31a12.93,12.93,0,0,0,6.21-1.57v10.09A19.92,19.92,0,0,1,687.93,291.18Z"/><path class="cls-3" d="M702,241.9V230.73h13.24V241.9Zm.33,49.24V246.79h12.58v44.35Z"/><path class="cls-3" d="M770.76,278a22.92,22.92,0,0,1-5,7.32,23.85,23.85,0,0,1-7.62,5,24.65,24.65,0,0,1-9.6,1.82,25.15,25.15,0,0,1-9.51-1.77,23.33,23.33,0,0,1-7.58-4.89,22.67,22.67,0,0,1-5-7.28,22.11,22.11,0,0,1-1.82-9v-.16a22.11,22.11,0,0,1,1.82-9,22.72,22.72,0,0,1,5.05-7.33,23.86,23.86,0,0,1,7.61-5,26.26,26.26,0,0,1,19.11,0,23.15,23.15,0,0,1,7.58,4.88,22.78,22.78,0,0,1,5,7.28,22.15,22.15,0,0,1,1.82,9v.17A22.15,22.15,0,0,1,770.76,278Zm-10.59-9a13.17,13.17,0,0,0-.83-4.68,11.76,11.76,0,0,0-6.12-6.58,11.18,11.18,0,0,0-4.72-1,11.74,11.74,0,0,0-4.84.95,10.73,10.73,0,0,0-3.6,2.61,11.34,11.34,0,0,0-2.27,3.85,13.59,13.59,0,0,0-.79,4.67v.17a13.15,13.15,0,0,0,.83,4.67,11.88,11.88,0,0,0,6.08,6.58,11.07,11.07,0,0,0,4.76,1,11.58,11.58,0,0,0,4.84-1,10.6,10.6,0,0,0,3.6-2.6,11.54,11.54,0,0,0,2.27-3.85,13.61,13.61,0,0,0,.79-4.68Z"/><path class="cls-3" d="M809.74,291.14V266.46c0-3-.66-5.22-2-6.73a7.08,7.08,0,0,0-5.62-2.27,7.5,7.5,0,0,0-5.76,2.27c-1.4,1.51-2.11,3.76-2.11,6.73v24.68H781.69V246.79h12.57v6.34a27.42,27.42,0,0,1,2.36-2.71,16.33,16.33,0,0,1,2.86-2.29,13.92,13.92,0,0,1,3.47-1.59,14.64,14.64,0,0,1,4.31-.58q7.2,0,11.13,4.38t3.93,12.09v28.71Z"/><g class="cls-4"><path class="cls-5" d="M822.69,185.89H602a5.59,5.59,0,1,1,0-11.17H822.69a5.59,5.59,0,1,1,0,11.17"/></g><rect class="cls-1" width="867.72" height="377.87"/><polygon class="cls-6" points="291.48 315.84 291.48 227.12 71.53 315.84 291.48 315.84"/><polygon class="cls-2" points="48.51 164.4 271.92 72.87 48.51 72.87 48.51 164.4"/><polygon class="cls-5" points="243.4 145.22 142.45 186.29 136.97 174.6 250.46 128.43 291.48 215.92 291.48 72.87 59.86 167.77 94.57 244.46 197 204.23 202.32 215.97 87.28 261.15 48.51 175.5 48.51 315.84 279.1 221.36 243.4 145.22"/></svg>