<?xml version="1.0" encoding="utf-8"?>
<!-- Generator: Adobe Illustrator 22.1.0, SVG Export Plug-In . SVG Version: 6.00 Build 0)  -->
<svg version="1.1" xmlns="http://www.w3.org/2000/svg" xmlns:xlink="http://www.w3.org/1999/xlink" x="0px" y="0px"
	 viewBox="0 0 1409 2251" style="enable-background:new 0 0 1409 2251;" xml:space="preserve">
<style type="text/css">
	.st0{fill:url(#SVGID_1_);}
	.st1{fill:#254059;}
	.st2{fill:url(#SVGID_2_);}
	.st3{fill:#2B2B52;}
	.st4{fill:url(#SVGID_3_);}
	.st5{fill:#0A1A33;}
	.st6{fill:url(#SVGID_4_);}
	.st7{fill:url(#SVGID_5_);}
	.st8{fill:url(#SVGID_6_);}
	.st9{fill:url(#SVGID_7_);}
	.st10{fill:#FFD0C6;}
	.st11{fill:#132E4E;}
	.st12{fill:url(#SVGID_8_);}
	.st13{fill:#FFBDAF;}
	.st14{fill:url(#SVGID_9_);}
	.st15{fill:#FFFFFF;}
	.st16{fill:url(#SVGID_10_);}
	.st17{fill:#FF676C;}
	.st18{fill:#535F70;}
	.st19{fill:url(#SVGID_11_);}
	.st20{fill:#FF6066;}
	.st21{fill:#D6DBDF;}
	.st22{fill:#E9ECEE;}
	.st23{fill:url(#SVGID_12_);}
	.st24{fill:#70708B;}
	.st25{fill:url(#SVGID_13_);}
	.st26{fill:url(#SVGID_14_);}
	.st27{fill:url(#SVGID_15_);}
	.st28{fill:#B96342;}
	.st29{fill:#683D30;}
	.st30{fill:#1B3244;}
	.st31{fill:#455A73;}
	.st32{fill:#FFDAB8;}
	.st33{fill:#FFE8D4;}
	.st34{fill:#68798E;}
	.st35{fill:url(#SVGID_16_);}
	.st36{fill:url(#SVGID_17_);}
	.st37{fill:url(#SVGID_18_);}
	.st38{fill:url(#SVGID_19_);}
	.st39{fill:url(#SVGID_20_);}
	.st40{fill:url(#SVGID_21_);}
	.st41{fill:url(#SVGID_22_);}
	.st42{fill:url(#SVGID_23_);}
	.st43{fill:url(#SVGID_24_);}
	.st44{fill:url(#SVGID_25_);}
	.st45{fill:url(#SVGID_26_);}
	.st46{fill:#F9977F;}
	.st47{fill:url(#SVGID_27_);}
	.st48{fill:url(#SVGID_28_);}
	.st49{fill:#475366;}
	.st50{fill:url(#SVGID_29_);}
	.st51{fill:url(#SVGID_30_);}
	.st52{fill:url(#SVGID_31_);}
	.st53{fill:#5C6F85;}
</style>
<g id="Background">
</g>
<g id="Objects">
	<g id="Business_People">
		<g id="Office_Staff_5_">
			<g>
				<linearGradient id="SVGID_1_" gradientUnits="userSpaceOnUse" x1="951.4102" y1="1724.5985" x2="1403.2838" y2="1594.1609">
					<stop  offset="0" style="stop-color:#FFD0C6"/>
					<stop  offset="0.8214" style="stop-color:#FF6066"/>
				</linearGradient>
				<path class="st0" d="M980.4,1344.9c0,0,24.8,173.4,25.9,207.6c1.2,34.2,17.7,64.9,17.7,83.7c0,18.9,8.3,112,21.2,176.9
					s23.6,97.9,5.9,128.5c-17.7,30.7-11.8,56.6-35.4,63.7c-23.6,7.1-59,17.7-54.2,36.6c4.7,18.9,100.2,5.9,100.2,5.9
					s38.9-86.1,54.2-73.1c15.3,13,7.1,69.6,7.1,69.6l11.8-1.2l20-87.3c0,0,14.2-16.5-20-47.2s-24.8-163.9-23.6-244.1
					c1.2-80.2-37.7-159.2-16.5-238.2S980.4,1344.9,980.4,1344.9z"/>
				<path class="st1" d="M1115.4,1929.6c-6.3,9-11.8,17.2-18.1,27.1c-14.5,19.9-20.8,41.6-41.6,56.1c-7.2,5.4-18.1,4.5-27.1,1.8
					c-8.4-3-16.8-4.6-25.3-5.6c-21.7,7-45.6,17-41.7,32.7c4.7,18.9,100.2,5.9,100.2,5.9s38.9-86.1,54.2-73.1
					c15.3,13,7.1,69.6,7.1,69.6l11.8-1.2l20-87.3c0,0,13.8-16-18.6-45.9C1128.4,1914.6,1121.3,1921.2,1115.4,1929.6z"/>
				<linearGradient id="SVGID_2_" gradientUnits="userSpaceOnUse" x1="1100.0895" y1="1656.5475" x2="1198.8439" y2="925.2977">
					<stop  offset="0" style="stop-color:#FFD0C6"/>
					<stop  offset="0.8214" style="stop-color:#FF6066"/>
				</linearGradient>
				<path class="st2" d="M1080.7,1334.4c0,0-32.9,183.4-28.2,223.4s10.6,70.5,10.6,97.6s-4.7,55.3-4.7,101.1
					c0,45.8,16.5,72.9,10.6,128.1c-5.9,55.3-23.5,85.8-23.5,109.3c0,23.5-24.7,71.7,3.5,92.9c0,0,55.3,16.5,64.7-42.3
					s-10.6-94.1-1.2-142.3c9.4-48.2,52.9-151.7,42.3-238.7s-14.1-115.2-1.2-165.8c12.9-50.6,52.9-157.5,52.9-157.5L1080.7,1334.4z"
					/>
				<path class="st1" d="M1056.9,2055.7c-12-4.2-17.1-14.7-18-26.7c-4.6,21.5-7.4,44.8,10,57.8c0,0,55.3,16.5,64.7-42.3
					c2.8-17.2,3-32.4,2.2-46.5c-2.7,8.9-5.3,18.1-7.5,27.9C1103.8,2047.6,1079.4,2062,1056.9,2055.7z"/>
			</g>
			<path class="st3" d="M968.5,1004.7c0,0-33.2,90.9-25.4,167.1c7.8,76.2,27.4,176.9,24.4,222.8c-2.9,45.9-3.9,116.3-3.9,116.3
				s194.5,32.3,212.1,22.5c0,0,4.9-124.1,43-209.2c38.1-85,37.1-185.7-2-283.4L1204,995L968.5,1004.7z"/>
			<path class="st3" d="M1051.6,659.4c0,0-48.9,20.2-91.2,18.9c0,0,0,63.2-9.1,106.2c-9.1,43,11.1,109.5,6.5,149.9
				c-4.6,40.4-26.7,171.4-26.7,171.4s123.1,16.3,127.7,13.7c4.6-2.6,163.5,2.6,185-5.2c0,0-5.9-104.9-24.1-172
				c-18.2-67.1,82.3-264.1,82.3-264.1l-2.1-5.5c-2.1-5.4-6.7-9.5-12.3-10.8c-19.7-4.8-66.9-16.6-93.3-25.2L1051.6,659.4z"/>
			<path class="st3" d="M869.8,946.1c0.7-4.6,3.9-48.2,3.9-67.1c0-18.9,30-63.9,35.2-86c5.2-22.2,38.4-110.1,51.5-114.7
				c13-4.6,15,156.4,13.7,160.3c-1.3,3.9-45,88.6-53.4,95.8C912.1,941.5,869.8,946.1,869.8,946.1z"/>
			<g>
				<linearGradient id="SVGID_3_" gradientUnits="userSpaceOnUse" x1="1124.813" y1="624.4919" x2="1149.9865" y2="539.4613">
					<stop  offset="0" style="stop-color:#FFD0C6"/>
					<stop  offset="0.8214" style="stop-color:#FF6066"/>
				</linearGradient>
				<path class="st4" d="M1185.7,542.2c0,0-18.9,74.5-2,87.4c1,0.8,1.7,1.7,2.1,2.6c5,11.6-32.8,36-55.7,54.4
					c-20.7,16.6-48.1,43.3-74.1,86.7c0.2-37.7,0.4-75.3,0.6-113c5.8-6.8,14.3-18.5,19.5-35.1c7.9-25.5,3-47.3,0.4-56.5L1185.7,542.2
					z"/>
				<g>
					<path class="st5" d="M1023.2,458.3l-27-27.5c0,0-19.7-73.6-16.3-104c7.9-70.1,96-93.1,141.8-96.3c13.4-1,68.7-4.9,108,32.8
						c2.5,2.4,14.6,14.2,24.1,33.8c21.2,43.8,17.7,102.1-7.3,138.9C1207.9,492.9,1108.2,512.5,1023.2,458.3z"/>
					<g>
						
							<linearGradient id="SVGID_4_" gradientUnits="userSpaceOnUse" x1="106.8326" y1="853.7626" x2="53.7934" y2="904.3633" gradientTransform="matrix(0.9936 -0.1128 0.1128 0.9936 1058.5865 -398.0454)">
							<stop  offset="0" style="stop-color:#FFD0C6"/>
							<stop  offset="0.8214" style="stop-color:#FF6066"/>
						</linearGradient>
						<path class="st6" d="M1238.7,416.2c1.4-2,15.7-8.7,28.9-5.3c7.6,1.9,14.9,7.1,19.1,18.5c8.9,24.1-11,46-32.8,51.1
							c-6.3,1.5-12.8,1.5-18.8-0.2L1238.7,416.2z"/>
						
							<linearGradient id="SVGID_5_" gradientUnits="userSpaceOnUse" x1="117.5403" y1="816.8195" x2="70.0931" y2="923.5758" gradientTransform="matrix(0.9936 -0.1128 0.1128 0.9936 1058.5865 -398.0454)">
							<stop  offset="0" style="stop-color:#FFBDAF"/>
							<stop  offset="0.8214" style="stop-color:#FF6066"/>
						</linearGradient>
						<path class="st7" d="M1241.2,431.2c7.5-9.9,34.2-7.7,32.6,5.2s-11.2,4.4-18.7,5.2c-7.5,0.8-10.7,14.6-6.5,18.6
							c4.2,4,14,2.5,10.1,7.4c-3.9,4.9-11.8,17.2-18.4,1.1C1233.7,452.7,1235,439.5,1241.2,431.2z"/>
					</g>
					<g>
						
							<linearGradient id="SVGID_6_" gradientUnits="userSpaceOnUse" x1="-152.3859" y1="840.9863" x2="-123.5476" y2="874.0542" gradientTransform="matrix(0.9936 -0.1128 0.1128 0.9936 1058.5865 -398.0454)">
							<stop  offset="0" style="stop-color:#FFD0C6"/>
							<stop  offset="0.8214" style="stop-color:#FF6066"/>
						</linearGradient>
						<path class="st8" d="M1011.5,428.3c-1.5-1.4-14.5-4.1-24.7,1.1c-5.9,3-10.9,8.7-12.2,18.8c-2.8,21.4,17.7,35.6,36.6,35.7
							c5.5,0,10.8-1.2,15.4-3.7L1011.5,428.3z"/>
						
							<linearGradient id="SVGID_7_" gradientUnits="userSpaceOnUse" x1="-163.583" y1="811.4809" x2="-136.2829" y2="869.2311" gradientTransform="matrix(0.9936 -0.1128 0.1128 0.9936 1058.5865 -398.0454)">
							<stop  offset="0" style="stop-color:#FFBDAF"/>
							<stop  offset="0.8214" style="stop-color:#FF6066"/>
						</linearGradient>
						<path class="st9" d="M1012.2,441.1c-8-6.7-29.5,0.2-25.7,10.4c3.8,10.3,10,1.5,16.3,0.8c6.3-0.7,11.5,10,8.8,14s-11,4.7-6.9,8
							c4.1,3.3,12.9,11.8,15.3-2.6C1022.4,457.3,1018.9,446.7,1012.2,441.1z"/>
					</g>
					<path class="st10" d="M1242.4,358.4c4.8,24.1,22.2,125.8-39.6,197.8c-12.6,14.7-45.7,53.2-88.2,49.4
						c-37.5-3.3-61.5-37.7-71.9-52.7c-51.2-73.5-40.1-182.3-40.1-182.3c1.4-10.6,4.7-21.9,11.6-32.4c32.3-49,126.6-55.6,187-18.3
						C1221,331.9,1234.1,346.9,1242.4,358.4z"/>
					<g>
						<path class="st11" d="M1082.1,410.4c-0.8,0-1.7-0.3-2.4-0.8c-10.5-7.8-39.2-21.1-55.8-9.4c-1.8,1.3-4.3,0.8-5.6-1
							c-1.3-1.8-0.8-4.3,1-5.6c9.2-6.5,21.9-7.8,36.7-3.8c12,3.2,22.9,9.2,28.5,13.4c1.8,1.3,2.1,3.8,0.8,5.6
							C1084.5,409.9,1083.3,410.4,1082.1,410.4z"/>
					</g>
					<g>
						
							<radialGradient id="SVGID_8_" cx="8605.3545" cy="880.9139" r="32.0199" gradientTransform="matrix(-0.9936 0.1128 0.1128 0.9936 9653.4932 -1374.6855)" gradientUnits="userSpaceOnUse">
							<stop  offset="0" style="stop-color:#FF8084"/>
							<stop  offset="0.3246" style="stop-color:#FFA19F"/>
							<stop  offset="0.6947" style="stop-color:#FFCBC0"/>
							<stop  offset="0.998" style="stop-color:#FFD0C6"/>
						</radialGradient>
						<circle class="st12" cx="1202.6" cy="471.3" r="27.1"/>
						<path class="st13" d="M1196.7,468.6c0.3,2.9,3,5,5.9,4.7s5-3,4.7-5.9c-0.3-2.9-3-5-5.9-4.7
							C1198.5,463,1196.4,465.7,1196.7,468.6z"/>
					</g>
					<g>
						
							<radialGradient id="SVGID_9_" cx="8772.6377" cy="870.1829" r="27.8349" gradientTransform="matrix(-0.9936 0.1128 0.1128 0.9936 9653.4932 -1374.6855)" gradientUnits="userSpaceOnUse">
							<stop  offset="0" style="stop-color:#FF8084"/>
							<stop  offset="0.3246" style="stop-color:#FFA19F"/>
							<stop  offset="0.6947" style="stop-color:#FFCBC0"/>
							<stop  offset="0.998" style="stop-color:#FFD0C6"/>
						</radialGradient>
						<circle class="st14" cx="1035.2" cy="479.5" r="23.6"/>
						<path class="st13" d="M1030.1,477.1c0.3,2.5,2.6,4.3,5.1,4.1c2.5-0.3,4.3-2.6,4.1-5.1c-0.3-2.5-2.6-4.3-5.1-4.1
							S1029.8,474.6,1030.1,477.1z"/>
					</g>
					<g>
						<path class="st15" d="M1035.6,445.2c1.4,12.2,11.6,22,23.5,20.7c11.9-1.4,19.9-12.4,18.5-24.5c-1.4-12.2-11.6-19.8-23.5-18.5
							C1042.1,424.2,1034.2,433,1035.6,445.2z"/>
						<path class="st5" d="M1042.5,447.4c1,8.6,8.2,14.9,16.2,14c8-0.9,13.6-8.6,12.7-17.3s-8.2-14.9-16.2-14
							C1047.2,431.1,1041.5,438.8,1042.5,447.4z"/>
						<path class="st15" d="M1055.3,440.1c0.4,3.2,3.6,5.4,7.2,5c3.6-0.4,6.3-3.3,5.9-6.5c-0.4-3.2-3.6-5.4-7.2-5
							C1057.6,434,1054.9,436.9,1055.3,440.1z"/>
						<path class="st5" d="M1076.2,435.5c-2.7-5.6-7.8-9.5-13.8-11c-6.5-1.6-14.8-0.1-20.3,4c-3.5,2.6-5.9,6.6-6.4,11.2
							c-0.4-4.6,1.8-9.3,5.4-12.4c1.8-1.6,4-2.6,6.1-3.5c2.2-0.8,4.5-1.3,6.8-1.5c4.6-0.5,9.6,0.1,13.7,2.5
							C1071.9,427.1,1075,431.1,1076.2,435.5z"/>
						<g>
							<path class="st5" d="M1042.9,426c0,0-12.9,4.9-16.5-1.9c0,0,3.3,12.1,12.4,6.9C1041.8,429.3,1042.9,426,1042.9,426z"/>
							<path class="st5" d="M1037.4,431.1c0,0-6.6,4.9-9.6,1.4c0,0,3.4,6.3,8.2,2.2C1038.8,432.3,1037.4,431.1,1037.4,431.1z"/>
						</g>
					</g>
					<g>
						<path class="st15" d="M1153.3,444.2c1.4,12.2,11.5,22,23.4,20.7c11.9-1.4,19.8-12.4,18.4-24.5c-1.4-12.2-11.5-19.8-23.4-18.5
							C1159.8,423.2,1151.9,432,1153.3,444.2z"/>
						
							<ellipse transform="matrix(0.9936 -0.1128 0.1128 0.9936 -42.6893 135.3819)" class="st5" cx="1174.6" cy="444.8" rx="14.5" ry="15.7"/>
						<path class="st15" d="M1172.2,438.6c0.4,3.2,3.6,5.4,7.2,5c3.6-0.4,6.3-3.3,5.9-6.4c-0.4-3.2-3.6-5.4-7.2-5
							C1174.5,432.6,1171.8,435.5,1172.2,438.6z"/>
						<path class="st5" d="M1193.7,434.4c-2.2-4.6-6.2-8.3-10.9-10c-7.1-2.6-16.9-1.4-23,3.2c-3.5,2.6-5.9,6.6-6.4,11.2
							c-0.4-4.6,1.8-9.3,5.4-12.4c5.2-4.8,13.2-6,20-4.8C1186.6,422.9,1190.5,427.5,1193.7,434.4z"/>
						<g>
							<path class="st5" d="M1181.9,422.3c0,0,14.5,1.9,16.2-5.6c0,0-0.2,12.7-10.3,9.8C1183.8,425.3,1181.9,422.3,1181.9,422.3z"/>
							<path class="st5" d="M1189.3,426.2c0,0,7.6,3.1,9.7-1c0,0-1.7,6.9-7.4,4.2C1188.2,427.7,1189.3,426.2,1189.3,426.2z"/>
						</g>
					</g>
					<g>
						<g>
							
								<linearGradient id="SVGID_10_" gradientUnits="userSpaceOnUse" x1="-1427.8755" y1="623.2043" x2="-1421.218" y2="684.6589" gradientTransform="matrix(-1 8.000000e-04 8.000000e-04 1 -315.4038 -188.6392)">
								<stop  offset="0.1141" style="stop-color:#FFD0C6"/>
								<stop  offset="0.2503" style="stop-color:#FFC9C0"/>
								<stop  offset="0.4473" style="stop-color:#FFB6B0"/>
								<stop  offset="0.6812" style="stop-color:#FF9694"/>
								<stop  offset="0.9416" style="stop-color:#FF6B6F"/>
								<stop  offset="1" style="stop-color:#FF6066"/>
							</linearGradient>
							<path class="st16" d="M1095.4,438.8c-11.4,27.7-9.3,51.7,2.3,58.8c6.3,3.9,19,4.9,25.8-1.4c3.1-2.9,4.5-6.6,5-10.9
								c3-22.5,2.3-47.9-11.1-53.1C1102,426.1,1095.4,438.8,1095.4,438.8z"/>
							<g>
								<path class="st13" d="M1094.1,481.2c0.2,3.4,2.8,6.1,5.8,5.9c3-0.1,5.3-3,5.2-6.5c-0.2-3.4-2.8-6.1-5.8-5.9
									S1093.9,477.8,1094.1,481.2z"/>
							</g>
						</g>
						<path class="st17" d="M1129.3,464c0.9,3.1,1.3,6.2,1.4,9.4c0.1,3.2,0,6.4-0.6,9.6c-0.3,1.6-0.7,3.2-1.3,4.7
							c-0.6,1.5-1.4,3-2.4,4.3c-1.9,2.5-4.4,4.8-7.5,5.7c3.6-2.3,6.3-6.1,7.8-10.1c1.7-4.6,2.1-9.4,2.4-14.2
							C1129.3,470.3,1129.3,467.1,1129.3,464z"/>
					</g>
					<g>
						<path class="st11" d="M1140.8,410.4c-0.9,0-1.7-0.3-2.5-0.9c-1.7-1.4-2-3.9-0.7-5.6c0.9-1.1,22.3-27.6,71-16.1
							c2.2,0.5,3.5,2.7,3,4.8c-0.5,2.2-2.7,3.5-4.8,3c-43.5-10.2-62.1,12.3-62.9,13.3C1143.1,409.9,1142,410.4,1140.8,410.4z"/>
					</g>
					<path class="st5" d="M1000.6,374.9c0,0-0.5-50.1,44.6-55c0,0,38.3-26,88.3-16.8c50.1,9.3,116.8,53.9,132.5,50.9
						c0,0,13.2-40.7-31.5-92.7s-153.1-30.8-153.1-30.8S946.5,253.7,1000.6,374.9z"/>
					<path class="st18" d="M1022.7,312.3c-12,3-22.6-3-25.6-12c-1.2-3-2.3-6.2-3.2-9.5c7.1-16.5,19.4-28.8,32.6-37.8
						C1015.2,270.9,1013.9,293.1,1022.7,312.3z"/>
					<path class="st18" d="M1253.2,316.6c-27.1-34.6-75.4-49.7-119-43.6c24.1-18.1,63.3-9.1,93.4-7.6
						c-24.1-19.6-55.8-24.1-85.9-16.5c-8.5,4-15.5,7.7-20.5,10.5c-12.1,6.8-18.6,10.5-25.5,17.2c-6.2,6-10.2,11.9-12.7,16
						c1.5-27.1,30.1-46.7,52.7-58.8c-36.2,0-75.3,28.7-70.7,67.8c-18.1-19.6-6.1-48.2,10.5-63.3c-28.6,9.1-36.1,43.7-34.6,70.8
						c-17.9-13.4-18.1-37.1-13.8-56.5c25.6-17.2,54.4-22.2,54.4-22.2s108.4-21.2,153.1,30.8c26.2,30.5,32.5,57.1,33.2,73.9
						c-24.5-19.4-63.7-15.6-91.4-30.6c10.7,1.6,21.4,3.2,32.2,4.8C1223.6,311.8,1238.5,314.2,1253.2,316.6z"/>
					<linearGradient id="SVGID_11_" gradientUnits="userSpaceOnUse" x1="1121.1912" y1="587.9091" x2="1119.9536" y2="540.0596">
						<stop  offset="0" style="stop-color:#FFBDAF"/>
						<stop  offset="0.8214" style="stop-color:#FF6066"/>
					</linearGradient>
					<path class="st19" d="M1089.9,546.1c0,0-1.2,23.2,26.1,28c27.3,4.8,34.2-31,34.2-31L1089.9,546.1z"/>
					<g>
						<path class="st20" d="M1086.4,536.8c-0.5-14.4,28.7-14.5,40.4-12.5c6.7,1.2,16.5,3.3,20.7,9.5c5.8,8.4-1.4,19.1-8.2,24.4
							c-15.5,12-39.5,3.4-49.3-11.9C1087.6,542.5,1086.5,539.4,1086.4,536.8z"/>
						<path class="st5" d="M1150.8,537.7c-1.3-6.5-7.5-10.1-13.3-12c-9.5-3.2-19.9-3.9-29.8-3c-4.8,0.4-9.8,1.3-14.3,3.3
							c-3.6,1.6-7,4.2-8.1,8.1c-0.3,0.9-0.4,1.9-0.3,2.9c0.3,6.3,4.6,12.1,9,16.3c4.5,4.2,9.9,7.5,15.7,9.5c5.7,1.9,12,2.6,17.9,1.5
							c6.2-1.1,11.8-4.2,16.2-8.8C1148.2,550.8,1152.1,544.3,1150.8,537.7z M1144.7,550.6c-3.2,4.9-8,9-13.6,10.8
							c-5.2,1.7-10.9,1.7-16.2,0.5c-5.5-1.3-10.7-3.8-15.2-7.2c-4.6-3.5-8.9-8.4-11-13.9c-0.5-1.3-0.8-2.7-0.9-4
							c-0.2-8.4,9.9-10.8,16.4-11.7c8.6-1.2,17.5-0.8,25.9,1.1c5.4,1.2,11.6,3,15.2,7.4C1149.7,538.7,1148.1,545.4,1144.7,550.6z"/>
					</g>
					<g>
						<path class="st15" d="M1099.3,537.1c15,4,30,5,43-1c1.7-0.8,3.1-2,4.3-3.5c-4.5-5.3-13.6-7.3-19.9-8.4
							c-7.8-1.4-23.6-1.7-33,2.5C1093.2,531.1,1094.9,534.9,1099.3,537.1z"/>
						<path class="st5" d="M1148,532.1c-3.2-3.7-7.9-5.6-12.5-6.9c-4.2-1.2-8.5-2-12.8-2.4c-4.8-0.4-9.6-0.4-14.4-0.1
							c-4.8,0.4-9.7,1.2-14.2,3c-0.5,0.2-1.3,0.4-1.6,1c-0.3,0.5-0.2,1.4-0.2,1.9c0,1.2,0.2,2.3,0.5,3.4c0.9,2.6,3,4.5,5.4,5.8
							c0.1,0,0.1,0.1,0.2,0.1c0,0,0,0,0.1,0c8.6,2.3,17.6,3.7,26.5,3.2c4.2-0.3,8.4-1,12.5-2.2c3.9-1.2,7.6-2.8,10.4-5.9
							C1148,532.7,1148.3,532.4,1148,532.1z M1135.9,537.7c-3.8,1.1-7.6,1.7-11.6,1.8c-8.1,0.3-16.2-1.1-24-3.1
							c-3.6-1.9-5.5-5.2-5.2-9.3c6.3-2.6,13.6-3,20.3-2.9c6.5,0.1,13,1,19.2,2.9c3.7,1.2,7.5,2.9,10.2,5.8
							C1142.5,535.5,1139.3,536.7,1135.9,537.7z"/>
					</g>
				</g>
			</g>
			<g>
				<path class="st21" d="M1048.6,800.9c-0.6-2.4-10.7-126.2-10.7-126.2l28.6-2.4c0,0,7.1,32.7,7.1,34.5c0,1.8-8.9,25.6-10.1,35.7
					c-1.2,10.1-5.4,23.2-5.4,23.2s20.2-53,57.2-79.8c36.9-26.8,79.8-34.5,79.8-34.5s-20.8,13.7-23.8,17.3
					C1168.3,672.3,1048.6,800.9,1048.6,800.9z"/>
				<path class="st3" d="M1191.5,622.9c0,0,8.3,61.3,8.9,63.1c0.6,1.8-37.5,2.4-37.5,2.4l17.9,26.8c0,0-116.7,52.4-137.5,101.8
					c0,0,19.6-73.2,52.4-103.6C1128.4,683,1191.5,622.9,1191.5,622.9z"/>
				<path class="st3" d="M1060.5,642.5c0,0-28,28-46.4,31.6l19.1,12.5l-32.2,23.2c0,0,29.8,92.3,53.6,132.8c0,0-1.8-146.5,3-163.7
					C1062.3,661.6,1060.5,642.5,1060.5,642.5z"/>
				<path class="st22" d="M1072.3,607.7c0,0-8.9,33.6-24.7,41.5c-15.8,7.9-21.7,10.9-21.7,10.9l20.7,3l-16.8,18.8
					c0,0,22.7-2,29.6,6.9c6.9,8.9,14.8,18.8,11.9,27.7c0,0,4-22.7,3-57.3c-0.4-14.5,3.6-34.9,4-38.5c0.8-6.9,1.4-12.7,1.9-16.8
					C1077.6,605,1075,606.3,1072.3,607.7z"/>
				<path class="st22" d="M1099,701.5c0,0,81-78,81-97.8c-1.5-4.4-1.4-7.8-0.2-8.4c1.1-0.5,3.5,1.4,5.6,4.5
					c3.8,4.1,7.7,8.7,11.4,13.8c15.2,20.9,22.3,42.2,25.7,58.3l-51.4-5.9l5.9,20.7C1177,686.7,1109.9,689.6,1099,701.5z"/>
			</g>
			<g>
				<linearGradient id="SVGID_12_" gradientUnits="userSpaceOnUse" x1="1186.0051" y1="835.7708" x2="1184.8468" y2="876.8896">
					<stop  offset="0" style="stop-color:#FFD0C6"/>
					<stop  offset="0.8214" style="stop-color:#FF6066"/>
				</linearGradient>
				<path class="st23" d="M1161.2,887.5c0,0,16.8-49.2,22-51.5c5.2-2.3,23.7-11.6,24.9-8.1c1.2,3.5,5.2,9.3-11.6,20.8
					c-16.8,11.6-20.3,57.9-20.3,57.9L1161.2,887.5z"/>
				<path class="st24" d="M1099,985.6c0,0-7.5,5.7-13-4.1c-5.5-9.8,6.3-34,6.3-34l21.1-22.6c0,0,9.2-3.1,6.9,8.4
					C1118,944.8,1118.6,978.1,1099,985.6z"/>
				<linearGradient id="SVGID_13_" gradientUnits="userSpaceOnUse" x1="1115.0824" y1="937.3697" x2="1072.8896" y2="981.0912">
					<stop  offset="0" style="stop-color:#FFD0C6"/>
					<stop  offset="0.8214" style="stop-color:#FF6066"/>
				</linearGradient>
				<path class="st25" d="M1062,963.1c12.6,0.8,30.7,1.2,52.2-1.3c24.8-2.9,37.2-4.4,44.1-9.4c31.2-22.7,10.7-74.6,31.5-89.4
					c0,0,10.3-7.4,11.4-15.5c1-7.3-4.7-9.2-4.7-9.2s-27.5,18.5-33.5,31c-6,12.5-30.4,46-36.4,51.6c-6,5.6-59.6,5.6-59.6,5.6
					L1062,963.1z"/>
				<path class="st15" d="M1031.1,981.3l35.4,0.8c0,0,23,6.2,32.5,3.4c0,0-6.9,1-3.1-17.6c3.8-18.7,17.5-43,17.5-43l-22.8,1.2
					L1031.1,981.3z"/>
				<path class="st3" d="M1104.7,925.6c-2,0.7-25.6,35.9-28.2,59.4c0,0-38.2,6.9-63,3c-24.8-3.9-143.8-41.9-143.8-41.9
					c-5.2-6.5,16.6-52.4,40.8-57.6c24.1-5.2,126,31.6,153.4,34.2C1091.3,925.2,1104.7,925.6,1104.7,925.6z"/>
			</g>
			<g>
				<linearGradient id="SVGID_14_" gradientUnits="userSpaceOnUse" x1="974.8695" y1="879.5869" x2="1032.7288" y2="903.604">
					<stop  offset="0" style="stop-color:#FFD0C6"/>
					<stop  offset="0.8214" style="stop-color:#FF6066"/>
				</linearGradient>
				<path class="st26" d="M1041.8,873.7c0,0-35.7-4.4-37.1-4.4c-7.5,0-33.7-10.4-51.7-33.5c-4-5.2-9.7-13.7-20.7-22.6
					c-1.9-1.5-14.1-11.3-17.1-8.7c-1.5,1.3-0.1,5.3,0.4,6.6c1.9,5.4,5.5,6.5,11.3,13.1c1.9,2.2,3.5,4.3,6.6,8.7c3.4,4.8,6,9,8,12.4
					c0,0-22.6-11.3-26.6-12c-15.4-2.8-34.1-1.4-34.9,3.3c-0.5,2.7,5,5.7,5.8,6.2c7.7,4.3,13.9,0.4,23.3,2.2
					c3.8,0.7,9.1,2.6,14.9,7.6c0,0-22.2-4.7-24-4c-1.8,0.7-29.5,9.1-26.9,12.4c2.5,3.3,12,5.8,16.4,4.7c4.4-1.1,14.2-4.4,14.2-4.4
					l21.8,5.5c0,0-14.6,2.7-22.2,2.9c-0.7,0-1.4,0.2-2,0.6c-1.3,0.8-3.7,2.8-7.1,7.8c-5.5,8-15.6,9.1-15.3,11.6
					c0.4,2.5,7.6,6.9,16.7,1.5c9.1-5.5,14.2-9.1,14.2-9.1l19.7,0.7c0,0,20.4,14.2,36.4,18.6c16,4.4,21.1,3.6,21.1,3.6l49.1,13.5
					L1041.8,873.7z"/>
				<path class="st15" d="M1036.4,866.9l-32.7-4.8c0,0-16.7,14.3-19.6,35.7c-3,21.4,4.8,22.6,4.8,22.6l40.5,10.1L1036.4,866.9z"/>
				<path class="st3" d="M1019.2,859.7c0,0-17.9,22-17.3,39.3c0.6,17.3,6.5,36.9,8.3,36.9s101.2,1.2,154.2,8.3c53,7.1,69.7-6,69.7-6
					s54.8-63.7,56.6-106.6c1.8-42.9,13.1-144.7,11.3-153.6c-1.8-8.9-55.4,9.5-67.9,44.7c-12.5,35.1-23.8,101.2-29.2,123.3
					c0,0-40.5,3-63.7,4.2C1118,851.4,1055.5,866.9,1019.2,859.7z"/>
			</g>
		</g>
		<g id="Office_Staff_1_">
			<linearGradient id="SVGID_15_" gradientUnits="userSpaceOnUse" x1="358.6711" y1="551.4806" x2="378.2864" y2="483.8077">
				<stop  offset="0" style="stop-color:#FFBDAF"/>
				<stop  offset="0.8214" style="stop-color:#FF6066"/>
			</linearGradient>
			<path class="st27" d="M326.9,449.2l-20.9,79.4c0,0,54.4,84.2,82.8,72.2c28.4-12,32.8-61.9,32.8-61.9l10.7-70.7L326.9,449.2z"/>
			<g>
				<path class="st28" d="M147,1957.1c0,0-9.5,47.5-8.6,55.2c0.9,7.8-19,38-8.6,50c10.4,12.1,49.2,21.6,95.8,9.5
					c0,0,12.9-10.4,7.8-40.5c-5.2-30.2-4.3-68.2-4.3-68.2S173.7,1951.1,147,1957.1z"/>
				<path class="st29" d="M136.8,2060.1c-5.7-1-8.4-5-9.9-9.8c-0.4,4.8,0.2,9,2.9,12.1c10.4,12.1,49.2,21.6,95.8,9.5
					c0,0,6.3-5.1,8.4-18.5C209.7,2078.5,169,2069.3,136.8,2060.1z"/>
				<path class="st28" d="M414.5,1961.5c0,0-13.8,33.6-8.6,41.4c5.2,7.8,29.3,13.8,38,13.8c8.6,0,24.2,0,35.4,14.7
					c11.2,14.7,75.1,13.8,93.2,12.9c18.1-0.9,28.5-10.4,28.5-10.4s-4.3-20.7-19-29.3c-14.7-8.6-47.5-20.7-62.1-60.4l-98.4-6.9
					L414.5,1961.5z"/>
				<path class="st29" d="M496.8,2029.1c-14-2-19-17-31-22c-16-6-34-5-49-16c-3.4-2.3-6.8-5.8-9.1-10.1c-2.5,8.9-4.3,18.2-1.9,21.9
					c5.2,7.8,29.3,13.8,38,13.8c8.6,0,24.2,0,35.4,14.7c11.2,14.7,75.1,13.8,93.2,12.9c18.1-0.9,28.5-10.4,28.5-10.4
					s-0.8-3.6-2.7-8.5c-1.6,1-3.4,1.9-5.3,2.6C562.8,2040.1,529.8,2035.1,496.8,2029.1z"/>
				<path class="st1" d="M484.4,1089.4c0,0,33.9,116,35.2,173.3c1.3,57.3-11.7,394.9-9.1,448.3c2.6,53.4,6.5,121.2,11.7,138.1
					s5.2,100.3,5.2,100.3s-31.3-2.6-62.6,20.9c-31.3,23.5-58.6,9.1-58.6,9.1s-1.3-202-9.1-269.8c-7.8-67.8-49.5-334.9-49.5-334.9
					l-22.2-280.2L484.4,1089.4z"/>
				<path class="st30" d="M387.8,1250.1c-16.7,1.7-33.3,2.6-49.8,2.9l9.6,121.8c0,0,5.1,32.4,12,77.5c6.3-31.2,12.4-61.3,17.2-93.2
					C382.8,1322.1,387.8,1287.1,387.8,1250.1z"/>
				<path class="st1" d="M442.7,1093.4l-243.7,1.3c0,0-28.7,196.8-35.2,261.9c-6.5,65.2,0,183.7-1.3,241.1
					c-1.3,57.3-20.7,315-20.7,387.9c0,0,48.7-30.7,89.7,6.9c0,0,4-36.5,15.7-112C259,1804.9,358,1355.3,365.8,1341
					C373.7,1326.6,442.7,1093.4,442.7,1093.4z"/>
			</g>
			<g>
				<path class="st31" d="M530.7,781.9c0,0,90.8,51.4,121.1,47.5c30.3-3.9,29.7-42.4,25.8-48.2C673.7,775.3,542,597.8,542,597.8
					l-43.6,87.4L530.7,781.9z"/>
				<path class="st31" d="M291.8,532.4c-1.5,2.1-37.6,16.5-54.6,23.7c-17,7.2-64.9,17.5-77.7,22.6c-12.9,5.1-13.4,10.3-13.4,10.3
					s58.7,211.1,62.8,233.2c4.1,22.1-5.7,206.9-11.8,233.2c-6.2,26.3-32.4,173.5-27.8,185.8c4.6,12.4,182.7,4.1,211.1,1.5
					c28.3-2.6,58.2-3.1,65.9-55.6c0,0,3.1,43.8,25.7,49.9c22.6,6.2,95.2-20.1,95.2-20.1s-17.5-269.7-20.1-287.2
					s13.4-223.4,10.8-247.1c-2.6-23.7-16-84.9-16-84.9s-92.1-25.2-101.9-29.9c-9.8-4.6-51-12.4-51-12.4L291.8,532.4z"/>
				<path class="st32" d="M407.8,787.1c11-30,19-60,27-92c9.1-42.4,11.3-83,14-124.1c-4.2-1.4-7.3-2.4-8.7-3.1
					c-9.8-4.6-51-12.4-51-12.4l-97.3-23.2c-0.3,0.3-1.5,1.1-3.5,2c13.5,33.1,27.3,65.5,44.4,98.7
					C359.8,684.1,388.8,733.1,407.8,787.1z"/>
				<polygon class="st1" points="380.9,592.1 372.6,727.1 406.8,782.7 429.4,729.5 395.2,590.5 				"/>
				<path class="st1" d="M385.6,555l3.1-0.3c0,0,13.3,0.3,15.6,4.8c2.2,4.5,5.1,15,5.1,15l-12.8,26.8l-15.3,0.3L357,568.1l20.4-14.7
					L385.6,555z"/>
				<path class="st33" d="M386.6,555c0,0-67.4-46.3-70.5-51.5c-3.1-5.1-1-9.8-1-9.8l-16,29.3c0,0,25.2,79.8,25.7,81.3L386.6,555z"/>
				<path class="st33" d="M391.2,554.5l32.4-24.7c0,0,3.6,6.7,3.6,8.8c0,2.1,3.1,60.7,3.1,60.7L391.2,554.5z"/>
				<path class="st34" d="M300.6,517.4c0,0,10.8,32.9,26.8,62.8c16,29.9,55.6,130.2,61.3,142.6c5.7,12.4,21.1,68.5,21.1,68.5
					s-40.2-57.1-54.1-73.1c-13.9-16-105.5-120.5-106.6-122c-1-1.5,21.6-17,21.6-17l-21.6-7.7l10.3-27.8c0,0,17-4.1,24.2-11.8
					C290.8,524.1,300.6,517.4,300.6,517.4z"/>
				<path class="st34" d="M427.2,538.6c0,0,3.6,90.1-1.5,118.9c-5.1,28.8-23.7,137.4-20.6,153.4c0,0,18-57.7,30.4-74.1
					c12.4-16.5,61.3-109.1,58.7-134.4l-22.6-14.9l11.8-2.6C483.3,584.9,443.7,557.1,427.2,538.6z"/>
				<ellipse class="st34" cx="420.9" cy="839.7" rx="8.6" ry="9"/>
				<ellipse class="st34" cx="426.9" cy="963.6" rx="8.6" ry="9"/>
				<path class="st34" d="M404.9,809.3c0,0,0.2,72.7,4.2,137.6c3.5,57.3,8.6,109.5,11.9,132.6c7,49.3,25.6,108.6,25.6,108.6
					s-28.4-115.7-32.9-224.6C409.3,857,404.9,809.3,404.9,809.3z"/>
				<path class="st34" d="M319,944.7c0,0,7.1,48.3-2.6,53.5c-9.7,5.2-118.6,36.1-118.6,36.1s-3.2-34.1,1.9-45.7
					C204.9,977,319,944.7,319,944.7z"/>
				<path class="st34" d="M514.6,943.8c0,0,0.6,45.7,7.7,48.3c7.1,2.6,34.8,12.2,34.8,12.2l-4.5-47.7
					C552.6,956.7,530.7,945.7,514.6,943.8z"/>
			</g>
			<g>
				<linearGradient id="SVGID_16_" gradientUnits="userSpaceOnUse" x1="119.6334" y1="1260.1713" x2="141.5883" y2="1269.0719">
					<stop  offset="0" style="stop-color:#FFBDAF"/>
					<stop  offset="0.8214" style="stop-color:#FF6066"/>
				</linearGradient>
				<path class="st35" d="M97.3,1247.5c0,0,10.7,26.1,23.7,31.4c13.1,5.3,22.5-2.4,22.5-2.4l-16-31.4L97.3,1247.5z"/>
				<linearGradient id="SVGID_17_" gradientUnits="userSpaceOnUse" x1="137.4347" y1="1263.7314" x2="159.3896" y2="1272.6321">
					<stop  offset="0" style="stop-color:#FFBDAF"/>
					<stop  offset="0.8214" style="stop-color:#FF6066"/>
				</linearGradient>
				<path class="st36" d="M115.1,1251.1c0,0,10.7,26.1,23.7,31.4c13.1,5.3,22.5-2.4,22.5-2.4l-16-31.4L115.1,1251.1z"/>
				<linearGradient id="SVGID_18_" gradientUnits="userSpaceOnUse" x1="160.3409" y1="1262.7604" x2="203.1282" y2="1267.3214">
					<stop  offset="0" style="stop-color:#FFBDAF"/>
					<stop  offset="0.8214" style="stop-color:#FF6066"/>
				</linearGradient>
				<path class="st37" d="M159.6,1238c0,0-2.4,24.3,3,25.5c5.3,1.2,14.8-7.7,21.4-8.3c6.5-0.6,10.7,10.1,10.7,10.1
					s-14.2,23.7-29.7,22.5s-13.6-5.3-13.6-5.3s-16.6-19-18.4-30.3C131.1,1241,159.6,1238,159.6,1238z"/>
				<linearGradient id="SVGID_19_" gradientUnits="userSpaceOnUse" x1="140.1796" y1="1212.4531" x2="123.4985" y2="1140.5524">
					<stop  offset="0" style="stop-color:#FFBDAF"/>
					<stop  offset="0.8214" style="stop-color:#FF6066"/>
				</linearGradient>
				<path class="st38" d="M164.3,1181.1c0,0,18.4,20.8,26.1,33.2c7.7,12.5,16,65.9,6.5,68.2c-9.5,2.4-11.9,1.8-14.8-10.7
					c-3-12.5-5.3-27.9-10.1-31.4c-4.7-3.6-12.5-2.4-12.5-2.4s-9.8,23.7-16,23.7c-20.2,0.2-43.9,5.9-47.5-16
					c-3.6-22,2.4-26.7,4.2-47.5c1.6-18.7,3.6-27.3,3.6-27.3l60.5-3.6V1181.1z"/>
			</g>
			<path class="st33" d="M100.5,1149.6c0,0-4.1,47.8-1.6,50.3c2.4,2.4,21.1-9.7,75.4-7.3c0,0,0-35.7-5.7-51.1
				S100.5,1149.6,100.5,1149.6z"/>
			<path class="st31" d="M151.2,582.9c0,0-8.2,2.7-19.7,49.6c-11.5,46.9-34.6,379.7-36,401.4c-1.4,21.7-2,131.8-2,131.8
				s46.2-13.6,65.2-9.5c19,4.1,27.2,5.4,27.2,5.4s-1.4-72,6.1-154.2c7.5-82.2,27.8-253.4,23.8-273.1
				C211.6,714.6,187.2,577.1,151.2,582.9z"/>
			<g>
				<path class="st28" d="M200.4,194c78.3-60.7,161.1-81.6,208.8-69.6c18.4,4.6,48.8,18.4,72.8,32c26.4,14.9,31,21.6,33.2,25.4
					c8.7,15-0.1,19.7-2.9,78.3c-0.5,10.3-1.2,31.3-11.8,55.3c0,0,0,0,0,0c-125.8,69.8-236.9,93.8-271.1,54
					c-13.4-15.6-18.4-44.9-24.3-79.3C198.4,250.8,198.7,217.4,200.4,194z"/>
				<g>
					
						<linearGradient id="SVGID_20_" gradientUnits="userSpaceOnUse" x1="-201.9698" y1="378.4831" x2="-258.2005" y2="432.1284" gradientTransform="matrix(-0.9996 2.760000e-02 2.760000e-02 0.9996 11.1161 -22.3635)">
						<stop  offset="0" style="stop-color:#FFBDAF"/>
						<stop  offset="0.8214" style="stop-color:#FF6066"/>
					</linearGradient>
					<path class="st39" d="M243.7,324c-1.7-1.9-17.7-6.8-31.1-1.3c-7.7,3.1-14.6,9.7-17.3,22.3c-5.8,26.6,18.4,46.7,42.1,48.7
						c6.9,0.6,13.7-0.3,19.7-3L243.7,324z"/>
					
						<linearGradient id="SVGID_21_" gradientUnits="userSpaceOnUse" x1="-190.6178" y1="339.3174" x2="-240.9196" y2="452.4963" gradientTransform="matrix(-0.9996 2.760000e-02 2.760000e-02 0.9996 11.1161 -22.3635)">
						<stop  offset="0" style="stop-color:#FFBDAF"/>
						<stop  offset="0.8214" style="stop-color:#FF6066"/>
					</linearGradient>
					<path class="st40" d="M243.2,340.1c-9.3-9.2-37-3-33.4,10.3s12.4,2.9,20.4,2.7c8-0.2,13.4,13.8,9.6,18.6
						c-3.9,4.8-14.4,4.7-9.5,9.3c4.8,4.6,14.9,16.3,19.5-1.6S251,347.9,243.2,340.1z"/>
				</g>
				<g>
					
						<linearGradient id="SVGID_22_" gradientUnits="userSpaceOnUse" x1="-482.1212" y1="368.7001" x2="-445.7653" y2="410.3882" gradientTransform="matrix(-0.9996 2.760000e-02 2.760000e-02 0.9996 11.1161 -22.3635)">
						<stop  offset="0" style="stop-color:#FFBDAF"/>
						<stop  offset="0.8214" style="stop-color:#FF6066"/>
					</linearGradient>
					<path class="st41" d="M486.8,301.6c1.6-2,17.3-7.7,31-3c7.9,2.7,15.1,8.9,18.5,21.3c7.3,26.2-15.8,47.6-39.3,51
						c-6.8,1-13.7,0.5-19.9-1.9L486.8,301.6z"/>
					
						<linearGradient id="SVGID_23_" gradientUnits="userSpaceOnUse" x1="-496.2374" y1="331.5031" x2="-461.8204" y2="404.3082" gradientTransform="matrix(-0.9996 2.760000e-02 2.760000e-02 0.9996 11.1161 -22.3635)">
						<stop  offset="0" style="stop-color:#FFBDAF"/>
						<stop  offset="0.8214" style="stop-color:#FF6066"/>
					</linearGradient>
					<path class="st42" d="M488.1,317.7c8.8-9.7,36.8-5,33.9,8.5c-2.9,13.5-12.2,3.6-20.2,3.8c-8,0.2-12.6,14.5-8.5,19.1
						c4.1,4.6,14.6,3.9,10,8.8c-4.6,4.8-14,17.1-19.6-0.5C478.2,339.7,480.8,325.9,488.1,317.7z"/>
				</g>
				<path class="st13" d="M240.6,274.1c1.5,36.2,4.3,66.7,6.9,89.7c5.8,52.5,10.8,68.9,19.8,84.8c4.3,7.7,15,26.1,35.1,41
					c43.5,32.3,115.7,36.4,157-0.3c21.3-18.9,30.1-44.9,33.2-54.1c4.1-12.2,5.3-26.5,7.4-54.7c5.4-72.4-0.4-107.2-5.8-129.3
					c0,0,0,0,0,0c-4.6-11.2-13.8-28.7-32.2-40c-10.3-6.3-23.4-10.7-74.5-7.4c-54.8,3.5-82.1,5.3-103.8,19.5
					C261.3,237.9,248.3,258.1,240.6,274.1z"/>
				<path class="st28" d="M411.2,293.9c-1.1,0-2.2-0.3-3.2-0.9c-2.8-1.8-3.6-5.5-1.9-8.3c5.9-9.4,16.7-15.7,30.4-17.8
					c14.7-2.2,29.7,1,38.1,8.2c2.5,2.1,2.8,5.9,0.7,8.5c-2.2,2.5-5.9,2.8-8.5,0.7c-5.7-4.9-17.5-7.1-28.5-5.5
					c-10.1,1.5-18.1,6-22.1,12.4C415.2,292.9,413.2,293.9,411.2,293.9z"/>
				<g>
					
						<radialGradient id="SVGID_24_" cx="8927.1357" cy="416.4574" r="33.9464" gradientTransform="matrix(0.9996 -2.760000e-02 2.760000e-02 0.9996 -8635.8105 216.7835)" gradientUnits="userSpaceOnUse">
						<stop  offset="0" style="stop-color:#FF8084"/>
						<stop  offset="0.4202" style="stop-color:#FFA19A"/>
						<stop  offset="0.6937" style="stop-color:#FFB8A9"/>
						<stop  offset="1" style="stop-color:#FFBDAF"/>
					</radialGradient>
					<circle class="st43" cx="299.2" cy="386.7" r="28.7"/>
					<path class="st13" d="M305,383c0.1,3.1-2.4,5.7-5.5,5.8c-3.1,0.1-5.7-2.4-5.8-5.5c-0.1-3.1,2.4-5.7,5.5-5.8
						C302.3,377.4,304.9,379.9,305,383z"/>
				</g>
				<g>
					
						<radialGradient id="SVGID_25_" cx="9104.4824" cy="405.0694" r="29.5096" gradientTransform="matrix(0.9996 -2.760000e-02 2.760000e-02 0.9996 -8635.8105 216.7835)" gradientUnits="userSpaceOnUse">
						<stop  offset="0" style="stop-color:#FF8084"/>
						<stop  offset="0.4202" style="stop-color:#FFA19A"/>
						<stop  offset="0.6937" style="stop-color:#FFB8A9"/>
						<stop  offset="1" style="stop-color:#FFBDAF"/>
					</radialGradient>
					<circle class="st44" cx="476.2" cy="370.4" r="25"/>
					<path class="st13" d="M481.2,367.2c0.1,2.7-2.1,4.9-4.8,5c-2.7,0.1-4.9-2.1-5-4.8c-0.1-2.7,2.1-4.9,4.8-5
						C478.9,362.4,481.1,364.5,481.2,367.2z"/>
				</g>
				<g>
					
						<linearGradient id="SVGID_26_" gradientUnits="userSpaceOnUse" x1="8929.2354" y1="189.2351" x2="8924.7158" y2="165.2256" gradientTransform="matrix(0.859 0.3642 -0.3904 0.9207 -7219.2822 -2947.7813)">
						<stop  offset="0" style="stop-color:#FFBDAF"/>
						<stop  offset="0.8214" style="stop-color:#FF6066"/>
					</linearGradient>
					<path class="st45" d="M359.7,460.4c0.2,0.1,14.9,17.6,41.8,5.8c-2.1,0.9-2.8,6.2-6.6,9.5c-8.8,7.4-19.6,4.3-21.5,3.8
						c-3.1-0.9-8.5-2.4-11.6-7.9C359.1,467.1,359.4,462.4,359.7,460.4z"/>
				</g>
				<g>
					<path class="st46" d="M454.7,170.1c0,0-0.9-18.1-28.7-30.4c-27.8-12.3-82.8,11.2-133.8,9.4c-36.9-1.3-63-16.6-75.3-27
						c8.8,3.9,17.6,6,27.3,6.3c35.5,0.9,74.3-6.9,111.3-18c30.1-9.1,67.8-11.4,93.4,13.2c10.2,9.8,17.1,22.9,20.8,36.6
						c3.7,13.8,4.3,28.8-1,42c-0.2,0.4-0.4,0.8-0.6,1.3c-7.5,17.2-23.7,28.2-42,34.3C470.7,219,454.7,170.1,454.7,170.1z"/>
					<path class="st28" d="M215.1,124.6c0.1-1.1,0.2-2.1,0.5-3.1c0.4,0.2,0.9,0.4,1.3,0.6c12.3,10.4,38.4,25.7,75.3,27
						c51.1,1.8,106-21.6,133.8-9.4c27.8,12.3,28.7,30.4,28.7,30.4s15.9,48.9-28.6,67.5c-9.4,3.1-19.3,5-28.9,5.7
						c-40.2,3-81.2-8-114.6-30.6c-16.3-11.1-30.8-25-42.6-40.7C232.6,162.1,214.4,138.8,215.1,124.6z"/>
				</g>
				<g>
					<path class="st15" d="M457.2,333c0.4,13-7.6,24.8-18.7,25.1c-11.1,0.3-19.8-10.1-20.1-23.1c-0.4-13,7.9-22.5,19-22.8
						S456.8,320,457.2,333z"/>
					
						<ellipse transform="matrix(0.9996 -2.763213e-02 2.763213e-02 0.9996 -9.1369 12.2255)" class="st5" cx="437.8" cy="336.7" rx="13.4" ry="16.7"/>
					<path class="st15" d="M444.7,329.2c0.1,3.4-2.6,6.2-5.9,6.3c-3.4,0.1-6.2-2.6-6.3-5.9c-0.1-3.4,2.6-6.2,5.9-6.3
						C441.8,323.1,444.6,325.8,444.7,329.2z"/>
					<path class="st5" d="M418.9,328.6c2.9-11,10.9-19.1,23.1-16.7c7.7,1.5,13.8,7.1,14.3,15.1c-1-4.4-3.8-8.3-7.6-10.8
						C437.7,309.4,422.2,316.1,418.9,328.6z"/>
				</g>
				<g>
					<path class="st15" d="M346.7,350.8c0.4,13-7.6,24.8-18.7,25.1c-11.1,0.3-19.8-10.1-20.1-23.1c-0.4-13,7.9-22.5,19-22.8
						C337.9,329.8,346.3,337.9,346.7,350.8z"/>
					<path class="st5" d="M340.7,354.2c0.3,9.2-5.5,16.8-12.9,17c-7.4,0.2-13.6-7.1-13.8-16.3c-0.3-9.2,5.5-16.8,12.9-17
						C334.2,337.7,340.4,345,340.7,354.2z"/>
					<path class="st15" d="M334.2,347c0.1,3.4-2.6,6.2-5.9,6.3c-3.4,0.1-6.2-2.6-6.3-5.9c-0.1-3.4,2.6-6.2,5.9-6.3
						C331.3,341,334.1,343.7,334.2,347z"/>
					<path class="st5" d="M308.3,346.6c0.4-4.4,2.4-8.8,5.7-12c0.4-0.4,0.8-0.8,1.3-1.2c10.4-7.4,30.1-3.4,30.4,11.5
						c-1.2-6.2-6.5-11.2-12.6-12.9C323.6,329.5,309.4,335.3,308.3,346.6z"/>
				</g>
				<g>
					<g>
						
							<linearGradient id="SVGID_27_" gradientUnits="userSpaceOnUse" x1="9018.6914" y1="345.6711" x2="9018.6914" y2="460.7298" gradientTransform="matrix(0.9996 -2.760000e-02 2.760000e-02 0.9996 -8635.8105 216.7835)">
							<stop  offset="0" style="stop-color:#FFBDAF"/>
							<stop  offset="0.8214" style="stop-color:#FF6066"/>
						</linearGradient>
						<path class="st47" d="M400.3,324.7c0,0,16.4,42.1,12.4,60.1c-4.1,18.1-35.2,22.9-41-3.6c-5.8-26.5-8.2-56.7,5.1-63.5
							C391.9,310,400.3,324.7,400.3,324.7z"/>
						<g>
							
								<ellipse transform="matrix(0.9872 -0.1596 0.1596 0.9872 -54.2267 69.1117)" class="st13" cx="403.2" cy="372.2" rx="6.6" ry="8.6"/>
						</g>
					</g>
					<path class="st17" d="M368.3,355.7c0.3,3.7,0.7,7.3,1.2,11c0.3,1.8,0.5,3.6,0.9,5.4c0.8,4,1.9,8.2,3.7,12
						c2,4.1,5.2,6.9,7.8,10.4c-4.8-2-8.3-6.7-10.3-11.3c-1.9-4.3-2.7-8.9-3.3-13.5C367.7,364.9,368.6,360.2,368.3,355.7z"/>
				</g>
				<path class="st28" d="M276.9,308.8c-1.5,0-3-0.5-4.1-1.6c-2.4-2.3-2.5-6.1-0.2-8.5c23-24.3,64.9-9.9,66.7-9.2
					c3.1,1.1,4.8,4.5,3.7,7.7c-1.1,3.1-4.5,4.8-7.7,3.7c-0.5-0.2-36.4-12.4-54,6.2C280.1,308.2,278.5,308.8,276.9,308.8z"/>
				<g>
					<path class="st5" d="M499.2,296.5C499.1,296.5,499.1,296.5,499.2,296.5L499.2,296.5z"/>
					<path class="st5" d="M506.9,290.5c-1.6-0.4-3.3,0.5-3.7,2.1c0,0,0,0,0,0c-0.1,0.1-0.2,0.3-0.3,0.5c0,0,0,0.1-0.1,0.1
						c-0.2,0.2-0.4,0.5-0.6,0.7c-0.5,0.5-1,0.9-1.5,1.4c-0.3,0.2-0.5,0.4-0.8,0.6c-0.1,0.1-0.3,0.2-0.4,0.3
						c-0.1,0.1-0.3,0.2-0.4,0.3c0.1,0,0.1-0.1,0.3-0.2c-1.3,0.9-2.5,1.9-3.8,2.8c-1.2,0.9-2.4,1.7-3.6,2.6c-0.8,0.6-1.6,1.1-2.3,1.8
						c-3-4-6.6-7.5-10.8-10.5c-11-7.9-24.3-11.1-37.7-8.9c-13.3,2.2-25.1,9.4-33,20.3c-2.9,4-5.1,8.3-6.7,12.9
						c-0.4-0.2-0.8-0.3-1.2-0.3c-5-0.5-10.1,0.4-15,1.2c-5.7,1-11.3,2.2-16.8,3.8c-2.3,0.6-4.6,1.3-6.8,2.1
						c-11-14.3-29.3-22.3-48.3-19.2c-19.2,3.1-34.1,16.6-39.9,33.8c-9.3-5.9-18.7-12-27.8-18.3c-1.2-0.9-2.5-1.7-3.7-2.6
						c-0.5-0.4-1-0.7-1.5-1.1c-0.1-0.1-0.3-0.3-0.5-0.4c-0.1-0.1-0.4-0.3-0.5-0.4c-1.3-1-3-1.2-4.2,0c-1,1-1.3,3.2,0,4.2
						c4.4,3.5,9.1,6.6,13.7,9.7c5.4,3.6,10.9,7.2,16.4,10.7c2.1,1.4,4.3,2.8,6.5,4.1c-1.2,5.8-1.4,11.9-0.4,18.1v0
						c4,24.8,25.6,42.5,49.9,42.5c2.7,0,5.4-0.2,8.1-0.7c13.3-2.2,25.1-9.4,33-20.3c7.9-11,11.1-24.3,8.9-37.7
						c-1-6.4-3.2-12.3-6.3-17.5c5.4-1.8,10.9-3.1,16.4-4.2c1.8-0.4,3.6-0.7,5.5-1c1.9-0.3,3.1-0.5,4.7-0.7c2.7-0.3,5.4-0.5,8.1-0.3
						c-1.4,6.2-1.6,12.7-0.6,19.2v0c4,24.8,25.6,42.5,49.9,42.5c2.7,0,5.4-0.2,8.1-0.7c13.3-2.2,25-9.4,33-20.3
						c7.9-11,11.1-24.3,8.9-37.7c-1-6.2-3.1-12.1-6.2-17.4c0.3-0.3,0.6-0.6,1-0.9c0.2-0.2,1-0.7,0.2-0.1c0.3-0.2,0.5-0.4,0.8-0.6
						c1.2-0.9,2.5-1.8,3.8-2.7c2.7-1.9,5.4-3.8,7.8-6.1c1.1-1.1,2.2-2.4,2.6-3.9C509.4,292.7,508.5,290.9,506.9,290.5z M357.7,380.8
						c-7,9.7-17.3,16-29.1,17.9c-24.3,3.9-47.2-12.6-51.2-36.9v0c-3.9-24.3,12.6-47.2,36.9-51.2c24.3-3.9,47.2,12.6,51.2,36.9
						C367.5,359.3,364.7,371.1,357.7,380.8z M485.5,360.1c-7,9.7-17.3,16-29.1,17.9c-24.3,3.9-47.2-12.6-51.2-36.9v0
						c-1.9-11.8,0.9-23.6,7.9-33.2c7-9.7,17.3-16,29.1-17.9c11.8-1.9,23.6,0.9,33.2,7.9c9.7,7,16,17.3,17.9,29.1
						C495.3,338.6,492.5,350.4,485.5,360.1z M503.1,292.9c0,0-0.1,0.1-0.1,0.1C503.1,293,503.1,292.9,503.1,292.9z M502.9,293.2
						C502.8,293.3,502.9,293.3,502.9,293.2L502.9,293.2z M503.4,292.5C503.5,292.2,503.4,292.4,503.4,292.5L503.4,292.5z"/>
				</g>
				<g>
					<path class="st20" d="M440.2,425.4c-31.7,12.6-70.1,10.1-101.9-8.7c0,0,22.5,46.9,55.6,41.8
						C426.9,453.3,440.2,425.4,440.2,425.4"/>
					<g>
						<path class="st15" d="M425.6,436.2c-18.8,7.7-34.4,7.5-43.8,6.5c-10.6-1.2-24-2.9-31.9-15.6c-1.4-2.3-2.4-4.4-2.9-5.8
							c25.4,12.3,54,14.9,79.7,8.4C426.3,431.9,426,434.1,425.6,436.2z"/>
						<path class="st5" d="M426.5,429c-20.2,5-41.6,4.3-61.5-1.8c-5.8-1.8-11.4-4-16.9-6.6c-0.5-0.2-3,0.1-2.6,1.1
							c2.3,5.8,6,10.9,11.1,14.5c4.5,3.1,9.7,4.9,15,6c10.1,2,20.6,2.5,30.8,1.1c8.1-1.1,16-3.3,23.5-6.3c0.6-0.2,1.1-0.5,1.1-0.8
							c0.4-2.2,0.7-4.3,1.1-6.5C428.3,428.7,426.9,428.9,426.5,429z M388.7,442.4c-4.4-0.2-8.8-0.7-13.1-1.4
							c-5.1-0.9-10.2-2.3-14.7-5c-4.9-2.9-8.6-7.2-11.1-12.3c18.6,8.1,39.2,11.5,59.5,9.7c5.3-0.5,10.6-1.4,15.9-2.6
							c-0.3,1.7-0.6,3.5-0.9,5.2C412.9,440.5,400.8,442.8,388.7,442.4z"/>
					</g>
					<path class="st5" d="M441.6,425c0,0,0-0.1-0.1-0.1c-0.3-0.4-1.6,0-1.9,0.1c-25,9.9-53.3,9.8-78.6,1c-7.5-2.6-14.6-5.9-21.4-9.9
						c-0.1-0.1-0.3-0.1-0.6-0.1c0.9-1.4,1.8-2.7,2.6-4.1c0.9-1.6,1.9-3.1,2.8-4.8c-1.8,0.8-3.3,2-4.7,3.4c-1.3,1.3-2.5,2.8-3.6,4.4
						c-1,1.6-2,3.2-2.8,4.9c-0.8,1.7-1.5,3.4-2,5.3c1.5-1.2,2.8-2.6,4-4c0.7-0.9,1.4-1.8,2-2.6c2,4,4.5,7.9,7,11.6
						c5.7,8.3,12.6,16.2,21,22c4.4,3,9.3,5.4,14.4,6.6c5.9,1.4,11.7,1.1,17.6-0.2c12.3-2.7,23.6-8.8,32.5-17.7c3-3,5.7-6.2,8.1-9.7
						c1.2-1.7,2.6-3.6,3.3-5.5c0-0.1,0.1-0.2,0.1-0.3C441.6,425.1,441.6,425.1,441.6,425z M430.2,437.8c-7.6,8.5-17.3,15-28.2,18.2
						c-5.8,1.7-11.8,2.7-17.8,1.7c-5.1-0.9-10-3-14.4-5.8c-8.4-5.3-15.4-12.9-21.1-20.9c-2.2-3.1-4.3-6.2-6.1-9.5
						c-0.3-0.6-0.6-1.2-0.9-1.8c11.1,5.9,23.1,10,35.4,12.2c13.6,2.4,27.7,2.5,41.3,0.1c6.7-1.2,13.4-3,19.8-5.3
						C436.1,430.7,433.2,434.5,430.2,437.8z"/>
				</g>
			</g>
			<g>
				<g>
					
						<linearGradient id="SVGID_28_" gradientUnits="userSpaceOnUse" x1="460.1022" y1="411.7316" x2="532.5538" y2="302.4184" gradientTransform="matrix(0.9658 0.2591 -0.2591 0.9658 190.6771 -3.8482)">
						<stop  offset="0" style="stop-color:#FFBDAF"/>
						<stop  offset="0.8214" style="stop-color:#FF6066"/>
					</linearGradient>
					<path class="st48" d="M572.3,562.7l-1.5-91.9l-15.5-4.8c-4.2-13.9-13.7-45-16.9-50.2c-4.2-6.7-7.6-27.7-13.6-31.8
						c-5.9-4.1-8.1,7.9-7.4,18.1c0.8,10.3,16.3,66.7,16.3,66.7c-0.5,2.5-0.4,4.9,0.1,7c-1.6,7-8.2,13.4-9.5,13.1
						c-1.4-0.4-3-24.4-6.9-32.5c-3.9-8.1-17.2-10.7-19.2-5.2c-2,5.5,5.6,27.6,6.4,56.5c0.8,28.9,21.7,37,21.7,37l9.3,47.7l50.3,5.5
						L572.3,562.7z"/>
					<g>
						<path class="st5" d="M509.3,537.2L486,523.3c-4.5-2.7-7.1-10.9-5.8-18.2l24.8-138.4c1.3-7.3,6.1-11.2,10.6-8.5l23.3,13.8
							c4.5,2.7,7.1,10.9,5.8,18.2l-24.8,138.4C518.6,536,513.8,539.8,509.3,537.2z"/>
						<path class="st49" d="M503.9,528.6L483,514.8c-2.2-1.5-3.4-6.1-2.7-10.4l24.6-136.9c0.8-4.2,3.2-6.5,5.4-5l20.9,13.8
							c2.2,1.5,3.4,6.1,2.7,10.4l-24.6,136.9C508.6,527.8,506.1,530,503.9,528.6z"/>
					</g>
					
						<linearGradient id="SVGID_29_" gradientUnits="userSpaceOnUse" x1="404.5362" y1="270.9342" x2="400.9275" y2="314.2391" gradientTransform="matrix(0.9223 0.3865 -0.3865 0.9223 276.4727 17.8933)">
						<stop  offset="0" style="stop-color:#FFBDAF"/>
						<stop  offset="0.8214" style="stop-color:#FF6066"/>
					</linearGradient>
					<path class="st50" d="M561.4,487.8c0,0,13.2-26.8,10-34.4c-3.1-7.7-7.8-29.2-10.6-30.8c-2.7-1.6-29.7-17.8-32.9-17.2
						c-3.2,0.6-22-2.4-23,0.1c-1,2.5-2.5,14.1,8.3,15.2c10.8,1.1,31.1,8.6,32.2,9.6C546.5,431.2,561.4,487.8,561.4,487.8z"/>
					
						<linearGradient id="SVGID_30_" gradientUnits="userSpaceOnUse" x1="452.6277" y1="330.826" x2="448.7448" y2="377.4211" gradientTransform="matrix(0.9658 0.2591 -0.2591 0.9658 190.6771 -3.8482)">
						<stop  offset="0" style="stop-color:#FFBDAF"/>
						<stop  offset="0.8214" style="stop-color:#FF6066"/>
					</linearGradient>
					<path class="st51" d="M568.9,498.5c0,0,10.2-30.4,5.7-38.2c-4.5-7.7-12.6-30-15.7-31.3c-3.2-1.3-34.2-14.7-37.6-13.6
						c-3.3,1.1-23.8,0.7-24.5,3.5c-0.8,2.8-0.6,15.4,11,15c11.7-0.4,34.4,4.7,35.7,5.6C544.8,440.3,568.9,498.5,568.9,498.5z"/>
					
						<linearGradient id="SVGID_31_" gradientUnits="userSpaceOnUse" x1="495.9783" y1="423.5849" x2="585.2816" y2="480.8555" gradientTransform="matrix(0.9658 0.2591 -0.2591 0.9658 190.6771 -3.8482)">
						<stop  offset="0" style="stop-color:#FFBDAF"/>
						<stop  offset="0.8214" style="stop-color:#FF6066"/>
					</linearGradient>
					<path class="st52" d="M595,597.9c0,0-16.8-59.3-17-63.9c-0.3-4.6,2.6-54.6,0-61.8c-2.6-7.2-25.4-34.5-35.7-37.2
						c-10.3-2.8-41.8-1.7-40.6,3.2c1.2,4.8,5.1,12.9,22,7.9l17.1,7.6l10.6,18.4c0,0-3.9,12-7.9,25.4c-5.6,18.3-7.5,24.4-9.3,33.3
						c-0.7,3.7-2,10.2-2.7,17.4c-0.9,9.8-0.9,25.2,4.7,44.5C555.7,594.4,575.4,596.2,595,597.9z"/>
				</g>
				<path class="st33" d="M531.8,586.5l-15.4-30.8c12.8-11.1,24.4-16.9,32.9-20.1c0,0,4.8-1.8,32.1-9.1l0,0l21.7,43.1
					C603.1,569.5,570.6,615.5,531.8,586.5z"/>
				<path class="st32" d="M523.8,570.3l8.1,16.2c38.8,29,71.3-17,71.3-17l-10.6-21.1C574.8,566.3,549,575.9,523.8,570.3z"/>
				<path class="st53" d="M522.8,574.7c2,0.9,16.8,9.8,37.9,3.7c21.1-6.1,31.1-32.5,31.1-32.5s83.7,142.6,88.9,173.8
					c5.2,31.2,15.6,43.1,2,78c-13.6,34.8-22.2,32-33.4,27.5c-11.2-4.5-58.1-26.8-64.4-46.5c-6.3-19.7-21.2-69.6-29.3-105.9
					C547.5,636.5,522.8,574.7,522.8,574.7z"/>
			</g>
		</g>
	</g>
</g>
</svg>
