<svg id="Capa_1" enable-background="new 0 0 512 512" height="512" viewBox="0 0 512 512" width="512" xmlns="http://www.w3.org/2000/svg"><g><path d="m227.074 148.435c0-5.523-4.477-10-10-10h-6.194l7.901-20.005c2.029-5.137-.491-10.945-5.627-12.974-5.136-2.031-10.946.49-12.974 5.627l-13.301 33.679c-1.216 3.079-.83 6.561 1.032 9.298s4.958 4.375 8.269 4.375h20.896c5.521 0 9.998-4.477 9.998-10z"/><path d="m27.602 370.573c1.624-5.279-1.339-10.875-6.618-12.499-5.277-1.623-10.875 1.338-12.499 6.618-2.792 9.078-4.467 18.418-4.978 27.762-.004.075-.007.149-.009.225l-3.493 108.82c-.087 2.707.927 5.333 2.811 7.277 1.884 1.946 4.476 3.044 7.184 3.044h399.775c2.724 0 5.33-1.111 7.216-3.077s2.888-4.616 2.775-7.337l-4.516-108.821c-1.636-48.523-37.359-92.483-83.253-106.577l-61.64-17.701c-.951-.292-1.94-.44-2.936-.44h-7.69l-6.519-42.343c25.495-13.687 44.325-38.236 50.253-67.418h5.869c18.773 0 34.047-15.273 34.047-34.046v-1.022c0-17.558-13.36-32.051-30.448-33.855 14.614-33.687-8.546-61.093-18.057-72.344-6.659-7.877-16.143-11.357-24.751-9.081-4.492 1.187-8.268 3.837-10.994 7.542-15.637-9.811-33.839-15.12-52.502-15.12-18.91 0-37.306 5.433-53.067 15.471-2.615-3.642-6.234-6.172-10.605-7.266-8.403-2.104-17.863 1.753-24.688 10.067-10.862 13.23-31.83 38.776-17.968 70.733-17.079 1.812-30.43 16.301-30.43 33.852v1.022c0 18.773 15.273 34.046 34.047 34.046h5.865c5.928 29.18 24.758 53.727 50.253 67.415l-6.519 42.346h-6.183c-.95 0-2.021.161-2.937.441l-57.641 17.701c-5.958 1.83-11.856 4.188-17.529 7.01-4.945 2.459-6.96 8.462-4.5 13.407 2.459 4.944 8.461 6.96 13.407 4.5 4.7-2.337 9.576-4.289 14.494-5.799l29.481-9.053-24.595 34.572c-2.599 3.653-2.449 8.588.366 12.077l14.245 17.653c2.276 2.82 5.9 4.188 9.471 3.577l12.148-2.082v31.56c0 2.416.875 4.75 2.461 6.57l62.882 72.145c3.927 4.5 11.155 4.504 15.077 0l62.883-72.145c1.587-1.821 2.461-4.155 2.461-6.57v-31.986l11.485 1.542c3.469.465 6.919-.912 9.113-3.631l14.245-17.653c2.807-3.479 2.965-8.397.386-12.049l-25.274-35.784 36.663 11.259c38.583 11.848 66.919 48.052 69.145 88.358l4.081 98.335h-48.113v-65.504c0-5.523-4.477-10-10-10s-10 4.477-10 10v65.504h-241.368v-65.504c0-5.523-4.477-10-10-10s-10 4.477-10 10v65.504h-49.545l3.159-98.386c.429-7.684 1.814-15.375 4.117-22.862zm150.805-67.282c17.676 8.249 38.755 8.262 56.432.006l-28.215 118.945zm144.974-180.254v1.022c0 7.745-6.301 14.046-14.047 14.046h-3.893v-29.115h3.893c7.746.001 14.047 6.302 14.047 14.047zm-48.147-95.943c2.05.572 3.684 1.847 4.369 2.657 16.05 18.984 24.266 36.126 12.524 56.354-7.487-4.648-15.047-11.431-17.829-20.033-4.031-12.466-1.787-26.465.936-38.978zm-141.508 4.048c1.627-1.982 3.085-2.833 3.917-3.155 3.747 10.387 4.407 25.959 1.83 36.609-2.304 9.524-10.195 16.652-18.318 21.571-11.197-19.219-3.768-35.122 12.571-55.025zm-43.855 92.917v-1.022c0-7.745 6.301-14.046 14.047-14.046h3.89v29.115h-3.89c-7.746-.001-14.047-6.302-14.047-14.047zm37.94 14.498v-33.188c9.922-5.258 19.301-12.918 25.432-22.41 8.831-13.672 8.292-31.568 6.136-47.055 13.572-10.176 30.149-15.726 47.249-15.726 16.845 0 33.224 5.404 46.687 15.316-1.931 15.52-1.94 33.187 6.632 46.9 6.032 9.65 15.508 17.597 25.492 22.922v33.085c0 42.896-35.891 78.812-78.812 78.812-43.409.002-78.732-35.27-78.816-78.656zm63.862 97.527c14.136 2.142 28.77 1.233 42.505-2.758l6.389 41.503c-8.752 9.331-21.141 14.688-33.938 14.688-12.8 0-25.191-5.36-33.948-14.688l6.389-41.502c4.131 1.199 8.35 2.11 12.603 2.757zm-41.482 106.282c-2.254-1.9-5.232-2.708-8.135-2.211l-18.052 3.094-5.798-7.186 34.286-48.195h1.699l33.351 140.592-33.797-38.776v-39.672c-.001-2.949-1.301-5.746-3.554-7.646zm137.885.048-17.237-2.315c-2.858-.384-5.744.485-7.915 2.384s-3.417 4.643-3.417 7.527v39.672l-33.801 38.781 33.351-140.597h1.682l33.304 47.153z"/><path d="m476.744 101.561h-76.745c-19.44 0-35.256 15.816-35.256 35.256v78.55l-25.517 29.79c-2.54 2.965-3.122 7.138-1.49 10.686 1.632 3.547 5.18 5.82 9.084 5.82h129.923c19.44 0 35.256-15.816 35.256-35.256v-89.589c.001-19.441-15.815-35.257-35.255-35.257zm15.256 124.845c0 8.412-6.844 15.256-15.256 15.256h-108.19l13.784-16.092c1.552-1.812 2.405-4.12 2.405-6.505v-82.248c0-8.412 6.844-15.256 15.256-15.256h76.745c8.412 0 15.256 6.844 15.256 15.256z"/><path d="m438.951 170.611c-5.523 0-10 4.477-10 10v33.287c0 5.523 4.477 10 10 10s10-4.477 10-10v-33.287c0-5.523-4.477-10-10-10z"/><path d="m429.72 152.28c2.066 5.039 8.038 7.499 13.06 5.41 5.035-2.094 7.483-8.022 5.4-13.06-2.084-5.042-8.014-7.479-13.05-5.41-5.031 2.066-7.5 8.043-5.41 13.06z"/><path d="m31.02 334.45c5.064 7.744 17.336 4.491 18.258-4.57.898-8.817-9.806-14.289-16.478-8.547-3.742 3.219-4.591 9.015-1.78 13.117z"/></g></svg>